STARTFONT 2.1
FONT -FontForge-PT Sans Narrow-Book-R-Normal-Sans-24-240-75-75--102--
SIZE 24 75 75
FONTBOUNDINGBOX 32 29 -10 -5
COMMENT "Generated by fontforge, http://fontforge.sourceforge.net"
COMMENT "Copyright (c) 2009 ParaType Ltd. All rights reserved."
STARTPROPERTIES 40
FOUNDRY "FontForge"
FAMILY_NAME "PT Sans Narrow"
WEIGHT_NAME "Book"
SLANT "R"
SETWIDTH_NAME "Normal"
ADD_STYLE_NAME "Sans"
PIXEL_SIZE 24
POINT_SIZE 230
RESOLUTION_X 75
RESOLUTION_Y 75
SPACING ""
AVERAGE_WIDTH 0
CHARSET_REGISTRY ""
CHARSET_ENCODING ""
FONTNAME_REGISTRY ""
CHARSET_COLLECTIONS "ISO8859-2 ISO8859-5 ISO8859-9 ISO8859-4 ISO10646-1"
FONT_NAME "PTSans-Narrow"
FACE_NAME "PT Sans Narrow"
COPYRIGHT "Copyright (c) 2009 ParaType Ltd. All rights reserved."
FONT_VERSION "2.003W OFL"
FONT_ASCENT 19
FONT_DESCENT 5
UNDERLINE_POSITION -2
UNDERLINE_THICKNESS 2
X_HEIGHT 11
CAP_HEIGHT 16
RAW_ASCENT 800
RAW_DESCENT 200
NORM_SPACE 5
RELATIVE_WEIGHT 40
RELATIVE_SETWIDTH 30
SUPERSCRIPT_X 0
SUPERSCRIPT_Y 8
SUPERSCRIPT_SIZE 14
SUBSCRIPT_X 0
SUBSCRIPT_Y 1
SUBSCRIPT_SIZE 14
FIGURE_WIDTH 11
AVG_LOWERCASE_WIDTH 95
AVG_UPPERCASE_WIDTH 118
ENDPROPERTIES
CHARS 723
STARTCHAR space
ENCODING 32
SWIDTH 212 0
DWIDTH 5 0
BBX 1 1 0 0
BITMAP
00
ENDCHAR
STARTCHAR exclam
ENCODING 33
SWIDTH 247 0
DWIDTH 6 0
BBX 2 17 2 0
BITMAP
C0
C0
C0
C0
C0
C0
C0
C0
C0
C0
C0
C0
00
00
C0
C0
C0
ENDCHAR
STARTCHAR quotedbl
ENCODING 34
SWIDTH 286 0
DWIDTH 7 0
BBX 5 5 2 12
BITMAP
D8
D0
D0
90
90
ENDCHAR
STARTCHAR numbersign
ENCODING 35
SWIDTH 450 0
DWIDTH 11 0
BBX 9 14 1 1
BITMAP
0900
1B00
1B00
1B00
7F80
1B00
3600
3600
3600
FF00
3600
6C00
6C00
6C00
ENDCHAR
STARTCHAR dollar
ENCODING 36
SWIDTH 450 0
DWIDTH 11 0
BBX 8 21 2 -2
BITMAP
10
10
3E
7E
D0
D0
D0
D0
70
70
1C
1E
16
13
13
13
17
FE
F8
10
10
ENDCHAR
STARTCHAR percent
ENCODING 37
SWIDTH 637 0
DWIDTH 15 0
BBX 13 17 1 0
BITMAP
3810
6C30
6C60
EC40
EEC0
6C80
6D80
3B00
0200
06E0
05B0
0DB0
1998
1198
31B0
21B0
60E0
ENDCHAR
STARTCHAR ampersand
ENCODING 38
SWIDTH 656 0
DWIDTH 16 0
BBX 12 17 2 0
BITMAP
1E00
3F00
3300
3300
3200
1600
1C00
3800
6C00
6630
C330
C360
C1E0
C0C0
E1E0
7F30
3E10
ENDCHAR
STARTCHAR quotesingle
ENCODING 39
SWIDTH 181 0
DWIDTH 4 0
BBX 2 5 2 12
BITMAP
C0
C0
C0
80
80
ENDCHAR
STARTCHAR parenleft
ENCODING 40
SWIDTH 233 0
DWIDTH 6 0
BBX 5 22 1 -5
BITMAP
08
10
30
20
60
60
40
C0
C0
C0
C0
C0
C0
C0
C0
40
60
60
20
30
10
18
ENDCHAR
STARTCHAR parenright
ENCODING 41
SWIDTH 233 0
DWIDTH 6 0
BBX 5 22 1 -5
BITMAP
80
40
60
20
30
30
10
18
18
18
18
18
18
18
18
30
30
30
20
60
40
C0
ENDCHAR
STARTCHAR asterisk
ENCODING 42
SWIDTH 291 0
DWIDTH 7 0
BBX 5 5 1 12
BITMAP
50
20
F8
20
50
ENDCHAR
STARTCHAR plus
ENCODING 43
SWIDTH 415 0
DWIDTH 10 0
BBX 8 10 1 3
BITMAP
18
18
18
18
FF
FF
18
18
18
18
ENDCHAR
STARTCHAR comma
ENCODING 44
SWIDTH 186 0
DWIDTH 4 0
BBX 2 6 1 -3
BITMAP
C0
C0
C0
40
40
80
ENDCHAR
STARTCHAR hyphen
ENCODING 45
SWIDTH 291 0
DWIDTH 7 0
BBX 5 2 1 6
BITMAP
F8
F8
ENDCHAR
STARTCHAR period
ENCODING 46
SWIDTH 178 0
DWIDTH 4 0
BBX 2 3 1 0
BITMAP
C0
C0
C0
ENDCHAR
STARTCHAR slash
ENCODING 47
SWIDTH 295 0
DWIDTH 7 0
BBX 8 20 0 -3
BITMAP
01
03
03
06
06
06
0C
0C
08
18
18
10
30
30
20
60
60
40
C0
C0
ENDCHAR
STARTCHAR zero
ENCODING 48
SWIDTH 450 0
DWIDTH 11 0
BBX 9 17 1 0
BITMAP
1E00
7F00
6300
6300
C180
C180
C180
C180
C180
C180
C180
C180
C180
E300
6300
7F00
3C00
ENDCHAR
STARTCHAR one
ENCODING 49
SWIDTH 450 0
DWIDTH 11 0
BBX 8 17 2 0
BITMAP
18
38
78
D8
98
18
18
18
18
18
18
18
18
18
18
FF
FF
ENDCHAR
STARTCHAR two
ENCODING 50
SWIDTH 450 0
DWIDTH 11 0
BBX 8 17 1 0
BITMAP
7C
FE
07
03
03
03
03
06
06
0C
0C
18
18
30
60
FF
FF
ENDCHAR
STARTCHAR three
ENCODING 51
SWIDTH 450 0
DWIDTH 11 0
BBX 8 17 2 0
BITMAP
FF
FE
06
0C
0C
18
10
3C
3E
07
03
03
03
03
06
FE
F8
ENDCHAR
STARTCHAR four
ENCODING 52
SWIDTH 450 0
DWIDTH 11 0
BBX 10 17 0 0
BITMAP
0300
0300
0700
0F00
0F00
1B00
1B00
3300
2300
6300
FFC0
FFC0
0300
0300
0300
0300
0300
ENDCHAR
STARTCHAR five
ENCODING 53
SWIDTH 450 0
DWIDTH 11 0
BBX 8 17 1 0
BITMAP
7F
7F
60
60
60
60
7C
7E
07
03
03
03
03
07
06
FC
F8
ENDCHAR
STARTCHAR six
ENCODING 54
SWIDTH 450 0
DWIDTH 11 0
BBX 9 17 1 0
BITMAP
0300
0F00
1C00
3000
7000
6000
6000
DE00
FF00
E380
C180
C180
C180
C180
6300
7F00
3E00
ENDCHAR
STARTCHAR seven
ENCODING 55
SWIDTH 450 0
DWIDTH 11 0
BBX 9 17 1 0
BITMAP
FF80
FF00
0300
0300
0600
0600
0600
0C00
0C00
0C00
1800
1800
1800
3000
3000
3000
6000
ENDCHAR
STARTCHAR eight
ENCODING 56
SWIDTH 450 0
DWIDTH 11 0
BBX 8 17 1 0
BITMAP
3C
7E
E7
C3
C3
C3
66
3C
3C
66
C7
C3
C3
C3
E7
7E
3C
ENDCHAR
STARTCHAR nine
ENCODING 57
SWIDTH 450 0
DWIDTH 11 0
BBX 8 17 1 0
BITMAP
3C
7E
E6
C3
C3
C3
C3
E7
7F
3B
07
06
06
0C
1C
78
60
ENDCHAR
STARTCHAR colon
ENCODING 58
SWIDTH 206 0
DWIDTH 5 0
BBX 2 12 2 0
BITMAP
C0
C0
C0
00
00
00
00
00
00
C0
C0
C0
ENDCHAR
STARTCHAR semicolon
ENCODING 59
SWIDTH 216 0
DWIDTH 5 0
BBX 2 15 2 -3
BITMAP
C0
C0
C0
00
00
00
00
00
00
C0
C0
C0
40
40
80
ENDCHAR
STARTCHAR less
ENCODING 60
SWIDTH 415 0
DWIDTH 10 0
BBX 8 11 1 2
BITMAP
02
07
0C
38
70
C0
70
38
0C
07
02
ENDCHAR
STARTCHAR equal
ENCODING 61
SWIDTH 415 0
DWIDTH 10 0
BBX 8 6 1 5
BITMAP
FF
FF
00
00
FF
FF
ENDCHAR
STARTCHAR greater
ENCODING 62
SWIDTH 415 0
DWIDTH 10 0
BBX 8 11 1 2
BITMAP
C0
E0
30
1C
0E
03
0E
1C
30
E0
40
ENDCHAR
STARTCHAR question
ENCODING 63
SWIDTH 358 0
DWIDTH 9 0
BBX 7 17 1 0
BITMAP
7C
FE
0E
06
06
06
0C
0C
18
38
30
30
00
00
30
30
30
ENDCHAR
STARTCHAR at
ENCODING 64
SWIDTH 857 0
DWIDTH 21 0
BBX 17 20 2 -4
BITMAP
03F000
0FFC00
1C0E00
380700
71FB00
63F980
673980
C61180
C63180
CC3180
CC3180
CC3180
CC7300
CCF700
6FBE00
673C00
300000
3C1000
1FF000
03E000
ENDCHAR
STARTCHAR A
ENCODING 65
SWIDTH 473 0
DWIDTH 11 0
BBX 11 17 0 0
BITMAP
0400
0400
0E00
0A00
0A00
1B00
1B00
1100
3100
3180
3F80
3F80
60C0
60C0
60C0
C060
C060
ENDCHAR
STARTCHAR B
ENCODING 66
SWIDTH 471 0
DWIDTH 11 0
BBX 8 17 2 0
BITMAP
FC
FE
C7
C3
C3
C3
C6
F8
FE
C7
C3
C3
C3
C3
C6
FE
FC
ENDCHAR
STARTCHAR C
ENCODING 67
SWIDTH 458 0
DWIDTH 11 0
BBX 9 17 1 0
BITMAP
0F80
3F80
7000
6000
E000
C000
C000
C000
C000
C000
C000
C000
E000
6000
7000
3F80
1F00
ENDCHAR
STARTCHAR D
ENCODING 68
SWIDTH 525 0
DWIDTH 13 0
BBX 10 17 2 0
BITMAP
FC00
FF00
C380
C180
C1C0
C0C0
C0C0
C0C0
C0C0
C0C0
C0C0
C0C0
C180
C180
C380
FF00
FC00
ENDCHAR
STARTCHAR E
ENCODING 69
SWIDTH 429 0
DWIDTH 10 0
BBX 8 17 2 0
BITMAP
FF
FF
C0
C0
C0
C0
C0
FE
FE
C0
C0
C0
C0
C0
C0
FF
FF
ENDCHAR
STARTCHAR F
ENCODING 70
SWIDTH 413 0
DWIDTH 10 0
BBX 7 17 2 0
BITMAP
FE
FE
C0
C0
C0
C0
C0
FE
FE
C0
C0
C0
C0
C0
C0
C0
C0
ENDCHAR
STARTCHAR G
ENCODING 71
SWIDTH 492 0
DWIDTH 12 0
BBX 10 17 1 0
BITMAP
0FC0
3FC0
3800
6000
6000
C000
C000
C000
C000
C7C0
C3C0
C0C0
E0C0
60C0
70C0
3FC0
0F80
ENDCHAR
STARTCHAR H
ENCODING 72
SWIDTH 536 0
DWIDTH 13 0
BBX 9 17 2 0
BITMAP
C180
C180
C180
C180
C180
C180
C180
FF80
FF80
C180
C180
C180
C180
C180
C180
C180
C180
ENDCHAR
STARTCHAR I
ENCODING 73
SWIDTH 233 0
DWIDTH 6 0
BBX 2 17 2 0
BITMAP
C0
C0
C0
C0
C0
C0
C0
C0
C0
C0
C0
C0
C0
C0
C0
C0
C0
ENDCHAR
STARTCHAR J
ENCODING 74
SWIDTH 241 0
DWIDTH 6 0
BBX 4 17 0 0
BITMAP
30
30
30
30
30
30
30
30
30
30
30
30
30
30
30
F0
E0
ENDCHAR
STARTCHAR K
ENCODING 75
SWIDTH 493 0
DWIDTH 12 0
BBX 9 17 2 0
BITMAP
C180
C300
C300
C600
CC00
CC00
D800
D800
F000
F800
D800
CC00
CE00
C600
C700
C300
C180
ENDCHAR
STARTCHAR L
ENCODING 76
SWIDTH 415 0
DWIDTH 10 0
BBX 8 17 2 0
BITMAP
C0
C0
C0
C0
C0
C0
C0
C0
C0
C0
C0
C0
C0
C0
C0
FF
FF
ENDCHAR
STARTCHAR M
ENCODING 77
SWIDTH 637 0
DWIDTH 15 0
BBX 12 17 2 0
BITMAP
C030
C030
E070
E070
F0F0
F0B0
D9B0
D9B0
CD30
CF30
C630
C630
C630
C030
C030
C030
C030
ENDCHAR
STARTCHAR N
ENCODING 78
SWIDTH 538 0
DWIDTH 13 0
BBX 9 17 2 0
BITMAP
C180
C180
E180
E180
E180
F180
D180
D980
C980
CD80
C580
C780
C380
C380
C380
C180
C180
ENDCHAR
STARTCHAR O
ENCODING 79
SWIDTH 549 0
DWIDTH 13 0
BBX 11 17 1 0
BITMAP
1F00
3F80
71C0
60C0
C0E0
C060
C060
C060
C060
C060
C060
C060
E0E0
60C0
71C0
3F80
1F00
ENDCHAR
STARTCHAR P
ENCODING 80
SWIDTH 451 0
DWIDTH 11 0
BBX 8 17 2 0
BITMAP
FC
FE
C6
C3
C3
C3
C3
C3
C6
FE
F8
C0
C0
C0
C0
C0
C0
ENDCHAR
STARTCHAR Q
ENCODING 81
SWIDTH 549 0
DWIDTH 13 0
BBX 12 21 1 -4
BITMAP
1F00
3F80
71C0
60C0
C0E0
C060
C060
C060
C060
C060
C060
C060
E0E0
60C0
71C0
3F80
1F00
0000
1E00
1FF0
01F0
ENDCHAR
STARTCHAR R
ENCODING 82
SWIDTH 480 0
DWIDTH 12 0
BBX 9 17 2 0
BITMAP
FC00
FE00
C700
C300
C300
C300
C300
C700
FE00
FC00
CC00
CC00
C600
C600
C300
C300
C180
ENDCHAR
STARTCHAR S
ENCODING 83
SWIDTH 428 0
DWIDTH 10 0
BBX 8 17 1 0
BITMAP
3E
7F
E0
C0
C0
E0
70
38
1C
0E
07
03
03
03
07
FE
7C
ENDCHAR
STARTCHAR T
ENCODING 84
SWIDTH 447 0
DWIDTH 11 0
BBX 10 17 0 0
BITMAP
FFC0
FFC0
0C00
0C00
0C00
0C00
0C00
0C00
0C00
0C00
0C00
0C00
0C00
0C00
0C00
0C00
0C00
ENDCHAR
STARTCHAR U
ENCODING 85
SWIDTH 521 0
DWIDTH 13 0
BBX 9 17 2 0
BITMAP
C180
C180
C180
C180
C180
C180
C180
C180
C180
C180
C180
C180
C180
C180
E380
7F00
3E00
ENDCHAR
STARTCHAR V
ENCODING 86
SWIDTH 463 0
DWIDTH 11 0
BBX 11 17 0 0
BITMAP
C060
C060
6040
60C0
60C0
20C0
3180
3180
3180
1900
1B00
1B00
0A00
0A00
0E00
0400
0400
ENDCHAR
STARTCHAR W
ENCODING 87
SWIDTH 672 0
DWIDTH 16 0
BBX 15 17 0 0
BITMAP
C106
C106
4384
638C
628C
628C
62CC
26C8
36C8
3458
3478
3478
1C70
1830
1830
1830
1830
ENDCHAR
STARTCHAR X
ENCODING 88
SWIDTH 500 0
DWIDTH 12 0
BBX 11 17 0 0
BITMAP
6060
3060
30C0
1880
1980
0900
0F00
0600
0600
0F00
0F00
1980
1980
30C0
30C0
6060
E060
ENDCHAR
STARTCHAR Y
ENCODING 89
SWIDTH 455 0
DWIDTH 11 0
BBX 10 17 0 0
BITMAP
C0C0
C0C0
6180
6180
3100
3300
3300
1E00
1E00
0C00
0C00
0C00
0C00
0C00
0C00
0C00
0C00
ENDCHAR
STARTCHAR Z
ENCODING 90
SWIDTH 439 0
DWIDTH 11 0
BBX 9 17 1 0
BITMAP
FF80
FF80
0180
0300
0300
0600
0600
0C00
1C00
1800
3000
3000
6000
6000
C000
FF80
FF80
ENDCHAR
STARTCHAR bracketleft
ENCODING 91
SWIDTH 248 0
DWIDTH 6 0
BBX 4 22 1 -5
BITMAP
F0
F0
C0
C0
C0
C0
C0
C0
C0
C0
C0
C0
C0
C0
C0
C0
C0
C0
C0
C0
F0
F0
ENDCHAR
STARTCHAR backslash
ENCODING 92
SWIDTH 316 0
DWIDTH 8 0
BBX 9 20 -1 -3
BITMAP
C000
C000
4000
6000
2000
3000
3000
1000
1800
1800
0C00
0C00
0400
0600
0600
0200
0300
0100
0180
0180
ENDCHAR
STARTCHAR bracketright
ENCODING 93
SWIDTH 248 0
DWIDTH 6 0
BBX 4 22 1 -5
BITMAP
F0
F0
30
30
30
30
30
30
30
30
30
30
30
30
30
30
30
30
30
30
F0
F0
ENDCHAR
STARTCHAR asciicircum
ENCODING 94
SWIDTH 412 0
DWIDTH 10 0
BBX 8 7 1 10
BITMAP
18
18
3C
34
66
66
C3
ENDCHAR
STARTCHAR underscore
ENCODING 95
SWIDTH 334 0
DWIDTH 8 0
BBX 8 2 0 -5
BITMAP
FF
FF
ENDCHAR
STARTCHAR grave
ENCODING 96
SWIDTH 255 0
DWIDTH 6 0
BBX 3 4 1 14
BITMAP
C0
40
60
20
ENDCHAR
STARTCHAR a
ENCODING 97
SWIDTH 400 0
DWIDTH 10 0
BBX 8 12 1 0
BITMAP
7E
7F
03
03
03
3F
7F
E3
C3
C7
FF
7B
ENDCHAR
STARTCHAR b
ENCODING 98
SWIDTH 434 0
DWIDTH 10 0
BBX 8 17 1 0
BITMAP
C0
C0
C0
C0
C0
DC
FE
E7
C3
C3
C3
C3
C3
C3
C6
FE
7C
ENDCHAR
STARTCHAR c
ENCODING 99
SWIDTH 356 0
DWIDTH 9 0
BBX 7 12 1 0
BITMAP
3E
7E
62
C0
C0
C0
C0
C0
C0
62
7E
3C
ENDCHAR
STARTCHAR d
ENCODING 100
SWIDTH 433 0
DWIDTH 10 0
BBX 8 17 1 0
BITMAP
03
03
03
03
03
3F
7F
63
C3
C3
C3
C3
C3
C3
E7
7F
39
ENDCHAR
STARTCHAR e
ENCODING 101
SWIDTH 413 0
DWIDTH 10 0
BBX 8 12 1 0
BITMAP
3C
7E
63
C3
FF
FF
C0
C0
C0
60
7F
3E
ENDCHAR
STARTCHAR f
ENCODING 102
SWIDTH 257 0
DWIDTH 6 0
BBX 6 17 1 0
BITMAP
3C
7C
60
60
60
F8
F8
60
60
60
60
60
60
60
60
60
60
ENDCHAR
STARTCHAR g
ENCODING 103
SWIDTH 432 0
DWIDTH 10 0
BBX 8 17 1 -5
BITMAP
3E
7F
63
C3
C3
C3
C3
C3
C3
E7
7F
3B
03
03
07
7E
7C
ENDCHAR
STARTCHAR h
ENCODING 104
SWIDTH 440 0
DWIDTH 10 0
BBX 8 17 1 0
BITMAP
C0
C0
C0
C0
C0
DE
FF
E7
C3
C3
C3
C3
C3
C3
C3
C3
C3
ENDCHAR
STARTCHAR i
ENCODING 105
SWIDTH 217 0
DWIDTH 4 0
BBX 2 17 1 0
BITMAP
C0
C0
C0
00
00
C0
C0
C0
C0
C0
C0
C0
C0
C0
C0
C0
C0
ENDCHAR
STARTCHAR j
ENCODING 106
SWIDTH 215 0
DWIDTH 5 0
BBX 4 22 0 -5
BITMAP
30
30
30
00
00
30
30
30
30
30
30
30
30
30
30
30
30
30
30
70
E0
E0
ENDCHAR
STARTCHAR k
ENCODING 107
SWIDTH 388 0
DWIDTH 9 0
BBX 8 17 1 0
BITMAP
C0
C0
C0
C0
C0
C3
C6
C6
CC
C8
F0
F8
D8
CC
C6
C6
C3
ENDCHAR
STARTCHAR l
ENCODING 108
SWIDTH 233 0
DWIDTH 6 0
BBX 4 17 1 0
BITMAP
C0
C0
C0
C0
C0
C0
C0
C0
C0
C0
C0
C0
C0
C0
C0
F0
70
ENDCHAR
STARTCHAR m
ENCODING 109
SWIDTH 651 0
DWIDTH 16 0
BBX 14 12 1 0
BITMAP
DE78
FFFC
E78C
C30C
C30C
C30C
C30C
C30C
C30C
C30C
C30C
C30C
ENDCHAR
STARTCHAR n
ENCODING 110
SWIDTH 439 0
DWIDTH 10 0
BBX 8 12 1 0
BITMAP
DE
FF
E3
C3
C3
C3
C3
C3
C3
C3
C3
C3
ENDCHAR
STARTCHAR o
ENCODING 111
SWIDTH 432 0
DWIDTH 10 0
BBX 8 12 1 0
BITMAP
3C
7E
E7
C3
C3
C3
C3
C3
C3
E7
7E
3C
ENDCHAR
STARTCHAR p
ENCODING 112
SWIDTH 435 0
DWIDTH 10 0
BBX 8 17 1 -5
BITMAP
DC
FE
E7
C3
C3
C3
C3
C3
C3
C6
FE
FC
C0
C0
C0
C0
C0
ENDCHAR
STARTCHAR q
ENCODING 113
SWIDTH 432 0
DWIDTH 10 0
BBX 8 17 1 -5
BITMAP
3E
7F
63
C3
C3
C3
C3
C3
C3
E7
7F
3B
03
03
03
03
03
ENDCHAR
STARTCHAR r
ENCODING 114
SWIDTH 274 0
DWIDTH 7 0
BBX 5 12 1 0
BITMAP
D8
F8
E0
C0
C0
C0
C0
C0
C0
C0
C0
C0
ENDCHAR
STARTCHAR s
ENCODING 115
SWIDTH 338 0
DWIDTH 8 0
BBX 6 12 1 0
BITMAP
7C
FC
C0
C0
E0
70
38
1C
0C
0C
FC
F8
ENDCHAR
STARTCHAR t
ENCODING 116
SWIDTH 275 0
DWIDTH 7 0
BBX 6 15 1 0
BITMAP
60
60
60
FC
FC
60
60
60
60
60
60
60
60
7C
3C
ENDCHAR
STARTCHAR u
ENCODING 117
SWIDTH 434 0
DWIDTH 10 0
BBX 8 12 1 0
BITMAP
C3
C3
C3
C3
C3
C3
C3
C3
C3
C7
FF
79
ENDCHAR
STARTCHAR v
ENCODING 118
SWIDTH 388 0
DWIDTH 9 0
BBX 9 12 0 0
BITMAP
C180
6380
6300
6300
2600
3600
3600
1400
1C00
1C00
0800
0800
ENDCHAR
STARTCHAR w
ENCODING 119
SWIDTH 590 0
DWIDTH 14 0
BBX 14 12 0 0
BITMAP
C30C
C30C
6798
6798
6598
6CD8
3CF0
3CF0
3870
1860
1860
1020
ENDCHAR
STARTCHAR x
ENCODING 120
SWIDTH 412 0
DWIDTH 10 0
BBX 10 12 0 0
BITMAP
6180
7180
3300
3B00
1E00
0C00
1E00
1E00
3300
3300
6180
E1C0
ENDCHAR
STARTCHAR y
ENCODING 121
SWIDTH 376 0
DWIDTH 9 0
BBX 9 17 0 -5
BITMAP
E180
E380
6300
6300
7300
3700
3600
3E00
1E00
1E00
1C00
0C00
0C00
1800
1800
7800
7000
ENDCHAR
STARTCHAR z
ENCODING 122
SWIDTH 360 0
DWIDTH 9 0
BBX 7 12 1 0
BITMAP
FE
FE
06
0C
1C
18
30
70
60
C0
FE
FE
ENDCHAR
STARTCHAR braceleft
ENCODING 123
SWIDTH 282 0
DWIDTH 7 0
BBX 6 22 0 -5
BITMAP
1C
3C
30
30
30
30
30
30
30
30
E0
E0
30
30
30
30
30
30
30
30
3C
1C
ENDCHAR
STARTCHAR bar
ENCODING 124
SWIDTH 190 0
DWIDTH 5 0
BBX 2 20 1 -3
BITMAP
C0
C0
C0
C0
C0
C0
C0
C0
C0
C0
C0
C0
C0
C0
C0
C0
C0
C0
C0
C0
ENDCHAR
STARTCHAR braceright
ENCODING 125
SWIDTH 282 0
DWIDTH 7 0
BBX 6 22 0 -5
BITMAP
E0
F0
30
30
30
30
30
30
30
30
1C
1C
30
30
30
30
30
30
30
30
F0
E0
ENDCHAR
STARTCHAR asciitilde
ENCODING 126
SWIDTH 415 0
DWIDTH 10 0
BBX 9 3 0 7
BITMAP
7900
FF80
8700
ENDCHAR
STARTCHAR uni00A0
ENCODING 160
SWIDTH 212 0
DWIDTH 5 0
BBX 1 1 0 0
BITMAP
00
ENDCHAR
STARTCHAR exclamdown
ENCODING 161
SWIDTH 247 0
DWIDTH 6 0
BBX 2 17 2 -5
BITMAP
C0
C0
C0
00
00
C0
C0
C0
C0
C0
C0
C0
C0
C0
C0
C0
C0
ENDCHAR
STARTCHAR cent
ENCODING 162
SWIDTH 450 0
DWIDTH 11 0
BBX 7 16 2 -2
BITMAP
18
18
3E
7E
F8
D8
D8
D8
D8
D8
D8
F8
7E
3E
18
18
ENDCHAR
STARTCHAR sterling
ENCODING 163
SWIDTH 450 0
DWIDTH 11 0
BBX 9 17 1 0
BITMAP
1F80
3F80
7000
6000
6000
6000
6000
7000
FE00
FE00
1800
1800
1800
1800
3000
FF80
FF80
ENDCHAR
STARTCHAR currency
ENCODING 164
SWIDTH 450 0
DWIDTH 11 0
BBX 11 11 0 3
BITMAP
4040
C0E0
2E80
3F80
3180
3180
3180
3F80
2E80
E0E0
4040
ENDCHAR
STARTCHAR yen
ENCODING 165
SWIDTH 450 0
DWIDTH 11 0
BBX 10 17 0 0
BITMAP
C0C0
C0C0
6180
6180
3100
3300
3300
1E00
1E00
3F00
3F00
0C00
3F00
3F00
0C00
0C00
0C00
ENDCHAR
STARTCHAR brokenbar
ENCODING 166
SWIDTH 189 0
DWIDTH 5 0
BBX 2 20 1 -3
BITMAP
C0
C0
C0
C0
C0
C0
C0
C0
00
00
00
00
C0
C0
C0
C0
C0
C0
C0
C0
ENDCHAR
STARTCHAR section
ENCODING 167
SWIDTH 405 0
DWIDTH 10 0
BBX 8 17 1 0
BITMAP
3E
7E
60
60
70
3C
6E
C3
C3
C3
76
3C
0E
06
06
7E
7C
ENDCHAR
STARTCHAR dieresis
ENCODING 168
SWIDTH 365 0
DWIDTH 9 0
BBX 6 3 1 14
BITMAP
CC
CC
CC
ENDCHAR
STARTCHAR copyright
ENCODING 169
SWIDTH 693 0
DWIDTH 17 0
BBX 14 14 1 0
BITMAP
0FC0
3030
6018
47C8
8FC4
9C04
9804
9804
9C04
8FC4
47C8
6018
3030
0FC0
ENDCHAR
STARTCHAR ordfeminine
ENCODING 170
SWIDTH 316 0
DWIDTH 8 0
BBX 6 8 1 9
BITMAP
F8
8C
0C
7C
CC
CC
CC
7C
ENDCHAR
STARTCHAR guillemotleft
ENCODING 171
SWIDTH 386 0
DWIDTH 9 0
BBX 8 11 1 1
BITMAP
11
33
22
66
44
88
CC
66
22
33
11
ENDCHAR
STARTCHAR logicalnot
ENCODING 172
SWIDTH 415 0
DWIDTH 10 0
BBX 8 5 1 5
BITMAP
FF
FF
03
03
03
ENDCHAR
STARTCHAR uni00AD
ENCODING 173
SWIDTH 291 0
DWIDTH 7 0
BBX 5 2 1 6
BITMAP
F8
F8
ENDCHAR
STARTCHAR registered
ENCODING 174
SWIDTH 591 0
DWIDTH 14 0
BBX 11 11 2 6
BITMAP
1F00
2080
5C40
9220
9220
9C20
9420
9220
4040
6080
1F00
ENDCHAR
STARTCHAR macron
ENCODING 175
SWIDTH 363 0
DWIDTH 9 0
BBX 6 2 1 14
BITMAP
FC
FC
ENDCHAR
STARTCHAR degree
ENCODING 176
SWIDTH 342 0
DWIDTH 8 0
BBX 5 7 2 10
BITMAP
70
D8
88
88
88
D8
70
ENDCHAR
STARTCHAR plusminus
ENCODING 177
SWIDTH 415 0
DWIDTH 10 0
BBX 8 11 1 4
BITMAP
18
18
18
18
FF
FF
18
18
00
FF
FF
ENDCHAR
STARTCHAR twosuperior
ENCODING 178
SWIDTH 330 0
DWIDTH 8 0
BBX 5 10 1 9
BITMAP
F0
F8
18
18
18
30
30
60
78
F8
ENDCHAR
STARTCHAR threesuperior
ENCODING 179
SWIDTH 330 0
DWIDTH 8 0
BBX 5 10 2 9
BITMAP
F8
10
30
60
70
18
18
18
18
F0
ENDCHAR
STARTCHAR acute
ENCODING 180
SWIDTH 245 0
DWIDTH 6 0
BBX 3 4 2 14
BITMAP
60
40
C0
80
ENDCHAR
STARTCHAR mu
ENCODING 181
SWIDTH 450 0
DWIDTH 11 0
BBX 8 17 1 -5
BITMAP
C3
C3
C3
C3
C3
C3
C3
C3
C3
E7
FF
F9
C0
C0
C0
C0
C0
ENDCHAR
STARTCHAR paragraph
ENCODING 182
SWIDTH 403 0
DWIDTH 10 0
BBX 7 20 1 -3
BITMAP
36
76
F6
F6
F6
F6
F6
F6
76
36
36
36
36
36
36
36
36
36
36
36
ENDCHAR
STARTCHAR periodcentered
ENCODING 183
SWIDTH 213 0
DWIDTH 5 0
BBX 2 3 1 6
BITMAP
40
C0
40
ENDCHAR
STARTCHAR cedilla
ENCODING 184
SWIDTH 262 0
DWIDTH 6 0
BBX 4 5 1 -5
BITMAP
20
70
30
30
E0
ENDCHAR
STARTCHAR onesuperior
ENCODING 185
SWIDTH 330 0
DWIDTH 8 0
BBX 6 10 1 9
BITMAP
30
70
B0
30
30
30
30
30
30
FC
ENDCHAR
STARTCHAR ordmasculine
ENCODING 186
SWIDTH 323 0
DWIDTH 8 0
BBX 6 8 1 9
BITMAP
78
CC
CC
CC
CC
CC
CC
78
ENDCHAR
STARTCHAR guillemotright
ENCODING 187
SWIDTH 386 0
DWIDTH 9 0
BBX 8 11 1 1
BITMAP
88
CC
44
66
33
11
22
66
44
CC
88
ENDCHAR
STARTCHAR onequarter
ENCODING 188
SWIDTH 683 0
DWIDTH 16 0
BBX 15 17 1 0
BITMAP
3010
7030
F020
B060
3040
30C0
3080
3198
3118
3338
0638
0458
0C58
08D8
18FE
1018
3018
ENDCHAR
STARTCHAR onehalf
ENCODING 189
SWIDTH 701 0
DWIDTH 17 0
BBX 14 17 1 0
BITMAP
3010
7030
F020
B060
3040
30C0
3080
31F8
317C
330C
060C
040C
0C18
0810
1830
103C
307C
ENDCHAR
STARTCHAR threequarters
ENCODING 190
SWIDTH 710 0
DWIDTH 17 0
BBX 14 17 2 0
BITMAP
F810
1020
3060
6040
70C0
3880
1980
1910
3310
E270
0670
0470
0CF0
18B0
11FC
3030
2030
ENDCHAR
STARTCHAR questiondown
ENCODING 191
SWIDTH 358 0
DWIDTH 9 0
BBX 7 17 1 -5
BITMAP
10
18
10
00
00
18
38
30
30
60
C0
C0
C0
C0
C0
FC
7E
ENDCHAR
STARTCHAR Agrave
ENCODING 192
SWIDTH 473 0
DWIDTH 11 0
BBX 11 21 0 0
BITMAP
3800
1C00
0600
0000
0400
0400
0E00
0A00
0A00
1B00
1B00
1100
3100
3180
3F80
3F80
60C0
60C0
60C0
C060
C060
ENDCHAR
STARTCHAR Aacute
ENCODING 193
SWIDTH 473 0
DWIDTH 11 0
BBX 11 21 0 0
BITMAP
0380
0600
0C00
0000
0400
0400
0E00
0A00
0A00
1B00
1B00
1100
3100
3180
3F80
3F80
60C0
60C0
60C0
C060
C060
ENDCHAR
STARTCHAR Acircumflex
ENCODING 194
SWIDTH 473 0
DWIDTH 11 0
BBX 11 21 0 0
BITMAP
0600
0B00
1980
0000
0400
0400
0E00
0A00
0A00
1B00
1B00
1100
3100
3180
3F80
3F80
60C0
60C0
60C0
C060
C060
ENDCHAR
STARTCHAR Atilde
ENCODING 195
SWIDTH 473 0
DWIDTH 11 0
BBX 11 21 0 0
BITMAP
1C80
3F80
2700
0000
0400
0400
0E00
0A00
0A00
1B00
1B00
1100
3100
3180
3F80
3F80
60C0
60C0
60C0
C060
C060
ENDCHAR
STARTCHAR Adieresis
ENCODING 196
SWIDTH 473 0
DWIDTH 11 0
BBX 11 20 0 0
BITMAP
1B00
1B00
0000
0400
0400
0E00
0A00
0A00
1B00
1B00
1100
3100
3180
3F80
3F80
60C0
60C0
60C0
C060
C060
ENDCHAR
STARTCHAR Aring
ENCODING 197
SWIDTH 473 0
DWIDTH 11 0
BBX 11 20 0 0
BITMAP
0E00
1100
1100
0E00
0400
0E00
0A00
0A00
1B00
1B00
1100
1100
3180
3F80
3F80
60C0
60C0
60C0
C060
C060
ENDCHAR
STARTCHAR AE
ENCODING 198
SWIDTH 683 0
DWIDTH 16 0
BBX 16 17 -1 0
BITMAP
00FF
01FF
01C0
03C0
03C0
06C0
06C0
0CFE
0CFE
0CC0
18C0
1FC0
3FC0
30C0
60C0
60FF
C0FF
ENDCHAR
STARTCHAR Ccedilla
ENCODING 199
SWIDTH 458 0
DWIDTH 11 0
BBX 9 22 1 -5
BITMAP
0F80
3F80
7000
6000
E000
C000
C000
C000
C000
C000
C000
C000
E000
6000
7000
3F80
1F00
0400
0E00
0600
0600
0C00
ENDCHAR
STARTCHAR Egrave
ENCODING 200
SWIDTH 429 0
DWIDTH 10 0
BBX 8 21 2 0
BITMAP
E0
30
18
00
FF
FF
C0
C0
C0
C0
C0
FE
FE
C0
C0
C0
C0
C0
C0
FF
FF
ENDCHAR
STARTCHAR Eacute
ENCODING 201
SWIDTH 429 0
DWIDTH 10 0
BBX 8 21 2 0
BITMAP
0E
18
30
00
FF
FF
C0
C0
C0
C0
C0
FE
FE
C0
C0
C0
C0
C0
C0
FF
FF
ENDCHAR
STARTCHAR Ecircumflex
ENCODING 202
SWIDTH 429 0
DWIDTH 10 0
BBX 8 21 2 0
BITMAP
18
2C
66
00
FF
FF
C0
C0
C0
C0
C0
FE
FE
C0
C0
C0
C0
C0
C0
FF
FF
ENDCHAR
STARTCHAR Edieresis
ENCODING 203
SWIDTH 429 0
DWIDTH 10 0
BBX 8 20 2 0
BITMAP
CC
CC
00
FF
FF
C0
C0
C0
C0
C0
FE
FE
C0
C0
C0
C0
C0
C0
FF
FF
ENDCHAR
STARTCHAR Igrave
ENCODING 204
SWIDTH 233 0
DWIDTH 6 0
BBX 5 21 0 0
BITMAP
E0
60
30
08
30
30
30
30
30
30
30
30
30
30
30
30
30
30
30
30
30
ENDCHAR
STARTCHAR Iacute
ENCODING 205
SWIDTH 233 0
DWIDTH 6 0
BBX 5 21 1 0
BITMAP
38
60
C0
00
60
60
60
60
60
60
60
60
60
60
60
60
60
60
60
60
60
ENDCHAR
STARTCHAR Icircumflex
ENCODING 206
SWIDTH 233 0
DWIDTH 6 0
BBX 6 21 0 0
BITMAP
30
78
CC
00
30
30
30
30
30
30
30
30
30
30
30
30
30
30
30
30
30
ENDCHAR
STARTCHAR Idieresis
ENCODING 207
SWIDTH 233 0
DWIDTH 6 0
BBX 6 20 0 0
BITMAP
CC
CC
00
30
30
30
30
30
30
30
30
30
30
30
30
30
30
30
30
30
ENDCHAR
STARTCHAR Eth
ENCODING 208
SWIDTH 531 0
DWIDTH 13 0
BBX 12 17 0 0
BITMAP
3F00
3FC0
30E0
3060
3070
3030
3030
FE30
FE30
3030
3030
3030
3060
3060
30E0
3FC0
3F00
ENDCHAR
STARTCHAR Ntilde
ENCODING 209
SWIDTH 538 0
DWIDTH 13 0
BBX 9 21 2 0
BITMAP
3A00
7F00
4E00
0000
C180
C180
E180
E180
E180
F180
D180
D980
C980
CD80
C580
C780
C380
C380
C380
C180
C180
ENDCHAR
STARTCHAR Ograve
ENCODING 210
SWIDTH 549 0
DWIDTH 13 0
BBX 11 21 1 0
BITMAP
3800
1C00
0600
0000
1F00
3F80
71C0
60C0
C0E0
C060
C060
C060
C060
C060
C060
C060
E0E0
60C0
71C0
3F80
1F00
ENDCHAR
STARTCHAR Oacute
ENCODING 211
SWIDTH 549 0
DWIDTH 13 0
BBX 11 21 1 0
BITMAP
0380
0300
0600
0800
1F00
3F80
71C0
60C0
C0E0
C060
C060
C060
C060
C060
C060
C060
E0E0
60C0
71C0
3F80
1F00
ENDCHAR
STARTCHAR Ocircumflex
ENCODING 212
SWIDTH 549 0
DWIDTH 13 0
BBX 11 21 1 0
BITMAP
0C00
1E00
3300
0000
1F00
3F80
71C0
60C0
C0E0
C060
C060
C060
C060
C060
C060
C060
E0E0
60C0
71C0
3F80
1F00
ENDCHAR
STARTCHAR Otilde
ENCODING 213
SWIDTH 549 0
DWIDTH 13 0
BBX 11 21 1 0
BITMAP
1D00
3F80
2700
0000
1F00
3F80
71C0
60C0
C0E0
C060
C060
C060
C060
C060
C060
C060
E0E0
60C0
71C0
3F80
1F00
ENDCHAR
STARTCHAR Odieresis
ENCODING 214
SWIDTH 549 0
DWIDTH 13 0
BBX 11 20 1 0
BITMAP
3300
3300
0000
1F00
3F80
71C0
60C0
C0E0
C060
C060
C060
C060
C060
C060
C060
E0E0
60C0
71C0
3F80
1F00
ENDCHAR
STARTCHAR multiply
ENCODING 215
SWIDTH 415 0
DWIDTH 10 0
BBX 7 8 1 4
BITMAP
44
C6
6C
38
38
6C
C6
44
ENDCHAR
STARTCHAR Oslash
ENCODING 216
SWIDTH 549 0
DWIDTH 13 0
BBX 11 17 1 0
BITMAP
1F60
3FC0
71C0
60C0
C1E0
C160
C260
C660
C460
CC60
C860
D860
F0E0
60C0
71C0
7F80
DF00
ENDCHAR
STARTCHAR Ugrave
ENCODING 217
SWIDTH 521 0
DWIDTH 13 0
BBX 9 21 2 0
BITMAP
7000
3800
1800
0400
C180
C180
C180
C180
C180
C180
C180
C180
C180
C180
C180
C180
C180
C180
E380
7F00
3E00
ENDCHAR
STARTCHAR Uacute
ENCODING 218
SWIDTH 521 0
DWIDTH 13 0
BBX 9 21 2 0
BITMAP
0700
0C00
1800
0000
C180
C180
C180
C180
C180
C180
C180
C180
C180
C180
C180
C180
C180
C180
E380
7F00
3E00
ENDCHAR
STARTCHAR Ucircumflex
ENCODING 219
SWIDTH 521 0
DWIDTH 13 0
BBX 9 21 2 0
BITMAP
0C00
1E00
3300
0000
C180
C180
C180
C180
C180
C180
C180
C180
C180
C180
C180
C180
C180
C180
E380
7F00
3E00
ENDCHAR
STARTCHAR Udieresis
ENCODING 220
SWIDTH 521 0
DWIDTH 13 0
BBX 9 20 2 0
BITMAP
3600
3600
0000
C180
C180
C180
C180
C180
C180
C180
C180
C180
C180
C180
C180
C180
C180
E380
7F00
3E00
ENDCHAR
STARTCHAR Yacute
ENCODING 221
SWIDTH 455 0
DWIDTH 11 0
BBX 10 21 0 0
BITMAP
0380
0700
0C00
0000
C0C0
C0C0
6180
6180
3100
3300
3300
1E00
1E00
0C00
0C00
0C00
0C00
0C00
0C00
0C00
0C00
ENDCHAR
STARTCHAR Thorn
ENCODING 222
SWIDTH 452 0
DWIDTH 11 0
BBX 8 17 2 0
BITMAP
C0
C0
FC
FE
C6
C3
C3
C3
C3
C3
C6
FE
F8
C0
C0
C0
C0
ENDCHAR
STARTCHAR germandbls
ENCODING 223
SWIDTH 488 0
DWIDTH 12 0
BBX 10 17 1 0
BITMAP
1E00
3F00
7300
6300
6300
E600
EC00
6C00
6C00
6700
6380
61C0
60C0
60C0
69C0
6F80
6F00
ENDCHAR
STARTCHAR agrave
ENCODING 224
SWIDTH 400 0
DWIDTH 10 0
BBX 8 18 1 0
BITMAP
60
30
30
10
00
00
7E
7F
03
03
03
3F
7F
E3
C3
C7
FF
7B
ENDCHAR
STARTCHAR aacute
ENCODING 225
SWIDTH 400 0
DWIDTH 10 0
BBX 8 18 1 0
BITMAP
0C
0C
18
10
00
00
7E
7F
03
03
03
3F
7F
E3
C3
C7
FF
7B
ENDCHAR
STARTCHAR acircumflex
ENCODING 226
SWIDTH 400 0
DWIDTH 10 0
BBX 8 17 1 0
BITMAP
18
38
2C
64
02
7E
7F
03
03
03
3F
7F
E3
C3
C7
FF
7B
ENDCHAR
STARTCHAR atilde
ENCODING 227
SWIDTH 400 0
DWIDTH 10 0
BBX 8 18 1 0
BITMAP
34
7C
9C
00
00
00
7E
7F
03
03
03
3F
7F
E3
C3
C7
FF
7B
ENDCHAR
STARTCHAR adieresis
ENCODING 228
SWIDTH 400 0
DWIDTH 10 0
BBX 8 17 1 0
BITMAP
22
66
22
00
00
7E
7F
03
03
03
3F
7F
E3
C3
C7
FF
7B
ENDCHAR
STARTCHAR aring
ENCODING 229
SWIDTH 400 0
DWIDTH 10 0
BBX 8 17 1 0
BITMAP
1C
34
24
1C
00
7E
7F
03
03
03
3F
7F
E3
C3
C7
FF
7B
ENDCHAR
STARTCHAR ae
ENCODING 230
SWIDTH 642 0
DWIDTH 15 0
BBX 14 12 0 0
BITMAP
3EF0
7FF8
038C
030C
03FC
3FFC
7F00
E300
C300
C780
FDFC
78F8
ENDCHAR
STARTCHAR ccedilla
ENCODING 231
SWIDTH 356 0
DWIDTH 9 0
BBX 7 17 1 -5
BITMAP
3E
7E
62
C0
C0
C0
C0
C0
C0
62
7E
3C
08
1C
0C
0C
18
ENDCHAR
STARTCHAR egrave
ENCODING 232
SWIDTH 413 0
DWIDTH 10 0
BBX 8 18 1 0
BITMAP
30
30
10
10
08
00
3C
7E
63
C3
FF
FF
C0
C0
C0
60
7F
3E
ENDCHAR
STARTCHAR eacute
ENCODING 233
SWIDTH 413 0
DWIDTH 10 0
BBX 8 18 1 0
BITMAP
06
04
0C
08
00
00
3C
7E
63
C3
FF
FF
C0
C0
C0
60
7F
3E
ENDCHAR
STARTCHAR ecircumflex
ENCODING 234
SWIDTH 413 0
DWIDTH 10 0
BBX 8 17 1 0
BITMAP
18
18
3C
66
00
3C
7E
63
C3
FF
FF
C0
C0
C0
60
7F
3E
ENDCHAR
STARTCHAR edieresis
ENCODING 235
SWIDTH 413 0
DWIDTH 10 0
BBX 8 17 1 0
BITMAP
66
66
66
00
00
3C
7E
63
C3
FF
FF
C0
C0
C0
60
7F
3E
ENDCHAR
STARTCHAR igrave
ENCODING 236
SWIDTH 217 0
DWIDTH 4 0
BBX 3 18 0 0
BITMAP
C0
C0
40
60
00
00
60
60
60
60
60
60
60
60
60
60
60
60
ENDCHAR
STARTCHAR iacute
ENCODING 237
SWIDTH 217 0
DWIDTH 4 0
BBX 3 18 1 0
BITMAP
60
60
40
40
80
00
C0
C0
C0
C0
C0
C0
C0
C0
C0
C0
C0
C0
ENDCHAR
STARTCHAR icircumflex
ENCODING 238
SWIDTH 217 0
DWIDTH 4 0
BBX 6 17 -1 0
BITMAP
10
28
6C
6C
80
30
30
30
30
30
30
30
30
30
30
30
30
ENDCHAR
STARTCHAR idieresis
ENCODING 239
SWIDTH 217 0
DWIDTH 4 0
BBX 6 17 -1 0
BITMAP
CC
CC
CC
00
00
30
30
30
30
30
30
30
30
30
30
30
30
ENDCHAR
STARTCHAR eth
ENCODING 240
SWIDTH 450 0
DWIDTH 11 0
BBX 9 17 1 0
BITMAP
1900
0E00
0E00
1300
0300
3D00
7F80
6380
C180
C180
C180
C180
C180
C380
6300
7F00
3C00
ENDCHAR
STARTCHAR ntilde
ENCODING 241
SWIDTH 439 0
DWIDTH 10 0
BBX 8 18 1 0
BITMAP
34
7E
4C
00
00
00
DE
FF
E3
C3
C3
C3
C3
C3
C3
C3
C3
C3
ENDCHAR
STARTCHAR ograve
ENCODING 242
SWIDTH 432 0
DWIDTH 10 0
BBX 8 18 1 0
BITMAP
70
30
10
10
00
00
3C
7E
E7
C3
C3
C3
C3
C3
C3
E7
7E
3C
ENDCHAR
STARTCHAR oacute
ENCODING 243
SWIDTH 432 0
DWIDTH 10 0
BBX 8 18 1 0
BITMAP
0C
18
18
10
00
00
3C
7E
E7
C3
C3
C3
C3
C3
C3
E7
7E
3C
ENDCHAR
STARTCHAR ocircumflex
ENCODING 244
SWIDTH 432 0
DWIDTH 10 0
BBX 8 17 1 0
BITMAP
18
1C
34
66
00
3C
7E
E7
C3
C3
C3
C3
C3
C3
E7
7E
3C
ENDCHAR
STARTCHAR otilde
ENCODING 245
SWIDTH 432 0
DWIDTH 10 0
BBX 8 18 1 0
BITMAP
34
7E
4C
00
00
00
3C
7E
E7
C3
C3
C3
C3
C3
C3
E7
7E
3C
ENDCHAR
STARTCHAR odieresis
ENCODING 246
SWIDTH 432 0
DWIDTH 10 0
BBX 8 17 1 0
BITMAP
66
66
66
00
00
3C
7E
E7
C3
C3
C3
C3
C3
C3
E7
7E
3C
ENDCHAR
STARTCHAR divide
ENCODING 247
SWIDTH 415 0
DWIDTH 10 0
BBX 8 12 1 2
BITMAP
18
18
18
00
00
FF
FF
00
00
18
18
18
ENDCHAR
STARTCHAR oslash
ENCODING 248
SWIDTH 436 0
DWIDTH 10 0
BBX 8 12 1 0
BITMAP
3F
7E
E6
C7
CB
CB
D3
D3
E3
66
7E
FC
ENDCHAR
STARTCHAR ugrave
ENCODING 249
SWIDTH 434 0
DWIDTH 10 0
BBX 8 18 1 0
BITMAP
60
30
30
10
00
00
C3
C3
C3
C3
C3
C3
C3
C3
C3
C7
FF
79
ENDCHAR
STARTCHAR uacute
ENCODING 250
SWIDTH 434 0
DWIDTH 10 0
BBX 8 18 1 0
BITMAP
06
0C
0C
08
00
00
C3
C3
C3
C3
C3
C3
C3
C3
C3
C7
FF
79
ENDCHAR
STARTCHAR ucircumflex
ENCODING 251
SWIDTH 434 0
DWIDTH 10 0
BBX 8 17 1 0
BITMAP
18
18
3C
66
00
C3
C3
C3
C3
C3
C3
C3
C3
C3
C7
FF
79
ENDCHAR
STARTCHAR udieresis
ENCODING 252
SWIDTH 434 0
DWIDTH 10 0
BBX 8 17 1 0
BITMAP
66
66
66
00
00
C3
C3
C3
C3
C3
C3
C3
C3
C3
C7
FF
79
ENDCHAR
STARTCHAR yacute
ENCODING 253
SWIDTH 376 0
DWIDTH 9 0
BBX 9 23 0 -5
BITMAP
0300
0600
0600
0400
0000
0000
E180
E380
6300
6300
7300
3700
3600
3E00
1E00
1E00
1C00
0C00
0C00
1800
1800
7800
7000
ENDCHAR
STARTCHAR thorn
ENCODING 254
SWIDTH 435 0
DWIDTH 10 0
BBX 8 22 1 -5
BITMAP
C0
C0
C0
C0
C0
DC
FE
E7
C3
C3
C3
C3
C3
C3
C6
FE
FC
C0
C0
C0
C0
C0
ENDCHAR
STARTCHAR ydieresis
ENCODING 255
SWIDTH 376 0
DWIDTH 9 0
BBX 9 22 0 -5
BITMAP
6600
6600
6600
0000
0000
E180
E380
6300
6300
7300
3700
3600
3E00
1E00
1E00
1C00
0C00
0C00
1800
1800
7800
7000
ENDCHAR
STARTCHAR Amacron
ENCODING 256
SWIDTH 473 0
DWIDTH 11 0
BBX 11 21 0 0
BITMAP
3F80
3F80
0000
0000
0400
0400
0E00
0A00
0A00
1B00
1B00
1100
3100
3180
3F80
3F80
60C0
60C0
60C0
C060
C060
ENDCHAR
STARTCHAR amacron
ENCODING 257
SWIDTH 400 0
DWIDTH 10 0
BBX 8 16 1 0
BITMAP
7E
7E
00
00
7E
7F
03
03
03
3F
7F
E3
C3
C7
FF
7B
ENDCHAR
STARTCHAR Abreve
ENCODING 258
SWIDTH 473 0
DWIDTH 11 0
BBX 11 22 0 0
BITMAP
2080
3180
1F00
0E00
0000
0400
0400
0E00
0A00
0A00
1B00
1B00
1100
3100
3180
3F80
3F80
60C0
60C0
60C0
C060
C060
ENDCHAR
STARTCHAR abreve
ENCODING 259
SWIDTH 400 0
DWIDTH 10 0
BBX 8 18 1 0
BITMAP
62
22
3E
1C
00
00
7E
7F
03
03
03
3F
7F
E3
C3
C7
FF
7B
ENDCHAR
STARTCHAR Aogonek
ENCODING 260
SWIDTH 473 0
DWIDTH 11 0
BBX 11 22 0 -5
BITMAP
0400
0400
0E00
0A00
0A00
1B00
1B00
1100
3100
3180
3F80
3F80
60C0
60C0
60C0
C060
C060
00C0
0180
0180
01E0
00E0
ENDCHAR
STARTCHAR aogonek
ENCODING 261
SWIDTH 400 0
DWIDTH 10 0
BBX 9 17 1 -5
BITMAP
7E00
7F00
0300
0300
0300
3F00
7F00
E300
C300
C700
FF00
7900
0200
0600
0600
0780
0380
ENDCHAR
STARTCHAR Cacute
ENCODING 262
SWIDTH 458 0
DWIDTH 11 0
BBX 9 21 1 0
BITMAP
0380
0700
0600
0800
0F80
3F80
7000
6000
E000
C000
C000
C000
C000
C000
C000
C000
E000
6000
7000
3F80
1F00
ENDCHAR
STARTCHAR cacute
ENCODING 263
SWIDTH 356 0
DWIDTH 9 0
BBX 7 18 1 0
BITMAP
06
04
0C
08
00
00
3E
7E
62
C0
C0
C0
C0
C0
C0
62
7E
3C
ENDCHAR
STARTCHAR Ccircumflex
ENCODING 264
SWIDTH 458 0
DWIDTH 11 0
BBX 9 21 1 0
BITMAP
0600
0F00
1980
0000
0F80
3F80
7000
6000
E000
C000
C000
C000
C000
C000
C000
C000
E000
6000
7000
3F80
1F00
ENDCHAR
STARTCHAR ccircumflex
ENCODING 265
SWIDTH 356 0
DWIDTH 9 0
BBX 7 17 1 0
BITMAP
10
38
2C
6C
02
3E
7E
62
C0
C0
C0
C0
C0
C0
62
7E
3C
ENDCHAR
STARTCHAR Ccaron
ENCODING 268
SWIDTH 458 0
DWIDTH 11 0
BBX 9 21 1 0
BITMAP
1980
0F00
0600
0000
0F80
3F80
7000
6000
E000
C000
C000
C000
C000
C000
C000
C000
E000
6000
7000
3F80
1F00
ENDCHAR
STARTCHAR ccaron
ENCODING 269
SWIDTH 356 0
DWIDTH 9 0
BBX 7 17 1 0
BITMAP
66
2C
38
18
00
3E
7E
62
C0
C0
C0
C0
C0
C0
62
7E
3C
ENDCHAR
STARTCHAR Dcaron
ENCODING 270
SWIDTH 525 0
DWIDTH 13 0
BBX 10 21 2 0
BITMAP
6600
2C00
1800
0000
FC00
FF00
C380
C180
C1C0
C0C0
C0C0
C0C0
C0C0
C0C0
C0C0
C0C0
C180
C180
C380
FF00
FC00
ENDCHAR
STARTCHAR dcaron
ENCODING 271
SWIDTH 433 0
DWIDTH 10 0
BBX 12 17 1 0
BITMAP
0330
0320
0360
0360
0340
3F00
7F00
6300
C300
C300
C300
C300
C300
C300
E700
7F00
3900
ENDCHAR
STARTCHAR Dcroat
ENCODING 272
SWIDTH 531 0
DWIDTH 13 0
BBX 12 17 0 0
BITMAP
3F00
3FC0
30E0
3060
3070
3030
3030
FE30
FE30
3030
3030
3030
3060
3060
30E0
3FC0
3F00
ENDCHAR
STARTCHAR dcroat
ENCODING 273
SWIDTH 434 0
DWIDTH 10 0
BBX 10 17 1 0
BITMAP
0300
0300
1FC0
1FC0
0300
3F00
7F00
6300
C300
C300
C300
C300
C300
C300
E700
7F00
3900
ENDCHAR
STARTCHAR Emacron
ENCODING 274
SWIDTH 429 0
DWIDTH 10 0
BBX 8 21 2 0
BITMAP
7E
7E
00
00
FF
FF
C0
C0
C0
C0
C0
FE
FE
C0
C0
C0
C0
C0
C0
FF
FF
ENDCHAR
STARTCHAR emacron
ENCODING 275
SWIDTH 413 0
DWIDTH 10 0
BBX 8 16 1 0
BITMAP
7E
7E
00
00
3C
7E
63
C3
FF
FF
C0
C0
C0
60
7F
3E
ENDCHAR
STARTCHAR Edotaccent
ENCODING 278
SWIDTH 429 0
DWIDTH 10 0
BBX 8 21 2 0
BITMAP
30
38
30
00
FF
FF
C0
C0
C0
C0
C0
FE
FE
C0
C0
C0
C0
C0
C0
FF
FF
ENDCHAR
STARTCHAR edotaccent
ENCODING 279
SWIDTH 413 0
DWIDTH 10 0
BBX 8 17 1 0
BITMAP
10
18
10
00
00
3C
7E
63
C3
FF
FF
C0
C0
C0
60
7F
3E
ENDCHAR
STARTCHAR Eogonek
ENCODING 280
SWIDTH 429 0
DWIDTH 10 0
BBX 8 22 2 -5
BITMAP
FF
FF
C0
C0
C0
C0
C0
FE
FE
C0
C0
C0
C0
C0
C0
FF
FF
06
0C
0C
0F
07
ENDCHAR
STARTCHAR eogonek
ENCODING 281
SWIDTH 409 0
DWIDTH 10 0
BBX 8 17 1 -5
BITMAP
3C
7E
63
C3
FF
FF
C0
C0
C0
60
7F
3E
04
0C
0C
0F
07
ENDCHAR
STARTCHAR Ecaron
ENCODING 282
SWIDTH 429 0
DWIDTH 10 0
BBX 8 21 2 0
BITMAP
66
2C
18
00
FF
FF
C0
C0
C0
C0
C0
FE
FE
C0
C0
C0
C0
C0
C0
FF
FF
ENDCHAR
STARTCHAR ecaron
ENCODING 283
SWIDTH 413 0
DWIDTH 10 0
BBX 8 17 1 0
BITMAP
66
3C
38
18
00
3C
7E
63
C3
FF
FF
C0
C0
C0
60
7F
3E
ENDCHAR
STARTCHAR Gcircumflex
ENCODING 284
SWIDTH 492 0
DWIDTH 12 0
BBX 10 21 1 0
BITMAP
0700
0D00
1980
0000
0FC0
3FC0
3800
6000
6000
C000
C000
C000
C000
C7C0
C3C0
C0C0
E0C0
60C0
70C0
3FC0
0F80
ENDCHAR
STARTCHAR gcircumflex
ENCODING 285
SWIDTH 432 0
DWIDTH 10 0
BBX 8 22 1 -5
BITMAP
18
1C
34
66
00
3E
7F
63
C3
C3
C3
C3
C3
C3
E7
7F
3B
03
03
07
7E
7C
ENDCHAR
STARTCHAR Gbreve
ENCODING 286
SWIDTH 492 0
DWIDTH 12 0
BBX 10 22 1 0
BITMAP
2080
3180
1F00
0E00
0000
0FC0
3FC0
3800
6000
6000
C000
C000
C000
C000
C7C0
C3C0
C0C0
E0C0
60C0
70C0
3FC0
0F80
ENDCHAR
STARTCHAR gbreve
ENCODING 287
SWIDTH 432 0
DWIDTH 10 0
BBX 8 23 1 -5
BITMAP
42
66
7C
38
00
00
3E
7F
63
C3
C3
C3
C3
C3
C3
E7
7F
3B
03
03
07
7E
7C
ENDCHAR
STARTCHAR Gcommaaccent
ENCODING 290
SWIDTH 492 0
DWIDTH 12 0
BBX 10 22 1 -5
BITMAP
0FC0
3FC0
3800
6000
6000
C000
C000
C000
C000
C7C0
C3C0
C0C0
E0C0
60C0
70C0
3FC0
1F80
0000
0600
0600
0200
0400
ENDCHAR
STARTCHAR gcommaaccent
ENCODING 291
SWIDTH 432 0
DWIDTH 10 0
BBX 8 22 1 -5
BITMAP
08
10
18
18
00
3E
7F
63
C3
C3
C3
C3
C3
C3
E7
7F
3B
03
03
07
7E
7C
ENDCHAR
STARTCHAR Hcircumflex
ENCODING 292
SWIDTH 536 0
DWIDTH 13 0
BBX 9 21 2 0
BITMAP
0C00
1E00
3300
0000
C180
C180
C180
C180
C180
C180
C180
FF80
FF80
C180
C180
C180
C180
C180
C180
C180
C180
ENDCHAR
STARTCHAR hcircumflex
ENCODING 293
SWIDTH 440 0
DWIDTH 10 0
BBX 10 21 -1 0
BITMAP
3000
7800
CC00
0000
3000
3000
3000
3000
3000
3780
3FC0
39C0
30C0
30C0
30C0
30C0
30C0
30C0
30C0
30C0
30C0
ENDCHAR
STARTCHAR Hbar
ENCODING 294
SWIDTH 549 0
DWIDTH 13 0
BBX 13 17 0 0
BITMAP
3060
3060
3060
FFF8
FFF8
3060
3060
3FE0
3FE0
3060
3060
3060
3060
3060
3060
3060
3060
ENDCHAR
STARTCHAR hbar
ENCODING 295
SWIDTH 441 0
DWIDTH 10 0
BBX 10 17 -1 0
BITMAP
3000
3000
FE00
FE00
3000
3780
3FC0
39C0
30C0
30C0
30C0
30C0
30C0
30C0
30C0
30C0
30C0
ENDCHAR
STARTCHAR Imacron
ENCODING 298
SWIDTH 233 0
DWIDTH 6 0
BBX 6 21 0 0
BITMAP
FC
FC
00
00
30
30
30
30
30
30
30
30
30
30
30
30
30
30
30
30
30
ENDCHAR
STARTCHAR imacron
ENCODING 299
SWIDTH 217 0
DWIDTH 4 0
BBX 6 16 -1 0
BITMAP
FC
FC
00
00
30
30
30
30
30
30
30
30
30
30
30
30
ENDCHAR
STARTCHAR Iogonek
ENCODING 302
SWIDTH 234 0
DWIDTH 6 0
BBX 4 22 1 -5
BITMAP
60
60
60
60
60
60
60
60
60
60
60
60
60
60
60
60
60
40
C0
C0
F0
70
ENDCHAR
STARTCHAR iogonek
ENCODING 303
SWIDTH 217 0
DWIDTH 4 0
BBX 4 22 0 -5
BITMAP
60
60
60
00
00
60
60
60
60
60
60
60
60
60
60
60
60
40
C0
C0
F0
70
ENDCHAR
STARTCHAR Idotaccent
ENCODING 304
SWIDTH 233 0
DWIDTH 6 0
BBX 3 21 2 0
BITMAP
C0
E0
C0
00
C0
C0
C0
C0
C0
C0
C0
C0
C0
C0
C0
C0
C0
C0
C0
C0
C0
ENDCHAR
STARTCHAR dotlessi
ENCODING 305
SWIDTH 217 0
DWIDTH 4 0
BBX 2 12 1 0
BITMAP
C0
C0
C0
C0
C0
C0
C0
C0
C0
C0
C0
C0
ENDCHAR
STARTCHAR Jcircumflex
ENCODING 308
SWIDTH 241 0
DWIDTH 6 0
BBX 6 21 0 0
BITMAP
30
58
CC
00
30
30
30
30
30
30
30
30
30
30
30
30
30
30
30
F0
E0
ENDCHAR
STARTCHAR jcircumflex
ENCODING 309
SWIDTH 215 0
DWIDTH 5 0
BBX 6 22 0 -5
BITMAP
20
70
58
D8
04
30
30
30
30
30
30
30
30
30
30
30
30
30
30
70
E0
E0
ENDCHAR
STARTCHAR Kcommaaccent
ENCODING 310
SWIDTH 493 0
DWIDTH 12 0
BBX 9 22 2 -5
BITMAP
C180
C300
C300
C600
CC00
CC00
D800
D800
F000
F800
D800
CC00
CE00
C600
C700
C300
C180
0000
1800
1800
0800
1000
ENDCHAR
STARTCHAR kcommaaccent
ENCODING 311
SWIDTH 388 0
DWIDTH 9 0
BBX 8 22 1 -5
BITMAP
C0
C0
C0
C0
C0
C3
C6
C6
CC
C8
F0
F8
D8
CC
C6
C6
C3
00
18
18
08
10
ENDCHAR
STARTCHAR Lacute
ENCODING 313
SWIDTH 415 0
DWIDTH 10 0
BBX 9 21 1 0
BITMAP
3800
3000
6000
8000
6000
6000
6000
6000
6000
6000
6000
6000
6000
6000
6000
6000
6000
6000
6000
7F80
7F80
ENDCHAR
STARTCHAR lacute
ENCODING 314
SWIDTH 233 0
DWIDTH 6 0
BBX 5 21 1 0
BITMAP
38
70
60
80
C0
C0
C0
C0
C0
C0
C0
C0
C0
C0
C0
C0
C0
C0
C0
F0
70
ENDCHAR
STARTCHAR Lcommaaccent
ENCODING 315
SWIDTH 415 0
DWIDTH 10 0
BBX 8 22 2 -5
BITMAP
C0
C0
C0
C0
C0
C0
C0
C0
C0
C0
C0
C0
C0
C0
C0
FF
FF
00
30
30
10
20
ENDCHAR
STARTCHAR lcommaaccent
ENCODING 316
SWIDTH 233 0
DWIDTH 6 0
BBX 4 22 1 -5
BITMAP
C0
C0
C0
C0
C0
C0
C0
C0
C0
C0
C0
C0
C0
C0
C0
F0
70
00
40
60
20
40
ENDCHAR
STARTCHAR Lcaron
ENCODING 317
SWIDTH 415 0
DWIDTH 10 0
BBX 8 17 2 0
BITMAP
CC
CC
CC
C8
D0
C0
C0
C0
C0
C0
C0
C0
C0
C0
C0
FF
FF
ENDCHAR
STARTCHAR lcaron
ENCODING 318
SWIDTH 233 0
DWIDTH 6 0
BBX 5 17 1 0
BITMAP
D8
D8
D0
F0
E0
C0
C0
C0
C0
C0
C0
C0
C0
C0
C0
F0
70
ENDCHAR
STARTCHAR Lslash
ENCODING 321
SWIDTH 418 0
DWIDTH 10 0
BBX 9 17 1 0
BITMAP
6000
6000
6000
6000
6000
6800
6800
7800
7000
E000
E000
E000
6000
6000
6000
7F80
7F80
ENDCHAR
STARTCHAR lslash
ENCODING 322
SWIDTH 234 0
DWIDTH 6 0
BBX 5 17 0 0
BITMAP
60
60
60
60
60
68
68
78
70
E0
E0
E0
60
60
60
78
38
ENDCHAR
STARTCHAR Nacute
ENCODING 323
SWIDTH 538 0
DWIDTH 13 0
BBX 9 21 2 0
BITMAP
0700
0E00
0800
1000
C180
C180
E180
E180
E180
F180
D180
D980
C980
CD80
C580
C780
C380
C380
C380
C180
C180
ENDCHAR
STARTCHAR nacute
ENCODING 324
SWIDTH 439 0
DWIDTH 10 0
BBX 8 18 1 0
BITMAP
06
06
04
0C
00
00
DE
FF
E3
C3
C3
C3
C3
C3
C3
C3
C3
C3
ENDCHAR
STARTCHAR Ncommaaccent
ENCODING 325
SWIDTH 538 0
DWIDTH 13 0
BBX 9 22 2 -5
BITMAP
C180
C180
E180
E180
E180
F180
D180
D980
C980
CD80
C580
C780
C380
C380
C380
C180
C180
0000
0C00
0C00
0400
0800
ENDCHAR
STARTCHAR ncommaaccent
ENCODING 326
SWIDTH 439 0
DWIDTH 10 0
BBX 8 17 1 -5
BITMAP
DE
FF
E3
C3
C3
C3
C3
C3
C3
C3
C3
C3
00
10
18
18
10
ENDCHAR
STARTCHAR Ncaron
ENCODING 327
SWIDTH 538 0
DWIDTH 13 0
BBX 9 21 2 0
BITMAP
3300
1E00
0C00
0000
C180
C180
E180
E180
E180
F180
D180
D980
C980
CD80
C580
C780
C380
C380
C380
C180
C180
ENDCHAR
STARTCHAR ncaron
ENCODING 328
SWIDTH 439 0
DWIDTH 10 0
BBX 8 17 1 0
BITMAP
66
34
1C
18
00
DE
FF
E3
C3
C3
C3
C3
C3
C3
C3
C3
C3
ENDCHAR
STARTCHAR Omacron
ENCODING 332
SWIDTH 549 0
DWIDTH 13 0
BBX 11 21 1 0
BITMAP
1F80
1F80
0000
0000
1F00
3F80
71C0
60C0
C0E0
C060
C060
C060
C060
C060
C060
C060
E0E0
60C0
71C0
3F80
1F00
ENDCHAR
STARTCHAR omacron
ENCODING 333
SWIDTH 432 0
DWIDTH 10 0
BBX 8 16 1 0
BITMAP
7E
7E
00
00
3C
7E
E7
C3
C3
C3
C3
C3
C3
E7
7E
3C
ENDCHAR
STARTCHAR Ohungarumlaut
ENCODING 336
SWIDTH 549 0
DWIDTH 13 0
BBX 11 21 1 0
BITMAP
0CC0
0980
1B00
0000
1F00
3F80
71C0
60C0
C0E0
C060
C060
C060
C060
C060
C060
C060
E0E0
60C0
71C0
3F80
1F00
ENDCHAR
STARTCHAR ohungarumlaut
ENCODING 337
SWIDTH 432 0
DWIDTH 10 0
BBX 8 17 1 0
BITMAP
1B
36
24
00
00
3C
7E
E7
C3
C3
C3
C3
C3
C3
E7
7E
3C
ENDCHAR
STARTCHAR OE
ENCODING 338
SWIDTH 748 0
DWIDTH 18 0
BBX 16 17 1 0
BITMAP
1FFF
3FFF
70C0
60C0
E0C0
C0C0
C0C0
C0FE
C0FE
C0C0
C0C0
C0C0
E0C0
60C0
70C0
3FFF
1FFF
ENDCHAR
STARTCHAR oe
ENCODING 339
SWIDTH 692 0
DWIDTH 16 0
BBX 14 12 1 0
BITMAP
3CF0
7FF8
678C
C30C
C3FC
C3FC
C300
C300
C380
E784
7FFC
3CF8
ENDCHAR
STARTCHAR Racute
ENCODING 340
SWIDTH 480 0
DWIDTH 12 0
BBX 9 21 2 0
BITMAP
1C00
1800
3000
4000
FC00
FE00
C700
C300
C300
C300
C300
C700
FE00
FC00
CC00
CC00
C600
C600
C300
C300
C180
ENDCHAR
STARTCHAR racute
ENCODING 341
SWIDTH 274 0
DWIDTH 7 0
BBX 5 18 1 0
BITMAP
18
18
10
30
00
00
D8
F8
E0
C0
C0
C0
C0
C0
C0
C0
C0
C0
ENDCHAR
STARTCHAR Rcommaaccent
ENCODING 342
SWIDTH 480 0
DWIDTH 12 0
BBX 9 22 2 -5
BITMAP
FC00
FE00
C700
C300
C300
C300
C300
C700
FE00
FC00
CC00
CC00
C600
C600
C300
C300
C180
0000
1800
1800
0800
1000
ENDCHAR
STARTCHAR rcommaaccent
ENCODING 343
SWIDTH 274 0
DWIDTH 7 0
BBX 5 17 1 -5
BITMAP
D8
F8
E0
C0
C0
C0
C0
C0
C0
C0
C0
C0
00
C0
C0
40
80
ENDCHAR
STARTCHAR Rcaron
ENCODING 344
SWIDTH 480 0
DWIDTH 12 0
BBX 9 21 2 0
BITMAP
CC00
6800
3000
0000
FC00
FE00
C700
C300
C300
C300
C300
C700
FE00
FC00
CC00
CC00
C600
C600
C300
C300
C180
ENDCHAR
STARTCHAR rcaron
ENCODING 345
SWIDTH 274 0
DWIDTH 7 0
BBX 7 17 0 0
BITMAP
EE
6C
28
10
00
6C
7C
70
60
60
60
60
60
60
60
60
60
ENDCHAR
STARTCHAR Sacute
ENCODING 346
SWIDTH 428 0
DWIDTH 10 0
BBX 8 21 1 0
BITMAP
07
0E
18
00
3E
7F
E0
C0
C0
E0
70
38
1C
0E
07
03
03
03
07
FE
7C
ENDCHAR
STARTCHAR sacute
ENCODING 347
SWIDTH 338 0
DWIDTH 8 0
BBX 6 18 1 0
BITMAP
0C
08
18
10
00
00
7C
FC
C0
C0
E0
70
38
1C
0C
0C
FC
F8
ENDCHAR
STARTCHAR Scircumflex
ENCODING 348
SWIDTH 428 0
DWIDTH 10 0
BBX 8 21 1 0
BITMAP
0C
1E
33
00
3E
7F
E0
C0
C0
E0
70
38
1C
0E
07
03
03
03
07
FE
7C
ENDCHAR
STARTCHAR scircumflex
ENCODING 349
SWIDTH 338 0
DWIDTH 8 0
BBX 6 17 1 0
BITMAP
30
30
78
CC
00
7C
FC
C0
C0
E0
70
38
1C
0C
0C
FC
F8
ENDCHAR
STARTCHAR Scedilla
ENCODING 350
SWIDTH 428 0
DWIDTH 10 0
BBX 8 22 1 -5
BITMAP
3E
7F
E0
C0
C0
E0
70
38
1C
0E
07
03
03
03
07
FE
78
10
38
18
18
30
ENDCHAR
STARTCHAR scedilla
ENCODING 351
SWIDTH 338 0
DWIDTH 8 0
BBX 6 17 1 -5
BITMAP
7C
FC
C0
C0
E0
70
38
1C
0C
0C
FC
78
10
38
18
18
30
ENDCHAR
STARTCHAR Scaron
ENCODING 352
SWIDTH 428 0
DWIDTH 10 0
BBX 8 21 1 0
BITMAP
33
1E
0C
00
3E
7F
E0
C0
C0
E0
70
38
1C
0E
07
03
03
03
07
FE
7C
ENDCHAR
STARTCHAR scaron
ENCODING 353
SWIDTH 338 0
DWIDTH 8 0
BBX 6 17 1 0
BITMAP
CC
58
70
30
00
7C
FC
C0
C0
E0
70
38
1C
0C
0C
FC
F8
ENDCHAR
STARTCHAR Tcedilla
ENCODING 354
SWIDTH 447 0
DWIDTH 11 0
BBX 10 22 0 -5
BITMAP
FFC0
FFC0
0C00
0C00
0C00
0C00
0C00
0C00
0C00
0C00
0C00
0C00
0C00
0C00
0C00
0C00
0C00
0C00
0E00
0600
0600
1C00
ENDCHAR
STARTCHAR tcedilla
ENCODING 355
SWIDTH 275 0
DWIDTH 7 0
BBX 6 20 1 -5
BITMAP
60
60
60
FC
FC
60
60
60
60
60
60
60
60
7C
3C
08
1C
0C
0C
38
ENDCHAR
STARTCHAR Tcaron
ENCODING 356
SWIDTH 447 0
DWIDTH 11 0
BBX 10 21 0 0
BITMAP
3300
1E00
0C00
0000
FFC0
FFC0
0C00
0C00
0C00
0C00
0C00
0C00
0C00
0C00
0C00
0C00
0C00
0C00
0C00
0C00
0C00
ENDCHAR
STARTCHAR tcaron
ENCODING 357
SWIDTH 275 0
DWIDTH 7 0
BBX 6 17 1 0
BITMAP
0C
0C
68
68
70
FC
FC
60
60
60
60
60
60
60
60
7C
3C
ENDCHAR
STARTCHAR Umacron
ENCODING 362
SWIDTH 521 0
DWIDTH 13 0
BBX 9 21 2 0
BITMAP
7F00
7F00
0000
0000
C180
C180
C180
C180
C180
C180
C180
C180
C180
C180
C180
C180
C180
C180
E380
7F00
3E00
ENDCHAR
STARTCHAR umacron
ENCODING 363
SWIDTH 434 0
DWIDTH 10 0
BBX 8 16 1 0
BITMAP
7E
7E
00
00
C3
C3
C3
C3
C3
C3
C3
C3
C3
C7
FF
79
ENDCHAR
STARTCHAR Ubreve
ENCODING 364
SWIDTH 521 0
DWIDTH 13 0
BBX 9 22 2 0
BITMAP
2100
6300
3F00
1E00
0000
C180
C180
C180
C180
C180
C180
C180
C180
C180
C180
C180
C180
C180
C180
E380
7F00
3E00
ENDCHAR
STARTCHAR ubreve
ENCODING 365
SWIDTH 434 0
DWIDTH 10 0
BBX 8 18 1 0
BITMAP
42
64
7C
38
00
00
C3
C3
C3
C3
C3
C3
C3
C3
C3
C7
FF
79
ENDCHAR
STARTCHAR Uring
ENCODING 366
SWIDTH 521 0
DWIDTH 13 0
BBX 9 20 2 0
BITMAP
1C00
2400
2400
DD80
C180
C180
C180
C180
C180
C180
C180
C180
C180
C180
C180
C180
C180
E380
7F00
3E00
ENDCHAR
STARTCHAR uring
ENCODING 367
SWIDTH 434 0
DWIDTH 10 0
BBX 8 17 1 0
BITMAP
38
24
24
38
00
C3
C3
C3
C3
C3
C3
C3
C3
C3
C7
FF
79
ENDCHAR
STARTCHAR Uhungarumlaut
ENCODING 368
SWIDTH 521 0
DWIDTH 13 0
BBX 9 21 2 0
BITMAP
3B80
3200
2400
0000
C180
C180
C180
C180
C180
C180
C180
C180
C180
C180
C180
C180
C180
C180
E380
7F00
3E00
ENDCHAR
STARTCHAR uhungarumlaut
ENCODING 369
SWIDTH 434 0
DWIDTH 10 0
BBX 8 17 1 0
BITMAP
1B
36
24
00
00
C3
C3
C3
C3
C3
C3
C3
C3
C3
C7
FF
79
ENDCHAR
STARTCHAR Uogonek
ENCODING 370
SWIDTH 521 0
DWIDTH 13 0
BBX 9 22 2 -5
BITMAP
C180
C180
C180
C180
C180
C180
C180
C180
C180
C180
C180
C180
C180
C180
E380
7F00
3E00
0400
0C00
0C00
0F00
0700
ENDCHAR
STARTCHAR uogonek
ENCODING 371
SWIDTH 434 0
DWIDTH 10 0
BBX 9 17 1 -5
BITMAP
C300
C300
C300
C300
C300
C300
C300
C300
C300
C700
FF00
7900
0300
0600
0600
0780
0380
ENDCHAR
STARTCHAR Ydieresis
ENCODING 376
SWIDTH 455 0
DWIDTH 11 0
BBX 10 20 0 0
BITMAP
3300
3300
0000
C0C0
C0C0
6180
6180
3100
3300
3300
1E00
1E00
0C00
0C00
0C00
0C00
0C00
0C00
0C00
0C00
ENDCHAR
STARTCHAR Zacute
ENCODING 377
SWIDTH 439 0
DWIDTH 11 0
BBX 9 21 1 0
BITMAP
0700
0C00
1800
0000
FF80
FF80
0180
0300
0300
0600
0600
0C00
1C00
1800
3000
3000
6000
6000
C000
FF80
FF80
ENDCHAR
STARTCHAR zacute
ENCODING 378
SWIDTH 360 0
DWIDTH 9 0
BBX 7 18 1 0
BITMAP
0C
0C
18
10
00
00
FE
FE
06
0C
1C
18
30
70
60
C0
FE
FE
ENDCHAR
STARTCHAR Zdotaccent
ENCODING 379
SWIDTH 439 0
DWIDTH 11 0
BBX 9 21 1 0
BITMAP
1800
1C00
1800
0000
FF80
FF80
0180
0300
0300
0600
0600
0C00
1C00
1800
3000
3000
6000
6000
C000
FF80
FF80
ENDCHAR
STARTCHAR zdotaccent
ENCODING 380
SWIDTH 360 0
DWIDTH 9 0
BBX 7 17 1 0
BITMAP
18
18
18
00
00
FE
FE
06
0C
1C
18
30
70
60
C0
FE
FE
ENDCHAR
STARTCHAR Zcaron
ENCODING 381
SWIDTH 439 0
DWIDTH 11 0
BBX 9 21 1 0
BITMAP
3300
3600
1C00
0000
FF80
FF80
0180
0300
0300
0600
0600
0C00
1C00
1800
3000
3000
6000
6000
C000
FF80
FF80
ENDCHAR
STARTCHAR zcaron
ENCODING 382
SWIDTH 360 0
DWIDTH 9 0
BBX 7 17 1 0
BITMAP
CC
68
30
30
00
FE
FE
06
0C
1C
18
30
70
60
C0
FE
FE
ENDCHAR
STARTCHAR longs
ENCODING 383
SWIDTH 206 0
DWIDTH 5 0
BBX 6 17 1 0
BITMAP
3C
7C
60
60
60
E0
E0
60
60
60
60
60
60
60
60
60
60
ENDCHAR
STARTCHAR florin
ENCODING 402
SWIDTH 450 0
DWIDTH 11 0
BBX 11 22 -1 -5
BITMAP
01E0
03E0
0300
0600
0600
1FC0
1FC0
0600
0600
0600
0600
0C00
0C00
0C00
0C00
0C00
0C00
0C00
1800
1800
F800
F000
ENDCHAR
STARTCHAR uni01F4
ENCODING 500
SWIDTH 492 0
DWIDTH 12 0
BBX 10 21 1 0
BITMAP
01C0
0300
0600
0000
0FC0
3FC0
3800
6000
6000
C000
C000
C000
C000
C7C0
C3C0
C0C0
E0C0
60C0
70C0
3FC0
0F80
ENDCHAR
STARTCHAR uni01F5
ENCODING 501
SWIDTH 432 0
DWIDTH 10 0
BBX 8 23 1 -5
BITMAP
06
06
04
0C
00
00
3E
7F
63
C3
C3
C3
C3
C3
C3
E7
7F
3B
03
03
07
7E
7C
ENDCHAR
STARTCHAR Scommaaccent
ENCODING 536
SWIDTH 428 0
DWIDTH 10 0
BBX 8 22 1 -5
BITMAP
3E
7F
E0
C0
C0
E0
70
38
1C
0E
07
03
03
03
07
FE
7C
00
18
18
08
18
ENDCHAR
STARTCHAR scommaaccent
ENCODING 537
SWIDTH 338 0
DWIDTH 8 0
BBX 6 17 1 -5
BITMAP
7C
FC
C0
C0
E0
70
38
1C
0C
0C
FC
F8
00
30
30
10
30
ENDCHAR
STARTCHAR Tcommaaccent
ENCODING 538
SWIDTH 447 0
DWIDTH 11 0
BBX 10 22 0 -5
BITMAP
FFC0
FFC0
0C00
0C00
0C00
0C00
0C00
0C00
0C00
0C00
0C00
0C00
0C00
0C00
0C00
0C00
0C00
0000
0800
0C00
0400
0800
ENDCHAR
STARTCHAR tcommaaccent
ENCODING 539
SWIDTH 275 0
DWIDTH 7 0
BBX 6 20 1 -5
BITMAP
60
60
60
FC
FC
60
60
60
60
60
60
60
60
7C
3C
00
30
30
10
20
ENDCHAR
STARTCHAR uni0237
ENCODING 567
SWIDTH 215 0
DWIDTH 5 0
BBX 4 17 0 -5
BITMAP
30
30
30
30
30
30
30
30
30
30
30
30
30
30
70
E0
E0
ENDCHAR
STARTCHAR afii57929
ENCODING 700
SWIDTH 162 0
DWIDTH 4 0
BBX 2 5 1 12
BITMAP
C0
C0
40
C0
80
ENDCHAR
STARTCHAR circumflex
ENCODING 710
SWIDTH 343 0
DWIDTH 8 0
BBX 6 4 1 13
BITMAP
30
30
78
CC
ENDCHAR
STARTCHAR caron
ENCODING 711
SWIDTH 350 0
DWIDTH 8 0
BBX 6 4 1 13
BITMAP
CC
78
30
30
ENDCHAR
STARTCHAR breve
ENCODING 728
SWIDTH 371 0
DWIDTH 9 0
BBX 6 4 1 14
BITMAP
84
CC
78
30
ENDCHAR
STARTCHAR dotaccent
ENCODING 729
SWIDTH 220 0
DWIDTH 5 0
BBX 2 3 2 14
BITMAP
C0
C0
C0
ENDCHAR
STARTCHAR ring
ENCODING 730
SWIDTH 285 0
DWIDTH 7 0
BBX 4 4 1 13
BITMAP
60
90
90
60
ENDCHAR
STARTCHAR ogonek
ENCODING 731
SWIDTH 278 0
DWIDTH 7 0
BBX 4 5 1 -5
BITMAP
60
C0
C0
F0
70
ENDCHAR
STARTCHAR tilde
ENCODING 732
SWIDTH 362 0
DWIDTH 9 0
BBX 6 3 1 15
BITMAP
64
FC
98
ENDCHAR
STARTCHAR hungarumlaut
ENCODING 733
SWIDTH 346 0
DWIDTH 8 0
BBX 6 3 1 14
BITMAP
6C
D8
D0
ENDCHAR
STARTCHAR acutecomb
ENCODING 769
SWIDTH 2 0
DWIDTH 0 0
BBX 3 4 -8 14
BITMAP
60
60
40
C0
ENDCHAR
STARTCHAR uni0394
ENCODING 916
SWIDTH 459 0
DWIDTH 11 0
BBX 11 17 0 0
BITMAP
0400
0400
0E00
0A00
0A00
1B00
1B00
1300
3180
3180
3180
2080
60C0
60C0
4040
FFE0
FFE0
ENDCHAR
STARTCHAR uni03A9
ENCODING 937
SWIDTH 640 0
DWIDTH 15 0
BBX 13 17 1 0
BITMAP
0F80
3FE0
7070
6030
E038
C018
C018
C018
C018
C018
E030
6030
38E0
1DC0
0D80
FDF8
FDF8
ENDCHAR
STARTCHAR mu.dup1
ENCODING 956
SWIDTH 450 0
DWIDTH 11 0
BBX 8 17 1 -5
BITMAP
C3
C3
C3
C3
C3
C3
C3
C3
C3
E7
FF
F9
C0
C0
C0
C0
C0
ENDCHAR
STARTCHAR pi
ENCODING 960
SWIDTH 535 0
DWIDTH 13 0
BBX 12 12 0 0
BITMAP
7FF0
FFF0
98C0
18C0
18C0
18C0
18C0
18C0
18C0
18C0
18F0
18F0
ENDCHAR
STARTCHAR afii10023
ENCODING 1025
SWIDTH 429 0
DWIDTH 10 0
BBX 8 20 2 0
BITMAP
66
66
00
FF
FF
C0
C0
C0
C0
C0
FE
FE
C0
C0
C0
C0
C0
C0
FF
FF
ENDCHAR
STARTCHAR afii10051
ENCODING 1026
SWIDTH 588 0
DWIDTH 14 0
BBX 13 17 0 0
BITMAP
FFC0
FFC0
0C00
0C00
0C00
0C00
0FE0
0FF0
0C38
0C18
0C18
0C18
0C18
0C18
0C30
0DF0
0DE0
ENDCHAR
STARTCHAR afii10052
ENCODING 1027
SWIDTH 357 0
DWIDTH 9 0
BBX 7 21 2 0
BITMAP
0E
0C
18
20
FE
FE
C0
C0
C0
C0
C0
C0
C0
C0
C0
C0
C0
C0
C0
C0
C0
ENDCHAR
STARTCHAR afii10053
ENCODING 1028
SWIDTH 469 0
DWIDTH 11 0
BBX 9 17 1 0
BITMAP
0F80
3F80
7000
6000
E000
C000
C000
FF00
FF00
C000
C000
C000
E000
6000
7000
3F80
1F00
ENDCHAR
STARTCHAR afii10054
ENCODING 1029
SWIDTH 428 0
DWIDTH 10 0
BBX 8 17 1 0
BITMAP
3E
7F
E0
C0
C0
E0
70
38
1C
0E
07
03
03
03
07
FE
7C
ENDCHAR
STARTCHAR afii10055
ENCODING 1030
SWIDTH 233 0
DWIDTH 6 0
BBX 2 17 2 0
BITMAP
C0
C0
C0
C0
C0
C0
C0
C0
C0
C0
C0
C0
C0
C0
C0
C0
C0
ENDCHAR
STARTCHAR afii10056
ENCODING 1031
SWIDTH 236 0
DWIDTH 6 0
BBX 6 20 0 0
BITMAP
CC
CC
00
30
30
30
30
30
30
30
30
30
30
30
30
30
30
30
30
30
ENDCHAR
STARTCHAR afii10057
ENCODING 1032
SWIDTH 241 0
DWIDTH 6 0
BBX 4 17 0 0
BITMAP
30
30
30
30
30
30
30
30
30
30
30
30
30
30
30
F0
E0
ENDCHAR
STARTCHAR afii10058
ENCODING 1033
SWIDTH 747 0
DWIDTH 18 0
BBX 17 17 0 0
BITMAP
1FC000
1FC000
18C000
18C000
18C000
18C000
18FE00
18FF00
18C380
38C180
30C180
30C180
30C180
30C180
70C300
E0FF00
E0FC00
ENDCHAR
STARTCHAR afii10059
ENCODING 1034
SWIDTH 781 0
DWIDTH 19 0
BBX 16 17 2 0
BITMAP
C180
C180
C180
C180
C180
C180
C180
FFFC
FFFE
C187
C183
C183
C183
C183
C186
C1FE
C1F8
ENDCHAR
STARTCHAR afii10060
ENCODING 1035
SWIDTH 605 0
DWIDTH 15 0
BBX 13 17 0 0
BITMAP
FFC0
FFC0
0C00
0C00
0C00
0C00
0DE0
0FF0
0E38
0C18
0C18
0C18
0C18
0C18
0C18
0C18
0C18
ENDCHAR
STARTCHAR afii10061
ENCODING 1036
SWIDTH 493 0
DWIDTH 12 0
BBX 9 21 2 0
BITMAP
0E00
1C00
3000
0000
C180
C300
C300
C600
CC00
CC00
D800
D800
F000
F800
D800
CC00
CE00
C600
C700
C300
C180
ENDCHAR
STARTCHAR afii10062
ENCODING 1038
SWIDTH 448 0
DWIDTH 11 0
BBX 11 21 0 0
BITMAP
3180
3380
1F00
0000
C060
6060
60C0
30C0
30C0
3180
1980
1980
0B00
0F00
0F00
0600
0600
0600
0C00
3C00
3800
ENDCHAR
STARTCHAR afii10145
ENCODING 1039
SWIDTH 526 0
DWIDTH 13 0
BBX 10 21 1 -4
BITMAP
C0C0
C0C0
C0C0
C0C0
C0C0
C0C0
C0C0
C0C0
C0C0
C0C0
C0C0
C0C0
C0C0
C0C0
C0C0
FFC0
FFC0
0C00
0C00
0C00
0C00
ENDCHAR
STARTCHAR afii10017
ENCODING 1040
SWIDTH 473 0
DWIDTH 11 0
BBX 11 17 0 0
BITMAP
0400
0400
0E00
0A00
0A00
1B00
1B00
1100
3100
3180
3F80
3F80
60C0
60C0
60C0
C060
C060
ENDCHAR
STARTCHAR afii10018
ENCODING 1041
SWIDTH 445 0
DWIDTH 11 0
BBX 8 17 2 0
BITMAP
FF
FF
C0
C0
C0
C0
C0
FC
FE
C7
C3
C3
C3
C3
C6
FE
FC
ENDCHAR
STARTCHAR afii10019
ENCODING 1042
SWIDTH 471 0
DWIDTH 11 0
BBX 8 17 2 0
BITMAP
FC
FE
C7
C3
C3
C3
C6
F8
FE
C7
C3
C3
C3
C3
C6
FE
FC
ENDCHAR
STARTCHAR afii10020
ENCODING 1043
SWIDTH 357 0
DWIDTH 9 0
BBX 7 17 2 0
BITMAP
FE
FE
C0
C0
C0
C0
C0
C0
C0
C0
C0
C0
C0
C0
C0
C0
C0
ENDCHAR
STARTCHAR afii10021
ENCODING 1044
SWIDTH 542 0
DWIDTH 13 0
BBX 13 20 0 -3
BITMAP
1FE0
1FE0
1860
1860
1860
1860
1860
1860
1860
3060
3060
3060
3060
3060
6060
FFF8
FFF8
C018
C018
C018
ENDCHAR
STARTCHAR afii10022
ENCODING 1045
SWIDTH 429 0
DWIDTH 10 0
BBX 8 17 2 0
BITMAP
FF
FF
C0
C0
C0
C0
C0
FE
FE
C0
C0
C0
C0
C0
C0
FF
FF
ENDCHAR
STARTCHAR afii10024
ENCODING 1046
SWIDTH 654 0
DWIDTH 16 0
BBX 16 17 0 0
BITMAP
C183
6186
6186
318C
318C
1998
19B0
0DB0
07E0
0DB0
1998
1998
318C
318C
6186
6186
C183
ENDCHAR
STARTCHAR afii10025
ENCODING 1047
SWIDTH 434 0
DWIDTH 10 0
BBX 8 17 1 0
BITMAP
7C
FE
07
03
03
03
06
78
7E
07
03
03
03
03
06
FE
F8
ENDCHAR
STARTCHAR afii10026
ENCODING 1048
SWIDTH 544 0
DWIDTH 13 0
BBX 9 17 2 0
BITMAP
C180
C180
C380
C380
C380
C780
C580
CD80
C980
D980
D180
F180
F180
E180
E180
C180
C180
ENDCHAR
STARTCHAR afii10027
ENCODING 1049
SWIDTH 544 0
DWIDTH 13 0
BBX 9 21 2 0
BITMAP
6300
6600
3E00
0000
C180
C180
C380
C380
C380
C780
C580
CD80
C980
D980
D180
F180
F180
E180
E180
C180
C180
ENDCHAR
STARTCHAR afii10028
ENCODING 1050
SWIDTH 493 0
DWIDTH 12 0
BBX 9 17 2 0
BITMAP
C180
C300
C300
C600
CC00
CC00
D800
D800
F000
F800
D800
CC00
CE00
C600
C700
C300
C180
ENDCHAR
STARTCHAR afii10029
ENCODING 1051
SWIDTH 502 0
DWIDTH 12 0
BBX 10 17 0 0
BITMAP
1FC0
1FC0
18C0
18C0
18C0
18C0
18C0
18C0
18C0
38C0
30C0
30C0
30C0
30C0
70C0
E0C0
E0C0
ENDCHAR
STARTCHAR afii10030
ENCODING 1052
SWIDTH 637 0
DWIDTH 15 0
BBX 12 17 2 0
BITMAP
C030
C030
E070
E070
F0F0
F0B0
D9B0
D9B0
CD30
CF30
C630
C630
C630
C030
C030
C030
C030
ENDCHAR
STARTCHAR afii10031
ENCODING 1053
SWIDTH 536 0
DWIDTH 13 0
BBX 9 17 2 0
BITMAP
C180
C180
C180
C180
C180
C180
C180
FF80
FF80
C180
C180
C180
C180
C180
C180
C180
C180
ENDCHAR
STARTCHAR afii10032
ENCODING 1054
SWIDTH 549 0
DWIDTH 13 0
BBX 11 17 1 0
BITMAP
1F00
3F80
71C0
60C0
C0E0
C060
C060
C060
C060
C060
C060
C060
E0E0
60C0
71C0
3F80
1F00
ENDCHAR
STARTCHAR afii10033
ENCODING 1055
SWIDTH 526 0
DWIDTH 13 0
BBX 9 17 2 0
BITMAP
FF80
FF80
C180
C180
C180
C180
C180
C180
C180
C180
C180
C180
C180
C180
C180
C180
C180
ENDCHAR
STARTCHAR afii10034
ENCODING 1056
SWIDTH 451 0
DWIDTH 11 0
BBX 8 17 2 0
BITMAP
FC
FE
C6
C3
C3
C3
C3
C3
C6
FE
F8
C0
C0
C0
C0
C0
C0
ENDCHAR
STARTCHAR afii10035
ENCODING 1057
SWIDTH 458 0
DWIDTH 11 0
BBX 9 17 1 0
BITMAP
0F80
3F80
7000
6000
E000
C000
C000
C000
C000
C000
C000
C000
E000
6000
7000
3F80
1F00
ENDCHAR
STARTCHAR afii10036
ENCODING 1058
SWIDTH 447 0
DWIDTH 11 0
BBX 10 17 0 0
BITMAP
FFC0
FFC0
0C00
0C00
0C00
0C00
0C00
0C00
0C00
0C00
0C00
0C00
0C00
0C00
0C00
0C00
0C00
ENDCHAR
STARTCHAR afii10037
ENCODING 1059
SWIDTH 448 0
DWIDTH 11 0
BBX 11 17 0 0
BITMAP
C060
6060
60C0
30C0
30C0
3180
1980
1980
0B00
0F00
0F00
0600
0600
0600
0C00
3C00
3800
ENDCHAR
STARTCHAR afii10038
ENCODING 1060
SWIDTH 633 0
DWIDTH 15 0
BBX 14 17 1 0
BITMAP
0300
0300
1FF0
7FF8
6318
E31C
C30C
C30C
C30C
C30C
C30C
E31C
6318
7FF8
3FE0
0300
0300
ENDCHAR
STARTCHAR afii10039
ENCODING 1061
SWIDTH 500 0
DWIDTH 12 0
BBX 11 17 0 0
BITMAP
6060
3060
30C0
1880
1980
0900
0F00
0600
0600
0F00
0F00
1980
1980
30C0
30C0
6060
E060
ENDCHAR
STARTCHAR afii10040
ENCODING 1062
SWIDTH 551 0
DWIDTH 13 0
BBX 11 20 2 -3
BITMAP
C180
C180
C180
C180
C180
C180
C180
C180
C180
C180
C180
C180
C180
C180
C180
FFE0
FFE0
0060
0060
0060
ENDCHAR
STARTCHAR afii10041
ENCODING 1063
SWIDTH 487 0
DWIDTH 12 0
BBX 9 17 1 0
BITMAP
C180
C180
C180
C180
C180
C180
C180
C180
E380
7F80
3D80
0180
0180
0180
0180
0180
0180
ENDCHAR
STARTCHAR afii10042
ENCODING 1064
SWIDTH 699 0
DWIDTH 17 0
BBX 14 17 1 0
BITMAP
C30C
C30C
C30C
C30C
C30C
C30C
C30C
C30C
C30C
C30C
C30C
C30C
C30C
C30C
C30C
FFFC
FFFC
ENDCHAR
STARTCHAR afii10043
ENCODING 1065
SWIDTH 731 0
DWIDTH 18 0
BBX 16 20 1 -3
BITMAP
C30C
C30C
C30C
C30C
C30C
C30C
C30C
C30C
C30C
C30C
C30C
C30C
C30C
C30C
C30C
FFFF
FFFF
0003
0003
0003
ENDCHAR
STARTCHAR afii10044
ENCODING 1066
SWIDTH 513 0
DWIDTH 12 0
BBX 11 17 0 0
BITMAP
F800
F800
1800
1800
1800
1800
1F80
1FC0
18E0
1860
1860
1860
1860
1860
18C0
1FC0
1F00
ENDCHAR
STARTCHAR afii10045
ENCODING 1067
SWIDTH 622 0
DWIDTH 15 0
BBX 11 17 2 0
BITMAP
C060
C060
C060
C060
C060
C060
FC60
FE60
C760
C360
C360
C360
C360
C360
C660
FE60
F860
ENDCHAR
STARTCHAR afii10046
ENCODING 1068
SWIDTH 449 0
DWIDTH 11 0
BBX 8 17 2 0
BITMAP
C0
C0
C0
C0
C0
C0
FC
FE
C7
C3
C3
C3
C3
C3
C6
FE
F8
ENDCHAR
STARTCHAR afii10047
ENCODING 1069
SWIDTH 465 0
DWIDTH 11 0
BBX 9 17 1 0
BITMAP
7C00
FE00
0700
0300
0180
0180
0180
3F80
3F80
0180
0180
0180
0380
0300
0700
FE00
F800
ENDCHAR
STARTCHAR afii10048
ENCODING 1070
SWIDTH 719 0
DWIDTH 17 0
BBX 14 17 2 0
BITMAP
C1E0
C3F0
C738
C618
CC0C
CC0C
CC0C
FC0C
FC0C
CC0C
CC0C
CC0C
CC0C
C618
C738
C3F0
C1E0
ENDCHAR
STARTCHAR afii10049
ENCODING 1071
SWIDTH 461 0
DWIDTH 11 0
BBX 9 17 0 0
BITMAP
1F80
3F80
3180
6180
6180
6180
6180
6180
7180
3F80
1F80
1980
3180
3180
6180
6180
C180
ENDCHAR
STARTCHAR afii10065
ENCODING 1072
SWIDTH 400 0
DWIDTH 10 0
BBX 8 12 1 0
BITMAP
7E
7F
03
03
03
3F
7F
E3
C3
C7
FF
7B
ENDCHAR
STARTCHAR afii10066
ENCODING 1073
SWIDTH 432 0
DWIDTH 10 0
BBX 8 17 1 0
BITMAP
02
3E
7C
60
C0
DC
FE
E7
C3
C3
C3
C3
C3
C3
66
7E
3C
ENDCHAR
STARTCHAR afii10067
ENCODING 1074
SWIDTH 403 0
DWIDTH 10 0
BBX 8 12 1 0
BITMAP
FE
FF
C3
C3
C7
FC
FE
C3
C3
C3
FE
FC
ENDCHAR
STARTCHAR afii10068
ENCODING 1075
SWIDTH 296 0
DWIDTH 7 0
BBX 6 12 1 0
BITMAP
FC
FC
C0
C0
C0
C0
C0
C0
C0
C0
C0
C0
ENDCHAR
STARTCHAR afii10069
ENCODING 1076
SWIDTH 439 0
DWIDTH 11 0
BBX 11 15 0 -3
BITMAP
1F80
1F80
1980
1980
1980
1980
3980
3980
3180
3180
FFE0
FFE0
C060
C060
C060
ENDCHAR
STARTCHAR afii10070
ENCODING 1077
SWIDTH 413 0
DWIDTH 10 0
BBX 8 12 1 0
BITMAP
3C
7E
63
C3
FF
FF
C0
C0
C0
60
7F
3E
ENDCHAR
STARTCHAR afii10072
ENCODING 1078
SWIDTH 537 0
DWIDTH 13 0
BBX 12 12 0 0
BITMAP
C630
6660
6660
36C0
36C0
1F80
1F80
36C0
36C0
6660
6660
C630
ENDCHAR
STARTCHAR afii10073
ENCODING 1079
SWIDTH 351 0
DWIDTH 8 0
BBX 7 12 0 0
BITMAP
7C
FE
06
06
0C
38
3C
06
06
06
FC
F8
ENDCHAR
STARTCHAR afii10074
ENCODING 1080
SWIDTH 439 0
DWIDTH 10 0
BBX 8 12 1 0
BITMAP
C3
C3
C7
C7
CF
CB
DB
F3
E3
E3
C3
C3
ENDCHAR
STARTCHAR afii10075
ENCODING 1081
SWIDTH 439 0
DWIDTH 10 0
BBX 8 16 1 0
BITMAP
66
7E
3C
00
C3
C3
C7
C7
CF
CB
DB
F3
E3
E3
C3
C3
ENDCHAR
STARTCHAR afii10076
ENCODING 1082
SWIDTH 387 0
DWIDTH 9 0
BBX 8 12 1 0
BITMAP
C3
C6
C6
CC
D8
F0
F8
D8
CC
C6
C6
C3
ENDCHAR
STARTCHAR afii10077
ENCODING 1083
SWIDTH 407 0
DWIDTH 10 0
BBX 9 12 0 0
BITMAP
1F80
1F80
1980
1980
1980
1980
1980
3980
3180
3180
F180
E180
ENDCHAR
STARTCHAR afii10078
ENCODING 1084
SWIDTH 522 0
DWIDTH 12 0
BBX 10 12 1 0
BITMAP
C0C0
E1C0
E1C0
F3C0
F3C0
DEC0
DEC0
CCC0
CCC0
C0C0
C0C0
C0C0
ENDCHAR
STARTCHAR afii10079
ENCODING 1085
SWIDTH 434 0
DWIDTH 10 0
BBX 8 12 1 0
BITMAP
C3
C3
C3
C3
C3
FF
FF
C3
C3
C3
C3
C3
ENDCHAR
STARTCHAR afii10080
ENCODING 1086
SWIDTH 432 0
DWIDTH 10 0
BBX 8 12 1 0
BITMAP
3C
7E
E7
C3
C3
C3
C3
C3
C3
E7
7E
3C
ENDCHAR
STARTCHAR afii10081
ENCODING 1087
SWIDTH 430 0
DWIDTH 10 0
BBX 8 12 1 0
BITMAP
FF
FF
C3
C3
C3
C3
C3
C3
C3
C3
C3
C3
ENDCHAR
STARTCHAR afii10082
ENCODING 1088
SWIDTH 435 0
DWIDTH 10 0
BBX 8 17 1 -5
BITMAP
DC
FE
E7
C3
C3
C3
C3
C3
C3
C6
FE
FC
C0
C0
C0
C0
C0
ENDCHAR
STARTCHAR afii10083
ENCODING 1089
SWIDTH 356 0
DWIDTH 9 0
BBX 7 12 1 0
BITMAP
3E
7E
62
C0
C0
C0
C0
C0
C0
62
7E
3C
ENDCHAR
STARTCHAR afii10084
ENCODING 1090
SWIDTH 320 0
DWIDTH 8 0
BBX 8 12 0 0
BITMAP
FF
FF
18
18
18
18
18
18
18
18
18
18
ENDCHAR
STARTCHAR afii10085
ENCODING 1091
SWIDTH 376 0
DWIDTH 9 0
BBX 9 17 0 -5
BITMAP
E180
E380
6300
6300
7300
3700
3600
3E00
1E00
1E00
1C00
0C00
0C00
1800
1800
7800
7000
ENDCHAR
STARTCHAR afii10086
ENCODING 1092
SWIDTH 550 0
DWIDTH 14 0
BBX 12 22 1 -5
BITMAP
0600
0600
0600
0600
0600
3FC0
7FE0
E670
C630
C630
C630
C630
C630
C630
E660
7FE0
3FC0
0600
0600
0600
0600
0600
ENDCHAR
STARTCHAR afii10087
ENCODING 1093
SWIDTH 412 0
DWIDTH 10 0
BBX 10 12 0 0
BITMAP
6180
7180
3300
3B00
1E00
0C00
1E00
1E00
3300
3300
6180
E1C0
ENDCHAR
STARTCHAR afii10088
ENCODING 1094
SWIDTH 442 0
DWIDTH 11 0
BBX 9 15 1 -3
BITMAP
C300
C300
C300
C300
C300
C300
C300
C300
C300
C300
FF80
FF80
0180
0180
0180
ENDCHAR
STARTCHAR afii10089
ENCODING 1095
SWIDTH 396 0
DWIDTH 10 0
BBX 7 12 1 0
BITMAP
C6
C6
C6
C6
C6
C6
FE
7E
06
06
06
06
ENDCHAR
STARTCHAR afii10090
ENCODING 1096
SWIDTH 594 0
DWIDTH 14 0
BBX 12 12 1 0
BITMAP
C630
C630
C630
C630
C630
C630
C630
C630
C630
C630
FFF0
FFF0
ENDCHAR
STARTCHAR afii10091
ENCODING 1097
SWIDTH 609 0
DWIDTH 15 0
BBX 13 15 1 -3
BITMAP
C630
C630
C630
C630
C630
C630
C630
C630
C630
C630
FFF8
FFF8
0018
0018
0018
ENDCHAR
STARTCHAR afii10092
ENCODING 1098
SWIDTH 407 0
DWIDTH 10 0
BBX 9 12 0 0
BITMAP
F000
F000
3000
3000
3F00
3F80
3380
3180
3180
3180
3F00
3E00
ENDCHAR
STARTCHAR afii10093
ENCODING 1099
SWIDTH 538 0
DWIDTH 12 0
BBX 10 12 1 0
BITMAP
C0C0
C0C0
C0C0
C0C0
FCC0
FEC0
C6C0
C6C0
C6C0
C6C0
FCC0
F8C0
ENDCHAR
STARTCHAR afii10094
ENCODING 1100
SWIDTH 377 0
DWIDTH 9 0
BBX 7 12 1 0
BITMAP
C0
C0
C0
C0
FC
FE
CE
C6
C6
C6
FC
F8
ENDCHAR
STARTCHAR afii10095
ENCODING 1101
SWIDTH 372 0
DWIDTH 9 0
BBX 7 12 1 0
BITMAP
78
FC
0E
06
06
7E
7E
06
06
0C
FC
F8
ENDCHAR
STARTCHAR afii10096
ENCODING 1102
SWIDTH 581 0
DWIDTH 14 0
BBX 12 12 1 0
BITMAP
C3C0
C7E0
CE60
CC30
CC30
FC30
FC30
CC30
CC30
CE70
C7E0
C3C0
ENDCHAR
STARTCHAR afii10097
ENCODING 1103
SWIDTH 387 0
DWIDTH 9 0
BBX 8 12 0 0
BITMAP
1F
3F
73
63
63
73
3F
1F
33
73
63
C3
ENDCHAR
STARTCHAR afii10071
ENCODING 1105
SWIDTH 413 0
DWIDTH 10 0
BBX 8 17 1 0
BITMAP
44
66
66
00
00
3C
7E
63
C3
FF
FF
C0
C0
C0
60
7F
3E
ENDCHAR
STARTCHAR afii10099
ENCODING 1106
SWIDTH 443 0
DWIDTH 11 0
BBX 10 22 -1 -5
BITMAP
3000
3000
FE00
FE00
3000
3000
3780
3FC0
39C0
30C0
30C0
30C0
30C0
30C0
30C0
30C0
30C0
00C0
00C0
00C0
01C0
0180
ENDCHAR
STARTCHAR afii10100
ENCODING 1107
SWIDTH 296 0
DWIDTH 7 0
BBX 6 18 1 0
BITMAP
0C
08
18
10
00
00
FC
FC
C0
C0
C0
C0
C0
C0
C0
C0
C0
C0
ENDCHAR
STARTCHAR afii10101
ENCODING 1108
SWIDTH 376 0
DWIDTH 9 0
BBX 8 12 1 0
BITMAP
1F
7F
60
C0
C0
FC
FC
C0
C0
60
7F
3E
ENDCHAR
STARTCHAR afii10102
ENCODING 1109
SWIDTH 338 0
DWIDTH 8 0
BBX 6 12 1 0
BITMAP
7C
FC
C0
C0
E0
70
38
1C
0C
0C
FC
F8
ENDCHAR
STARTCHAR afii10103
ENCODING 1110
SWIDTH 217 0
DWIDTH 4 0
BBX 2 17 1 0
BITMAP
C0
C0
C0
00
00
C0
C0
C0
C0
C0
C0
C0
C0
C0
C0
C0
C0
ENDCHAR
STARTCHAR afii10104
ENCODING 1111
SWIDTH 231 0
DWIDTH 6 0
BBX 6 17 0 0
BITMAP
CC
CC
CC
00
00
30
30
30
30
30
30
30
30
30
30
30
30
ENDCHAR
STARTCHAR afii10105
ENCODING 1112
SWIDTH 215 0
DWIDTH 5 0
BBX 4 22 0 -5
BITMAP
30
30
30
00
00
30
30
30
30
30
30
30
30
30
30
30
30
30
30
70
E0
E0
ENDCHAR
STARTCHAR afii10106
ENCODING 1113
SWIDTH 594 0
DWIDTH 14 0
BBX 14 12 0 0
BITMAP
1F80
1F80
1980
1980
19F8
19FC
199C
398C
318C
318C
F1F8
E1F0
ENDCHAR
STARTCHAR afii10107
ENCODING 1114
SWIDTH 621 0
DWIDTH 15 0
BBX 13 12 1 0
BITMAP
C300
C300
C300
C300
C3F0
FFF8
FF18
C318
C318
C318
C3F0
C3E0
ENDCHAR
STARTCHAR afii10108
ENCODING 1115
SWIDTH 443 0
DWIDTH 11 0
BBX 10 17 -1 0
BITMAP
3000
3000
FE00
FE00
3000
3000
3780
3FC0
39C0
30C0
30C0
30C0
30C0
30C0
30C0
30C0
30C0
ENDCHAR
STARTCHAR afii10109
ENCODING 1116
SWIDTH 387 0
DWIDTH 9 0
BBX 8 18 1 0
BITMAP
0C
0C
08
18
00
00
C3
C6
C6
CC
D8
F0
F8
D8
CC
C6
C6
C3
ENDCHAR
STARTCHAR afii10110
ENCODING 1118
SWIDTH 376 0
DWIDTH 9 0
BBX 9 21 0 -5
BITMAP
6600
3E00
3C00
0000
E180
E380
6300
6300
7300
3700
3600
3E00
1E00
1E00
1C00
0C00
0C00
1800
1800
7800
7000
ENDCHAR
STARTCHAR afii10193
ENCODING 1119
SWIDTH 430 0
DWIDTH 10 0
BBX 8 16 1 -4
BITMAP
C3
C3
C3
C3
C3
C3
C3
C3
C3
C3
FF
FF
18
18
18
18
ENDCHAR
STARTCHAR afii10146
ENCODING 1122
SWIDTH 504 0
DWIDTH 12 0
BBX 12 17 0 0
BITMAP
1800
1800
FF80
FF80
1800
1800
1800
1FC0
1FE0
1870
1830
1830
1830
1830
1860
1FE0
1F80
ENDCHAR
STARTCHAR afii10194
ENCODING 1123
SWIDTH 407 0
DWIDTH 10 0
BBX 9 17 0 0
BITMAP
3000
3000
3000
3000
3000
FE00
FE00
3000
3000
3F00
3F80
3380
3180
3180
3380
3F00
3E00
ENDCHAR
STARTCHAR afii10147
ENCODING 1138
SWIDTH 549 0
DWIDTH 13 0
BBX 11 17 1 0
BITMAP
1F00
3F80
71C0
60C0
C060
C060
C060
FFE0
FFE0
C060
C060
C060
E0E0
60C0
71C0
3F80
1F00
ENDCHAR
STARTCHAR afii10195
ENCODING 1139
SWIDTH 432 0
DWIDTH 10 0
BBX 8 12 1 0
BITMAP
3C
7E
E6
C3
C3
FF
FF
C3
C3
66
7E
3C
ENDCHAR
STARTCHAR afii10148
ENCODING 1140
SWIDTH 487 0
DWIDTH 12 0
BBX 13 17 0 0
BITMAP
C078
C078
60C0
60C0
6080
2180
3180
3180
3100
1B00
1B00
1B00
0A00
0E00
0E00
0400
0400
ENDCHAR
STARTCHAR afii10196
ENCODING 1141
SWIDTH 410 0
DWIDTH 10 0
BBX 10 12 0 0
BITMAP
E0C0
61C0
6300
6300
3300
3600
3600
1600
1C00
1C00
0800
0800
ENDCHAR
STARTCHAR uni048A
ENCODING 1162
SWIDTH 558 0
DWIDTH 13 0
BBX 11 24 2 -3
BITMAP
6300
7300
3E00
0000
C180
C180
C380
C380
C380
C780
C580
CD80
C980
D980
D180
F180
F180
E180
E180
C1E0
C1E0
0040
0040
00C0
ENDCHAR
STARTCHAR uni048B
ENCODING 1163
SWIDTH 456 0
DWIDTH 11 0
BBX 10 19 1 -3
BITMAP
6600
6600
3C00
0000
C300
C300
C700
C700
CF00
CB00
DB00
F300
E300
E300
C3C0
C3C0
0080
0080
0180
ENDCHAR
STARTCHAR uni048C
ENCODING 1164
SWIDTH 504 0
DWIDTH 12 0
BBX 12 17 0 0
BITMAP
1800
1800
FF80
FF80
1800
1800
1800
1FC0
1FE0
1870
1830
1830
1830
1830
1860
1FE0
1F80
ENDCHAR
STARTCHAR uni048D
ENCODING 1165
SWIDTH 407 0
DWIDTH 10 0
BBX 9 17 0 0
BITMAP
3000
3000
3000
3000
3000
FE00
FE00
3000
3000
3F00
3F80
3380
3180
3180
3380
3F00
3E00
ENDCHAR
STARTCHAR uni048E
ENCODING 1166
SWIDTH 451 0
DWIDTH 11 0
BBX 8 17 2 0
BITMAP
FC
FE
C6
C3
C3
C3
D3
D3
CE
FC
FC
C6
C2
C0
C0
C0
C0
ENDCHAR
STARTCHAR uni048F
ENCODING 1167
SWIDTH 435 0
DWIDTH 10 0
BBX 8 17 1 -5
BITMAP
DC
FE
E7
C3
C3
C3
C3
C3
D7
CE
FC
FC
C2
C0
C0
C0
C0
ENDCHAR
STARTCHAR afii10050
ENCODING 1168
SWIDTH 357 0
DWIDTH 9 0
BBX 7 20 2 0
BITMAP
06
06
06
FE
FE
C0
C0
C0
C0
C0
C0
C0
C0
C0
C0
C0
C0
C0
C0
C0
ENDCHAR
STARTCHAR afii10098
ENCODING 1169
SWIDTH 296 0
DWIDTH 7 0
BBX 6 15 1 0
BITMAP
0C
0C
0C
FC
FC
C0
C0
C0
C0
C0
C0
C0
C0
C0
C0
ENDCHAR
STARTCHAR uni0492
ENCODING 1170
SWIDTH 390 0
DWIDTH 9 0
BBX 9 17 0 0
BITMAP
3F80
3F80
3000
3000
3000
3000
3000
3000
FF00
FF00
3000
3000
3000
3000
3000
3000
3000
ENDCHAR
STARTCHAR uni0493
ENCODING 1171
SWIDTH 306 0
DWIDTH 7 0
BBX 7 12 0 0
BITMAP
3E
3E
30
30
30
FE
FE
30
30
30
30
30
ENDCHAR
STARTCHAR uni0494
ENCODING 1172
SWIDTH 465 0
DWIDTH 11 0
BBX 8 20 2 -3
BITMAP
FE
FE
C0
C0
C0
C0
C0
C0
FC
FE
C7
C3
C3
C3
C3
C3
C3
06
3E
3C
ENDCHAR
STARTCHAR uni0495
ENCODING 1173
SWIDTH 430 0
DWIDTH 10 0
BBX 8 17 1 -5
BITMAP
FC
FC
C0
C0
C0
FC
FE
C7
C3
C3
C3
C3
03
03
06
3E
3C
ENDCHAR
STARTCHAR uni0496
ENCODING 1174
SWIDTH 678 0
DWIDTH 16 0
BBX 17 20 0 -3
BITMAP
C18300
618600
618600
318C00
318C00
199800
19B000
0DB000
07E000
0DB000
199800
199800
318C00
318C00
618600
618780
C18380
000180
000180
000180
ENDCHAR
STARTCHAR uni0497
ENCODING 1175
SWIDTH 567 0
DWIDTH 14 0
BBX 13 15 0 -3
BITMAP
C630
6660
6660
36C0
36C0
1F80
1F80
36C0
36C0
6660
6678
C638
0018
0018
0018
ENDCHAR
STARTCHAR uni0498
ENCODING 1176
SWIDTH 434 0
DWIDTH 10 0
BBX 8 21 1 -4
BITMAP
7C
FE
07
03
03
03
06
78
7E
07
03
03
03
03
06
FE
FC
30
30
30
30
ENDCHAR
STARTCHAR uni0499
ENCODING 1177
SWIDTH 351 0
DWIDTH 8 0
BBX 7 16 0 -4
BITMAP
7C
FE
06
06
0C
38
3C
06
06
06
FC
FC
30
30
30
30
ENDCHAR
STARTCHAR uni049A
ENCODING 1178
SWIDTH 505 0
DWIDTH 12 0
BBX 10 20 2 -3
BITMAP
C180
C300
C300
C600
C400
CC00
D800
D800
F000
D800
CC00
CC00
C600
C600
C300
C3C0
C1C0
00C0
00C0
00C0
ENDCHAR
STARTCHAR uni049B
ENCODING 1179
SWIDTH 410 0
DWIDTH 10 0
BBX 9 15 1 -3
BITMAP
C300
C600
C600
CC00
D800
F000
F800
DC00
CC00
C600
C780
C380
0180
0180
0180
ENDCHAR
STARTCHAR uni049C
ENCODING 1180
SWIDTH 558 0
DWIDTH 13 0
BBX 11 17 2 0
BITMAP
C060
C0C0
C0C0
C180
C180
D300
D300
D600
FC00
D600
D700
D300
C180
C180
C0C0
C0C0
C060
ENDCHAR
STARTCHAR uni049D
ENCODING 1181
SWIDTH 441 0
DWIDTH 11 0
BBX 9 12 1 0
BITMAP
C180
C300
D300
D600
D600
FC00
FC00
D600
D600
D300
C300
C180
ENDCHAR
STARTCHAR uni049E
ENCODING 1182
SWIDTH 539 0
DWIDTH 13 0
BBX 12 17 0 0
BITMAP
1830
1860
FE60
FEC0
1980
1980
1B00
1B00
1E00
1B00
1B00
1980
19C0
18C0
1860
1860
1830
ENDCHAR
STARTCHAR uni049F
ENCODING 1183
SWIDTH 388 0
DWIDTH 9 0
BBX 10 17 -1 0
BITMAP
3000
3000
FE00
FE00
3000
30C0
3180
3180
3300
3200
3C00
3E00
3600
3300
3180
3180
30C0
ENDCHAR
STARTCHAR uni04A0
ENCODING 1184
SWIDTH 558 0
DWIDTH 13 0
BBX 12 17 0 0
BITMAP
F830
F860
1860
18C0
1980
1980
1B00
1B00
1E00
1F00
1B00
1980
19C0
18C0
18E0
1860
1830
ENDCHAR
STARTCHAR uni04A1
ENCODING 1185
SWIDTH 416 0
DWIDTH 10 0
BBX 10 12 0 0
BITMAP
F0C0
F180
3180
3300
3600
3C00
3E00
3600
3300
3180
3180
30C0
ENDCHAR
STARTCHAR uni04A2
ENCODING 1186
SWIDTH 568 0
DWIDTH 14 0
BBX 11 20 2 -3
BITMAP
C180
C180
C180
C180
C180
C180
C180
FF80
FF80
C180
C180
C180
C180
C180
C180
C1E0
C1E0
0060
0060
0060
ENDCHAR
STARTCHAR uni04A3
ENCODING 1187
SWIDTH 444 0
DWIDTH 11 0
BBX 9 15 1 -3
BITMAP
C300
C300
C300
C300
C300
FF00
FF00
C300
C300
C300
C380
C380
0180
0180
0180
ENDCHAR
STARTCHAR uni04A4
ENCODING 1188
SWIDTH 690 0
DWIDTH 17 0
BBX 15 17 1 0
BITMAP
C0FE
C0FE
C0C0
C0C0
C0C0
C0C0
C0C0
FFC0
FFC0
C0C0
C0C0
C0C0
C0C0
C0C0
C0C0
C0C0
C0C0
ENDCHAR
STARTCHAR uni04A5
ENCODING 1189
SWIDTH 541 0
DWIDTH 13 0
BBX 12 12 1 0
BITMAP
C3F0
C3F0
C300
C300
C300
FF00
FF00
C300
C300
C300
C300
C300
ENDCHAR
STARTCHAR uni04A6
ENCODING 1190
SWIDTH 787 0
DWIDTH 19 0
BBX 16 20 2 -3
BITMAP
FF80
FF80
C180
C180
C180
C180
C180
C180
C1FC
C1FE
C187
C183
C183
C183
C183
C183
C183
0006
003E
003C
ENDCHAR
STARTCHAR uni04A7
ENCODING 1191
SWIDTH 668 0
DWIDTH 16 0
BBX 14 17 1 -5
BITMAP
FF00
FF00
C300
C300
C300
C3F0
C3F8
C31C
C30C
C30C
C30C
C30C
000C
000C
0018
00F8
00F0
ENDCHAR
STARTCHAR uni04A8
ENCODING 1192
SWIDTH 662 0
DWIDTH 16 0
BBX 14 17 1 0
BITMAP
0C00
3CF0
73F8
6318
E71C
C60C
C60C
C60C
C60C
C60C
C60C
C618
6318
7310
79B4
3FFC
0FF8
ENDCHAR
STARTCHAR uni04A9
ENCODING 1193
SWIDTH 540 0
DWIDTH 13 0
BBX 11 12 1 0
BITMAP
3380
77C0
6EE0
CC60
CC60
CC60
CC60
CC60
CCC0
66C0
7FE0
3FE0
ENDCHAR
STARTCHAR uni04AA
ENCODING 1194
SWIDTH 458 0
DWIDTH 11 0
BBX 9 21 1 -4
BITMAP
0F80
3F80
7000
6000
E000
C000
C000
C000
C000
C000
C000
C000
E000
6000
7000
3F80
0F80
0600
0600
0600
0600
ENDCHAR
STARTCHAR uni04AB
ENCODING 1195
SWIDTH 356 0
DWIDTH 9 0
BBX 7 16 1 -4
BITMAP
3E
7E
60
C0
C0
C0
C0
C0
C0
E0
7E
3E
18
18
18
18
ENDCHAR
STARTCHAR uni04AC
ENCODING 1196
SWIDTH 447 0
DWIDTH 11 0
BBX 10 20 0 -3
BITMAP
FFC0
FFC0
0C00
0C00
0C00
0C00
0C00
0C00
0C00
0C00
0C00
0C00
0C00
0C00
0C00
0F00
0F00
0300
0300
0300
ENDCHAR
STARTCHAR uni04AD
ENCODING 1197
SWIDTH 320 0
DWIDTH 8 0
BBX 8 15 0 -3
BITMAP
FF
FF
18
18
18
18
18
18
18
18
1C
1C
0C
0C
0C
ENDCHAR
STARTCHAR uni04AE
ENCODING 1198
SWIDTH 455 0
DWIDTH 11 0
BBX 10 17 0 0
BITMAP
C0C0
C0C0
6180
6180
3100
3300
3300
1E00
1E00
0C00
0C00
0C00
0C00
0C00
0C00
0C00
0C00
ENDCHAR
STARTCHAR uni04AF
ENCODING 1199
SWIDTH 391 0
DWIDTH 10 0
BBX 10 17 0 -5
BITMAP
C0C0
6180
6180
6180
3300
3300
3300
1A00
1E00
1E00
1E00
0C00
0C00
0C00
0C00
0C00
0C00
ENDCHAR
STARTCHAR uni04B0
ENCODING 1200
SWIDTH 455 0
DWIDTH 11 0
BBX 10 17 0 0
BITMAP
C0C0
C0C0
6180
6180
3100
3300
3300
1E00
1E00
0C00
7F80
7F80
0C00
0C00
0C00
0C00
0C00
ENDCHAR
STARTCHAR uni04B1
ENCODING 1201
SWIDTH 391 0
DWIDTH 10 0
BBX 10 17 0 -5
BITMAP
C0C0
6180
6180
6180
3300
3300
3300
1A00
1E00
1E00
0C00
0C00
3F00
3F00
0C00
0C00
0C00
ENDCHAR
STARTCHAR uni04B2
ENCODING 1202
SWIDTH 530 0
DWIDTH 13 0
BBX 12 20 0 -3
BITMAP
6060
3060
30C0
1880
1980
0900
0F00
0600
0600
0F00
0F00
1980
1980
30C0
30C0
6070
6070
8030
0030
0030
ENDCHAR
STARTCHAR uni04B3
ENCODING 1203
SWIDTH 426 0
DWIDTH 10 0
BBX 10 15 0 -3
BITMAP
6180
7180
3300
3B00
1E00
0C00
1E00
1E00
3300
3300
61C0
61C0
80C0
00C0
0040
ENDCHAR
STARTCHAR uni04B4
ENCODING 1204
SWIDTH 673 0
DWIDTH 16 0
BBX 15 20 1 -3
BITMAP
FF98
FF98
0C18
0C18
0C18
0C18
0C18
0C18
0C18
0C18
0C18
0C18
0C18
0C18
0C18
0FFE
0FFE
0006
0006
0006
ENDCHAR
STARTCHAR uni04B5
ENCODING 1205
SWIDTH 508 0
DWIDTH 12 0
BBX 12 15 0 -3
BITMAP
FF60
FF60
1860
1860
1860
1860
1860
1860
1860
1860
1FF0
1FF0
0030
0030
0030
ENDCHAR
STARTCHAR uni04B6
ENCODING 1206
SWIDTH 518 0
DWIDTH 12 0
BBX 11 20 1 -3
BITMAP
C180
C180
C180
C180
C180
C180
C180
C180
E380
7F80
3D80
0180
0180
0180
0180
01E0
01E0
0060
0060
0060
ENDCHAR
STARTCHAR uni04B7
ENCODING 1207
SWIDTH 414 0
DWIDTH 10 0
BBX 8 15 1 -3
BITMAP
C6
C6
C6
C6
C6
C6
FE
7E
06
06
07
07
03
03
03
ENDCHAR
STARTCHAR uni04B8
ENCODING 1208
SWIDTH 498 0
DWIDTH 12 0
BBX 9 17 1 0
BITMAP
C180
C180
C180
C180
C180
C180
C980
C980
EB80
7F80
3D80
0980
0980
0180
0180
0180
0180
ENDCHAR
STARTCHAR uni04B9
ENCODING 1209
SWIDTH 405 0
DWIDTH 9 0
BBX 7 12 1 0
BITMAP
C6
C6
C6
D6
D6
D6
FE
7E
16
16
06
06
ENDCHAR
STARTCHAR uni04BA
ENCODING 1210
SWIDTH 487 0
DWIDTH 12 0
BBX 8 17 2 0
BITMAP
C0
C0
C0
C0
C0
C0
DE
FE
E7
C3
C3
C3
C3
C3
C3
C3
C3
ENDCHAR
STARTCHAR uni04BB
ENCODING 1211
SWIDTH 440 0
DWIDTH 10 0
BBX 8 17 1 0
BITMAP
C0
C0
C0
C0
C0
DE
FF
E7
C3
C3
C3
C3
C3
C3
C3
C3
C3
ENDCHAR
STARTCHAR uni04BC
ENCODING 1212
SWIDTH 632 0
DWIDTH 15 0
BBX 14 17 0 0
BITMAP
01E0
03F8
0718
061C
0C0C
EC0C
CC0C
CC0C
FFFC
7FFC
0C00
0C00
0C00
0600
0708
03F8
01F0
ENDCHAR
STARTCHAR uni04BD
ENCODING 1213
SWIDTH 502 0
DWIDTH 12 0
BBX 11 12 0 0
BITMAP
0780
6FC0
DC60
D860
FFE0
7FE0
1800
1800
1800
0C00
0FE0
07C0
ENDCHAR
STARTCHAR uni04BE
ENCODING 1214
SWIDTH 632 0
DWIDTH 15 0
BBX 14 21 0 -4
BITMAP
01E0
03F8
0718
061C
0C0C
EC0C
CC0C
CC0C
FFFC
7FFC
0C00
0C00
0C00
0600
0708
03F8
01F0
0040
0040
0040
0040
ENDCHAR
STARTCHAR uni04BF
ENCODING 1215
SWIDTH 502 0
DWIDTH 12 0
BBX 11 16 0 -4
BITMAP
0780
6FC0
DC60
D860
FFE0
7FE0
1800
1800
1800
0C00
0FE0
07C0
0300
0300
0300
0300
ENDCHAR
STARTCHAR uni04C0
ENCODING 1216
SWIDTH 233 0
DWIDTH 6 0
BBX 2 17 2 0
BITMAP
C0
C0
C0
C0
C0
C0
C0
C0
C0
C0
C0
C0
C0
C0
C0
C0
C0
ENDCHAR
STARTCHAR uni04C3
ENCODING 1219
SWIDTH 484 0
DWIDTH 12 0
BBX 9 22 1 -5
BITMAP
C180
C300
C300
C600
C400
CC00
D800
D000
FE00
C700
C300
C180
C180
C180
C180
C180
C180
0180
0180
0380
0700
0600
ENDCHAR
STARTCHAR uni04C4
ENCODING 1220
SWIDTH 390 0
DWIDTH 9 0
BBX 8 17 1 -5
BITMAP
C3
C6
C6
CC
C8
F0
FC
CC
C6
C6
C6
C6
06
06
0E
1C
18
ENDCHAR
STARTCHAR uni04C5
ENCODING 1221
SWIDTH 509 0
DWIDTH 12 0
BBX 12 20 0 -3
BITMAP
1FC0
1FC0
18C0
18C0
18C0
18C0
18C0
18C0
18C0
38C0
30C0
30C0
30C0
30C0
70C0
E0F0
E0F0
0020
0020
0060
ENDCHAR
STARTCHAR uni04C6
ENCODING 1222
SWIDTH 423 0
DWIDTH 10 0
BBX 11 15 0 -3
BITMAP
1F80
1F80
1980
1980
1980
1980
1980
3980
3180
3180
F1E0
E1E0
0040
0040
00C0
ENDCHAR
STARTCHAR uni04C7
ENCODING 1223
SWIDTH 536 0
DWIDTH 13 0
BBX 9 22 2 -5
BITMAP
C180
C180
C180
C180
C180
C180
C180
FF80
FF80
C180
C180
C180
C180
C180
C180
C180
C180
0180
0180
0380
0700
0700
ENDCHAR
STARTCHAR uni04C8
ENCODING 1224
SWIDTH 434 0
DWIDTH 10 0
BBX 8 17 1 -5
BITMAP
C3
C3
C3
C3
C3
FF
FF
C3
C3
C3
C3
C3
03
03
03
07
06
ENDCHAR
STARTCHAR uni04C9
ENCODING 1225
SWIDTH 550 0
DWIDTH 13 0
BBX 11 20 2 -3
BITMAP
C180
C180
C180
C180
C180
C180
C180
FF80
FF80
C180
C180
C180
C180
C180
C180
C1E0
C1E0
0040
0040
00C0
ENDCHAR
STARTCHAR uni04CA
ENCODING 1226
SWIDTH 451 0
DWIDTH 11 0
BBX 10 15 1 -3
BITMAP
C300
C300
C300
C300
C300
FF00
FF00
C300
C300
C300
C3C0
C3C0
0080
0080
0180
ENDCHAR
STARTCHAR uni04CB
ENCODING 1227
SWIDTH 487 0
DWIDTH 12 0
BBX 9 20 1 -3
BITMAP
C180
C180
C180
C180
C180
C180
C180
C180
E380
7F80
3D80
0180
0180
0180
0180
0780
0780
0600
0600
0600
ENDCHAR
STARTCHAR uni04CC
ENCODING 1228
SWIDTH 396 0
DWIDTH 9 0
BBX 7 15 1 -3
BITMAP
C6
C6
C6
C6
C6
C6
FE
7E
06
06
0E
0E
0C
0C
0C
ENDCHAR
STARTCHAR uni04CD
ENCODING 1229
SWIDTH 651 0
DWIDTH 16 0
BBX 14 20 2 -3
BITMAP
C030
C030
E070
E070
F0F0
F0B0
D9B0
D9B0
CD30
CF30
C630
C630
C630
C030
C030
C03C
C03C
0008
0008
0018
ENDCHAR
STARTCHAR uni04CE
ENCODING 1230
SWIDTH 538 0
DWIDTH 13 0
BBX 12 15 1 -3
BITMAP
C0C0
E1C0
E1C0
F3C0
F3C0
DEC0
DEC0
CCC0
CCC0
C0C0
C0F0
C0F0
0020
0020
0060
ENDCHAR
STARTCHAR uni04CF
ENCODING 1231
SWIDTH 205 0
DWIDTH 4 0
BBX 2 17 1 0
BITMAP
C0
C0
C0
C0
C0
C0
C0
C0
C0
C0
C0
C0
C0
C0
C0
C0
C0
ENDCHAR
STARTCHAR uni04D0
ENCODING 1232
SWIDTH 473 0
DWIDTH 11 0
BBX 11 21 0 0
BITMAP
3180
3300
1F00
0000
0400
0400
0E00
0A00
0A00
1B00
1B00
1100
3100
3180
3F80
3F80
60C0
60C0
60C0
C060
C060
ENDCHAR
STARTCHAR uni04D1
ENCODING 1233
SWIDTH 400 0
DWIDTH 10 0
BBX 8 16 1 0
BITMAP
CC
7C
78
00
7E
7F
03
03
03
3F
7F
E3
C3
C7
FF
7B
ENDCHAR
STARTCHAR uni04D2
ENCODING 1234
SWIDTH 473 0
DWIDTH 11 0
BBX 11 20 0 0
BITMAP
1B00
1B00
0000
0400
0400
0E00
0A00
0A00
1B00
1B00
1100
3100
3180
3F80
3F80
60C0
60C0
60C0
C060
C060
ENDCHAR
STARTCHAR uni04D3
ENCODING 1235
SWIDTH 400 0
DWIDTH 10 0
BBX 8 17 1 0
BITMAP
44
CC
44
00
00
7E
7F
03
03
03
3F
7F
E3
C3
C7
FF
7B
ENDCHAR
STARTCHAR uni04D4
ENCODING 1236
SWIDTH 683 0
DWIDTH 16 0
BBX 16 17 -1 0
BITMAP
00FF
01FF
01C0
03C0
03C0
06C0
06C0
0CFE
0CFE
0CC0
18C0
1FC0
3FC0
30C0
60C0
60FF
C0FF
ENDCHAR
STARTCHAR uni04D5
ENCODING 1237
SWIDTH 642 0
DWIDTH 15 0
BBX 14 12 0 0
BITMAP
3EF0
7FF8
038C
030C
03FC
3FFC
7F00
E300
C300
C780
FDFC
78F8
ENDCHAR
STARTCHAR uni04D6
ENCODING 1238
SWIDTH 429 0
DWIDTH 10 0
BBX 8 21 2 0
BITMAP
E6
66
3C
00
FF
FF
C0
C0
C0
C0
C0
FE
FE
C0
C0
C0
C0
C0
C0
FF
FF
ENDCHAR
STARTCHAR uni04D7
ENCODING 1239
SWIDTH 413 0
DWIDTH 10 0
BBX 8 16 1 0
BITMAP
6E
7C
38
00
3C
7E
63
C3
FF
FF
C0
C0
C0
60
7F
3E
ENDCHAR
STARTCHAR uni04D8
ENCODING 1240
SWIDTH 514 0
DWIDTH 12 0
BBX 10 17 1 0
BITMAP
3E00
7F00
4380
0180
01C0
00C0
00C0
00C0
FFC0
FFC0
C0C0
C0C0
C0C0
C180
6380
7F00
1E00
ENDCHAR
STARTCHAR afii10846
ENCODING 1241
SWIDTH 408 0
DWIDTH 10 0
BBX 8 12 1 0
BITMAP
7C
FE
06
03
03
FF
FF
C3
C3
E6
7E
3C
ENDCHAR
STARTCHAR uni04DA
ENCODING 1242
SWIDTH 514 0
DWIDTH 12 0
BBX 10 20 1 0
BITMAP
2200
3300
0000
3E00
7F00
4380
0180
01C0
00C0
00C0
00C0
FFC0
FFC0
C0C0
C0C0
C0C0
C180
6380
7F00
1E00
ENDCHAR
STARTCHAR uni04DB
ENCODING 1243
SWIDTH 408 0
DWIDTH 10 0
BBX 8 17 1 0
BITMAP
44
CC
44
00
00
7C
FE
06
03
03
FF
FF
C3
C3
E6
7E
3C
ENDCHAR
STARTCHAR uni04DC
ENCODING 1244
SWIDTH 654 0
DWIDTH 16 0
BBX 16 20 0 0
BITMAP
0660
0660
0000
C183
6186
6186
318C
318C
1998
19B0
0DB0
07E0
0DB0
1998
1998
318C
318C
6186
6186
C183
ENDCHAR
STARTCHAR uni04DD
ENCODING 1245
SWIDTH 537 0
DWIDTH 13 0
BBX 12 17 0 0
BITMAP
1980
1980
1980
0000
0000
C630
6660
6660
36C0
36C0
1F80
1F80
36C0
36C0
6660
6660
C630
ENDCHAR
STARTCHAR uni04DE
ENCODING 1246
SWIDTH 434 0
DWIDTH 10 0
BBX 8 20 1 0
BITMAP
66
66
00
7C
FE
07
03
03
03
06
78
7E
07
03
03
03
03
06
FE
F8
ENDCHAR
STARTCHAR uni04DF
ENCODING 1247
SWIDTH 351 0
DWIDTH 8 0
BBX 7 17 0 0
BITMAP
44
CC
44
00
00
7C
FE
06
06
0C
38
3C
06
06
06
FC
F8
ENDCHAR
STARTCHAR uni04E0
ENCODING 1248
SWIDTH 451 0
DWIDTH 11 0
BBX 9 17 1 0
BITMAP
FF80
FF00
0300
0600
0400
0C00
1800
1E00
3F00
0380
0180
0180
0180
0180
8300
FF00
7C00
ENDCHAR
STARTCHAR uni04E1
ENCODING 1249
SWIDTH 384 0
DWIDTH 9 0
BBX 7 17 1 -5
BITMAP
FE
FE
0C
0C
18
10
30
78
7C
0E
06
06
06
06
0C
FC
F8
ENDCHAR
STARTCHAR uni04E2
ENCODING 1250
SWIDTH 544 0
DWIDTH 13 0
BBX 9 21 2 0
BITMAP
3F00
3F00
0000
0000
C180
C180
C380
C380
C380
C780
C580
CD80
C980
D980
D180
F180
F180
E180
E180
C180
C180
ENDCHAR
STARTCHAR uni04E3
ENCODING 1251
SWIDTH 439 0
DWIDTH 10 0
BBX 8 16 1 0
BITMAP
7E
7E
00
00
C3
C3
C7
C7
CF
CB
DB
F3
E3
E3
C3
C3
ENDCHAR
STARTCHAR uni04E4
ENCODING 1252
SWIDTH 544 0
DWIDTH 13 0
BBX 9 20 2 0
BITMAP
3600
3600
0000
C180
C180
C380
C380
C380
C780
C580
CD80
C980
D980
D180
F180
F180
E180
E180
C180
C180
ENDCHAR
STARTCHAR uni04E5
ENCODING 1253
SWIDTH 439 0
DWIDTH 10 0
BBX 8 17 1 0
BITMAP
66
66
66
00
00
C3
C3
C7
C7
CF
CB
DB
F3
E3
E3
C3
C3
ENDCHAR
STARTCHAR uni04E6
ENCODING 1254
SWIDTH 549 0
DWIDTH 13 0
BBX 11 20 1 0
BITMAP
3300
3300
0000
1F00
3F80
71C0
60C0
C0E0
C060
C060
C060
C060
C060
C060
C060
E0E0
60C0
71C0
3F80
1F00
ENDCHAR
STARTCHAR uni04E7
ENCODING 1255
SWIDTH 432 0
DWIDTH 10 0
BBX 8 17 1 0
BITMAP
66
66
66
00
00
3C
7E
E7
C3
C3
C3
C3
C3
C3
E7
7E
3C
ENDCHAR
STARTCHAR uni04E8
ENCODING 1256
SWIDTH 549 0
DWIDTH 13 0
BBX 11 17 1 0
BITMAP
1F00
3F80
71C0
60C0
C060
C060
C060
FFE0
FFE0
C060
C060
C060
E0E0
60C0
71C0
3F80
1F00
ENDCHAR
STARTCHAR uni04E9
ENCODING 1257
SWIDTH 432 0
DWIDTH 10 0
BBX 8 12 1 0
BITMAP
3C
7E
E6
C3
C3
FF
FF
C3
C3
66
7E
3C
ENDCHAR
STARTCHAR uni04EA
ENCODING 1258
SWIDTH 549 0
DWIDTH 13 0
BBX 11 20 1 0
BITMAP
1B00
1B00
0000
1F00
3F80
71C0
60C0
C060
C060
C060
FFE0
FFE0
C060
C060
C060
E0E0
60C0
71C0
3F80
1F00
ENDCHAR
STARTCHAR uni04EB
ENCODING 1259
SWIDTH 432 0
DWIDTH 10 0
BBX 8 17 1 0
BITMAP
66
66
66
00
00
3C
7E
E6
C3
C3
FF
FF
C3
C3
66
7E
3C
ENDCHAR
STARTCHAR uni04EC
ENCODING 1260
SWIDTH 465 0
DWIDTH 11 0
BBX 9 20 1 0
BITMAP
CC00
CC00
0000
7C00
FE00
0700
0300
0180
0180
0180
3F80
3F80
0180
0180
0180
0380
0300
0700
FE00
F800
ENDCHAR
STARTCHAR uni04ED
ENCODING 1261
SWIDTH 372 0
DWIDTH 9 0
BBX 7 17 1 0
BITMAP
44
CC
44
00
00
78
FC
0E
06
06
7E
7E
06
06
0C
FC
F8
ENDCHAR
STARTCHAR uni04EE
ENCODING 1262
SWIDTH 448 0
DWIDTH 11 0
BBX 11 21 0 0
BITMAP
1F80
1F80
0000
0000
C060
6060
60C0
30C0
30C0
3180
1980
1980
0B00
0F00
0F00
0600
0600
0600
0C00
3C00
3800
ENDCHAR
STARTCHAR uni04EF
ENCODING 1263
SWIDTH 376 0
DWIDTH 9 0
BBX 9 21 0 -5
BITMAP
7E00
7E00
0000
0000
E180
E380
6300
6300
7300
3700
3600
3E00
1E00
1E00
1C00
0C00
0C00
1800
1800
7800
7000
ENDCHAR
STARTCHAR uni04F0
ENCODING 1264
SWIDTH 448 0
DWIDTH 11 0
BBX 11 20 0 0
BITMAP
1980
1980
0000
C060
6060
60C0
30C0
30C0
3180
1980
1980
0B00
0F00
0F00
0600
0600
0600
0C00
3C00
3800
ENDCHAR
STARTCHAR uni04F1
ENCODING 1265
SWIDTH 376 0
DWIDTH 9 0
BBX 9 22 0 -5
BITMAP
1100
3300
1100
0000
0000
E180
E380
6300
6300
7300
3700
3600
3E00
1E00
1E00
1C00
0C00
0C00
1800
1800
7800
7000
ENDCHAR
STARTCHAR uni04F2
ENCODING 1266
SWIDTH 448 0
DWIDTH 11 0
BBX 11 21 0 0
BITMAP
0DC0
1980
1300
0000
C060
6060
60C0
30C0
30C0
3180
1980
1980
0B00
0F00
0F00
0600
0600
0600
0C00
3C00
3800
ENDCHAR
STARTCHAR uni04F3
ENCODING 1267
SWIDTH 376 0
DWIDTH 9 0
BBX 9 22 0 -5
BITMAP
1F80
1B00
1200
0000
0000
E180
E380
6300
6300
7300
3700
3600
3E00
1E00
1E00
1C00
0C00
0C00
1800
1800
7800
7000
ENDCHAR
STARTCHAR uni04F4
ENCODING 1268
SWIDTH 487 0
DWIDTH 12 0
BBX 9 20 1 0
BITMAP
2200
6600
0000
C180
C180
C180
C180
C180
C180
C180
C180
E380
7F80
3D80
0180
0180
0180
0180
0180
0180
ENDCHAR
STARTCHAR uni04F5
ENCODING 1269
SWIDTH 396 0
DWIDTH 10 0
BBX 7 17 1 0
BITMAP
CC
CC
CC
00
00
C6
C6
C6
C6
C6
C6
FE
7E
06
06
06
06
ENDCHAR
STARTCHAR uni04F6
ENCODING 1270
SWIDTH 357 0
DWIDTH 9 0
BBX 7 20 2 -3
BITMAP
FE
FE
C0
C0
C0
C0
C0
C0
C0
C0
C0
C0
C0
C0
C0
F0
F0
30
30
30
ENDCHAR
STARTCHAR uni04F7
ENCODING 1271
SWIDTH 296 0
DWIDTH 7 0
BBX 6 15 1 -3
BITMAP
FC
FC
C0
C0
C0
C0
C0
C0
C0
C0
E0
E0
60
60
60
ENDCHAR
STARTCHAR uni04F8
ENCODING 1272
SWIDTH 622 0
DWIDTH 15 0
BBX 11 20 2 0
BITMAP
3300
3300
0000
C060
C060
C060
C060
C060
C060
FC60
FE60
C760
C360
C360
C360
C360
C360
C660
FE60
F860
ENDCHAR
STARTCHAR uni04F9
ENCODING 1273
SWIDTH 538 0
DWIDTH 12 0
BBX 10 17 1 0
BITMAP
3300
3300
3300
0000
0000
C0C0
C0C0
C0C0
C0C0
FCC0
FEC0
C6C0
C6C0
C6C0
C6C0
FCC0
F8C0
ENDCHAR
STARTCHAR uni04FC
ENCODING 1276
SWIDTH 498 0
DWIDTH 12 0
BBX 11 22 0 -5
BITMAP
6060
3060
30C0
1880
1980
0900
0F00
0600
0600
0F00
0F00
1980
1980
30C0
30C0
6060
6060
8060
0060
00E0
01E0
01C0
ENDCHAR
STARTCHAR uni04FD
ENCODING 1277
SWIDTH 414 0
DWIDTH 10 0
BBX 9 17 0 -5
BITMAP
6180
7180
3300
3B00
1E00
0C00
1E00
1E00
3300
3300
6380
6180
8180
0180
0180
0780
0700
ENDCHAR
STARTCHAR uni0510
ENCODING 1296
SWIDTH 447 0
DWIDTH 11 0
BBX 8 17 1 0
BITMAP
3E
7F
E0
C0
C0
C0
70
3E
7E
E0
C0
C0
C0
C0
E0
7F
3E
ENDCHAR
STARTCHAR uni0511
ENCODING 1297
SWIDTH 353 0
DWIDTH 8 0
BBX 7 12 1 0
BITMAP
7C
FE
C0
C0
E0
38
78
C0
C0
E0
7E
3E
ENDCHAR
STARTCHAR uni0512
ENCODING 1298
SWIDTH 503 0
DWIDTH 12 0
BBX 10 22 0 -5
BITMAP
1FC0
1FC0
18C0
18C0
18C0
18C0
18C0
18C0
18C0
18C0
30C0
30C0
30C0
30C0
70C0
E0C0
E0C0
00C0
00C0
01C0
0380
0380
ENDCHAR
STARTCHAR uni0513
ENCODING 1299
SWIDTH 407 0
DWIDTH 10 0
BBX 9 17 0 -5
BITMAP
1F80
1F80
1980
1980
1980
1980
1980
3980
3180
3180
F180
E180
0180
0180
0180
0380
0300
ENDCHAR
STARTCHAR uni051C
ENCODING 1308
SWIDTH 672 0
DWIDTH 16 0
BBX 15 17 0 0
BITMAP
C106
C106
4384
638C
628C
628C
62CC
26C8
36C8
3458
3478
3478
1C70
1830
1830
1830
1830
ENDCHAR
STARTCHAR uni051D
ENCODING 1309
SWIDTH 590 0
DWIDTH 14 0
BBX 14 12 0 0
BITMAP
C30C
C30C
6798
6798
6598
6CD8
3CF0
3CF0
3870
1860
1860
1020
ENDCHAR
STARTCHAR uni0524
ENCODING 1316
SWIDTH 558 0
DWIDTH 13 0
BBX 11 20 2 -3
BITMAP
FF80
FF80
C180
C180
C180
C180
C180
C180
C180
C180
C180
C180
C180
C180
C180
C1E0
C1E0
0060
0060
0060
ENDCHAR
STARTCHAR uni0525
ENCODING 1317
SWIDTH 448 0
DWIDTH 11 0
BBX 9 15 1 -3
BITMAP
FF00
FF00
C300
C300
C300
C300
C300
C300
C300
C300
C380
C380
0180
0180
0180
ENDCHAR
STARTCHAR uni0526
ENCODING 1318
SWIDTH 521 0
DWIDTH 13 0
BBX 11 20 2 -3
BITMAP
C000
C000
C000
C000
C000
C000
DE00
FF00
E380
C180
C180
C180
C180
C180
C180
C1E0
C1E0
0060
0060
0060
ENDCHAR
STARTCHAR uni0527
ENCODING 1319
SWIDTH 467 0
DWIDTH 11 0
BBX 9 20 1 -3
BITMAP
C000
C000
C000
C000
C000
DE00
FF00
E700
C300
C300
C300
C300
C300
C300
C300
C380
C380
0180
0180
0180
ENDCHAR
STARTCHAR uni1E30
ENCODING 7728
SWIDTH 493 0
DWIDTH 12 0
BBX 9 21 2 0
BITMAP
0E00
1800
3000
0000
C180
C300
C300
C600
CC00
CC00
D800
D800
F000
F800
D800
CC00
CE00
C600
C700
C300
C180
ENDCHAR
STARTCHAR uni1E31
ENCODING 7729
SWIDTH 388 0
DWIDTH 9 0
BBX 8 18 1 0
BITMAP
06
C6
C4
CC
C0
C0
C3
C6
C6
CC
C8
F0
F8
D8
CC
C6
C6
C3
ENDCHAR
STARTCHAR uni1E3E
ENCODING 7742
SWIDTH 637 0
DWIDTH 15 0
BBX 12 21 2 0
BITMAP
0380
0700
0C00
0000
C030
C030
E070
E070
F0F0
F0B0
D9B0
D9B0
CD30
CF30
C630
C630
C630
C030
C030
C030
C030
ENDCHAR
STARTCHAR uni1E3F
ENCODING 7743
SWIDTH 651 0
DWIDTH 16 0
BBX 14 18 1 0
BITMAP
00C0
0180
0180
0100
0000
0000
DE78
FFFC
E78C
C30C
C30C
C30C
C30C
C30C
C30C
C30C
C30C
C30C
ENDCHAR
STARTCHAR uni1E54
ENCODING 7764
SWIDTH 451 0
DWIDTH 11 0
BBX 8 21 2 0
BITMAP
0E
18
30
40
FC
FE
C6
C3
C3
C3
C3
C3
C6
FE
F8
C0
C0
C0
C0
C0
C0
ENDCHAR
STARTCHAR uni1E55
ENCODING 7765
SWIDTH 435 0
DWIDTH 10 0
BBX 8 23 1 -5
BITMAP
06
04
0C
08
00
00
DC
FE
E7
C3
C3
C3
C3
C3
C3
C6
FE
FC
C0
C0
C0
C0
C0
ENDCHAR
STARTCHAR uni1E9E
ENCODING 7838
SWIDTH 522 0
DWIDTH 13 0
BBX 9 17 2 0
BITMAP
7E00
FF00
C380
8200
8600
8C00
8C00
9E00
9F00
8180
8180
8180
8180
8180
8180
A380
BF00
ENDCHAR
STARTCHAR uni2011
ENCODING 8209
SWIDTH 291 0
DWIDTH 7 0
BBX 5 2 1 6
BITMAP
F8
F8
ENDCHAR
STARTCHAR endash
ENCODING 8211
SWIDTH 530 0
DWIDTH 13 0
BBX 8 2 2 6
BITMAP
FF
FF
ENDCHAR
STARTCHAR emdash
ENCODING 8212
SWIDTH 662 0
DWIDTH 16 0
BBX 11 2 2 6
BITMAP
FFE0
FFE0
ENDCHAR
STARTCHAR quoteleft
ENCODING 8216
SWIDTH 162 0
DWIDTH 4 0
BBX 2 5 1 14
BITMAP
40
C0
80
C0
C0
ENDCHAR
STARTCHAR quoteright
ENCODING 8217
SWIDTH 162 0
DWIDTH 4 0
BBX 2 5 1 12
BITMAP
C0
C0
40
C0
80
ENDCHAR
STARTCHAR quotesinglbase
ENCODING 8218
SWIDTH 162 0
DWIDTH 4 0
BBX 2 5 1 -3
BITMAP
C0
C0
40
C0
80
ENDCHAR
STARTCHAR quotedblleft
ENCODING 8220
SWIDTH 288 0
DWIDTH 7 0
BBX 5 5 1 14
BITMAP
48
D8
90
D8
D8
ENDCHAR
STARTCHAR quotedblright
ENCODING 8221
SWIDTH 288 0
DWIDTH 7 0
BBX 5 5 1 12
BITMAP
D8
D8
48
C8
90
ENDCHAR
STARTCHAR quotedblbase
ENCODING 8222
SWIDTH 288 0
DWIDTH 7 0
BBX 5 5 1 -3
BITMAP
D8
D8
48
C8
90
ENDCHAR
STARTCHAR dagger
ENCODING 8224
SWIDTH 394 0
DWIDTH 9 0
BBX 8 22 1 -5
BITMAP
18
18
18
18
18
FF
FF
18
18
18
18
18
18
18
18
18
18
18
18
18
18
18
ENDCHAR
STARTCHAR daggerdbl
ENCODING 8225
SWIDTH 394 0
DWIDTH 9 0
BBX 8 22 1 -5
BITMAP
18
18
18
18
18
FF
FF
18
18
18
18
FF
FF
18
18
18
18
18
18
18
18
18
ENDCHAR
STARTCHAR bullet
ENCODING 8226
SWIDTH 363 0
DWIDTH 9 0
BBX 5 7 2 4
BITMAP
70
F8
F8
F8
F8
F8
70
ENDCHAR
STARTCHAR ellipsis
ENCODING 8230
SWIDTH 657 0
DWIDTH 16 0
BBX 12 3 2 0
BITMAP
8630
C630
8630
ENDCHAR
STARTCHAR perthousand
ENCODING 8240
SWIDTH 948 0
DWIDTH 23 0
BBX 21 17 1 0
BITMAP
381000
6C3000
6C2000
EC6000
EEC000
6C8000
6D8000
390000
020000
0670F0
04D9B0
0CCD98
18CD98
10CD98
30CD98
20D9B0
6070F0
ENDCHAR
STARTCHAR guilsinglleft
ENCODING 8249
SWIDTH 242 0
DWIDTH 6 0
BBX 4 11 1 1
BITMAP
10
30
20
60
40
80
C0
60
20
30
10
ENDCHAR
STARTCHAR guilsinglright
ENCODING 8250
SWIDTH 242 0
DWIDTH 6 0
BBX 4 11 1 1
BITMAP
80
C0
40
60
30
10
20
60
40
C0
80
ENDCHAR
STARTCHAR fraction
ENCODING 8260
SWIDTH 149 0
DWIDTH 4 0
BBX 10 17 -3 0
BITMAP
0040
00C0
0180
0100
0300
0200
0600
0400
0C00
0800
1800
1000
3000
2000
6000
C000
8000
ENDCHAR
STARTCHAR uni2081
ENCODING 8321
SWIDTH 330 0
DWIDTH 8 0
BBX 6 10 1 -2
BITMAP
30
70
B0
30
30
30
30
30
30
FC
ENDCHAR
STARTCHAR uni2082
ENCODING 8322
SWIDTH 330 0
DWIDTH 8 0
BBX 5 10 1 -2
BITMAP
F0
F8
18
18
18
30
30
60
78
F8
ENDCHAR
STARTCHAR uni2083
ENCODING 8323
SWIDTH 330 0
DWIDTH 8 0
BBX 5 10 2 -2
BITMAP
F8
10
30
60
70
18
18
18
18
F0
ENDCHAR
STARTCHAR uni2084
ENCODING 8324
SWIDTH 330 0
DWIDTH 8 0
BBX 7 10 1 -2
BITMAP
08
18
18
38
58
58
D8
FE
18
18
ENDCHAR
STARTCHAR Euro
ENCODING 8364
SWIDTH 450 0
DWIDTH 11 0
BBX 10 17 1 0
BITMAP
0FC0
1FC0
3800
3000
6000
FF00
FF00
6000
FF00
FF00
6000
6000
3000
3000
3800
1FC0
0FC0
ENDCHAR
STARTCHAR uni20B4
ENCODING 8372
SWIDTH 450 0
DWIDTH 11 0
BBX 9 17 1 0
BITMAP
7E00
7F00
0300
0300
0300
0600
FF80
FF80
0000
FF80
FF80
3000
6000
6000
7000
7F80
3F00
ENDCHAR
STARTCHAR uni20B6
ENCODING 8374
SWIDTH 450 0
DWIDTH 11 0
BBX 9 17 1 0
BITMAP
7E00
7F00
6380
6180
6180
6180
6180
6180
6300
FF00
FE00
6000
FC00
FC00
6000
6000
6000
ENDCHAR
STARTCHAR uni20B7
ENCODING 8375
SWIDTH 450 0
DWIDTH 11 0
BBX 9 17 1 0
BITMAP
7E00
7F00
6380
6180
6180
6180
6180
6180
6300
FF00
FE00
6000
FC00
FC00
6000
6000
6000
ENDCHAR
STARTCHAR uni20B9
ENCODING 8377
SWIDTH 450 0
DWIDTH 11 0
BBX 9 17 1 0
BITMAP
7E00
7F00
6380
6180
6180
6180
6180
6180
6300
FF00
FE00
6000
FC00
FC00
6000
6000
6000
ENDCHAR
STARTCHAR uni20BA
ENCODING 8378
SWIDTH 450 0
DWIDTH 11 0
BBX 9 17 1 0
BITMAP
7E00
7F00
6380
6180
6180
6180
6180
6180
6300
FF00
FE00
6000
FC00
FC00
6000
6000
6000
ENDCHAR
STARTCHAR uni20BB
ENCODING 8379
SWIDTH 450 0
DWIDTH 11 0
BBX 9 17 1 0
BITMAP
7E00
7F00
6380
6180
6180
6180
6180
6180
6300
FF00
FE00
6000
FC00
FC00
6000
6000
6000
ENDCHAR
STARTCHAR uni20BC
ENCODING 8380
SWIDTH 450 0
DWIDTH 11 0
BBX 9 17 1 0
BITMAP
7E00
7F00
6380
6180
6180
6180
6180
6180
6300
FF00
FE00
6000
FC00
FC00
6000
6000
6000
ENDCHAR
STARTCHAR uni20BD
ENCODING 8381
SWIDTH 450 0
DWIDTH 11 0
BBX 9 17 1 0
BITMAP
7E00
7F00
6380
6180
6180
6180
6180
6180
6300
FF00
FE00
6000
FC00
FC00
6000
6000
6000
ENDCHAR
STARTCHAR uni20BE
ENCODING 8382
SWIDTH 450 0
DWIDTH 11 0
BBX 9 17 1 0
BITMAP
7E00
7F00
6380
6180
6180
6180
6180
6180
6300
FF00
FE00
6000
FC00
FC00
6000
6000
6000
ENDCHAR
STARTCHAR uni20BF
ENCODING 8383
SWIDTH 450 0
DWIDTH 11 0
BBX 9 17 1 0
BITMAP
7E00
7F00
6380
6180
6180
6180
6180
6180
6300
FF00
FE00
6000
FC00
FC00
6000
6000
6000
ENDCHAR
STARTCHAR uni20C0
ENCODING 8384
SWIDTH 450 0
DWIDTH 11 0
BBX 9 17 1 0
BITMAP
7E00
7F00
6380
6180
6180
6180
6180
6180
6300
FF00
FE00
6000
FC00
FC00
6000
6000
6000
ENDCHAR
STARTCHAR uni20C1
ENCODING 8385
SWIDTH 450 0
DWIDTH 11 0
BBX 9 17 1 0
BITMAP
7E00
7F00
6380
6180
6180
6180
6180
6180
6300
FF00
FE00
6000
FC00
FC00
6000
6000
6000
ENDCHAR
STARTCHAR uni20C2
ENCODING 8386
SWIDTH 450 0
DWIDTH 11 0
BBX 9 17 1 0
BITMAP
7E00
7F00
6380
6180
6180
6180
6180
6180
6300
FF00
FE00
6000
FC00
FC00
6000
6000
6000
ENDCHAR
STARTCHAR uni20C3
ENCODING 8387
SWIDTH 450 0
DWIDTH 11 0
BBX 9 17 1 0
BITMAP
7E00
7F00
6380
6180
6180
6180
6180
6180
6300
FF00
FE00
6000
FC00
FC00
6000
6000
6000
ENDCHAR
STARTCHAR uni20C4
ENCODING 8388
SWIDTH 450 0
DWIDTH 11 0
BBX 9 17 1 0
BITMAP
7E00
7F00
6380
6180
6180
6180
6180
6180
6300
FF00
FE00
6000
FC00
FC00
6000
6000
6000
ENDCHAR
STARTCHAR uni20C5
ENCODING 8389
SWIDTH 450 0
DWIDTH 11 0
BBX 9 17 1 0
BITMAP
7E00
7F00
6380
6180
6180
6180
6180
6180
6300
FF00
FE00
6000
FC00
FC00
6000
6000
6000
ENDCHAR
STARTCHAR uni20C6
ENCODING 8390
SWIDTH 450 0
DWIDTH 11 0
BBX 9 17 1 0
BITMAP
7E00
7F00
6380
6180
6180
6180
6180
6180
6300
FF00
FE00
6000
FC00
FC00
6000
6000
6000
ENDCHAR
STARTCHAR uni20C7
ENCODING 8391
SWIDTH 450 0
DWIDTH 11 0
BBX 9 17 1 0
BITMAP
7E00
7F00
6380
6180
6180
6180
6180
6180
6300
FF00
FE00
6000
FC00
FC00
6000
6000
6000
ENDCHAR
STARTCHAR uni20C8
ENCODING 8392
SWIDTH 450 0
DWIDTH 11 0
BBX 9 17 1 0
BITMAP
7E00
7F00
6380
6180
6180
6180
6180
6180
6300
FF00
FE00
6000
FC00
FC00
6000
6000
6000
ENDCHAR
STARTCHAR uni20C9
ENCODING 8393
SWIDTH 450 0
DWIDTH 11 0
BBX 9 17 1 0
BITMAP
7E00
7F00
6380
6180
6180
6180
6180
6180
6300
FF00
FE00
6000
FC00
FC00
6000
6000
6000
ENDCHAR
STARTCHAR uni20CA
ENCODING 8394
SWIDTH 450 0
DWIDTH 11 0
BBX 9 17 1 0
BITMAP
7E00
7F00
6380
6180
6180
6180
6180
6180
6300
FF00
FE00
6000
FC00
FC00
6000
6000
6000
ENDCHAR
STARTCHAR uni20CB
ENCODING 8395
SWIDTH 450 0
DWIDTH 11 0
BBX 9 17 1 0
BITMAP
7E00
7F00
6380
6180
6180
6180
6180
6180
6300
FF00
FE00
6000
FC00
FC00
6000
6000
6000
ENDCHAR
STARTCHAR uni20CC
ENCODING 8396
SWIDTH 450 0
DWIDTH 11 0
BBX 9 17 1 0
BITMAP
7E00
7F00
6380
6180
6180
6180
6180
6180
6300
FF00
FE00
6000
FC00
FC00
6000
6000
6000
ENDCHAR
STARTCHAR uni20CD
ENCODING 8397
SWIDTH 450 0
DWIDTH 11 0
BBX 9 17 1 0
BITMAP
7E00
7F00
6380
6180
6180
6180
6180
6180
6300
FF00
FE00
6000
FC00
FC00
6000
6000
6000
ENDCHAR
STARTCHAR uni20CE
ENCODING 8398
SWIDTH 450 0
DWIDTH 11 0
BBX 9 17 1 0
BITMAP
7E00
7F00
6380
6180
6180
6180
6180
6180
6300
FF00
FE00
6000
FC00
FC00
6000
6000
6000
ENDCHAR
STARTCHAR uni20CF
ENCODING 8399
SWIDTH 450 0
DWIDTH 11 0
BBX 9 17 1 0
BITMAP
7E00
7F00
6380
6180
6180
6180
6180
6180
6300
FF00
FE00
6000
FC00
FC00
6000
6000
6000
ENDCHAR
STARTCHAR afii61289
ENCODING 8467
SWIDTH 500 0
DWIDTH 12 0
BBX 8 17 2 0
BITMAP
1E
1F
33
33
33
32
36
34
34
38
70
F0
B0
30
30
3F
1E
ENDCHAR
STARTCHAR afii61352
ENCODING 8470
SWIDTH 825 0
DWIDTH 20 0
BBX 16 17 2 0
BITMAP
C19E
C1B3
E1B3
E1B3
E1B3
F1B3
D1B3
D99E
C980
CDBF
C5BF
C780
C380
C380
C180
C180
C180
ENDCHAR
STARTCHAR trademark
ENCODING 8482
SWIDTH 731 0
DWIDTH 18 0
BBX 17 9 0 8
BITMAP
FFC180
FFE380
18E380
18F780
18F780
18DD80
18DD80
18C980
18C180
ENDCHAR
STARTCHAR uni03A9.dup2
ENCODING 8486
SWIDTH 640 0
DWIDTH 15 0
BBX 13 17 1 0
BITMAP
0F80
3FE0
7070
6030
E038
C018
C018
C018
C018
C018
E030
6030
38E0
1DC0
0D80
FDF8
FDF8
ENDCHAR
STARTCHAR estimated
ENCODING 8494
SWIDTH 600 0
DWIDTH 14 0
BBX 12 13 1 0
BITMAP
0F00
30C0
6060
6060
E070
E070
FFF0
E000
E000
6020
6040
3080
1F00
ENDCHAR
STARTCHAR partialdiff
ENCODING 8706
SWIDTH 416 0
DWIDTH 10 0
BBX 9 17 0 0
BITMAP
1C00
1E00
0700
0380
0180
1F80
3F80
7180
6180
C180
C180
C180
C300
C300
E700
7E00
3C00
ENDCHAR
STARTCHAR uni0394.dup3
ENCODING 8710
SWIDTH 459 0
DWIDTH 11 0
BBX 11 17 0 0
BITMAP
0400
0400
0E00
0A00
0A00
1B00
1B00
1300
3180
3180
3180
2080
60C0
60C0
4040
FFE0
FFE0
ENDCHAR
STARTCHAR product
ENCODING 8719
SWIDTH 541 0
DWIDTH 13 0
BBX 10 22 2 -5
BITMAP
FFC0
FFC0
C0C0
C0C0
C0C0
C0C0
C0C0
C0C0
C0C0
C0C0
C0C0
C0C0
C0C0
C0C0
C0C0
C0C0
C0C0
C0C0
C0C0
C0C0
C0C0
C0C0
ENDCHAR
STARTCHAR summation
ENCODING 8721
SWIDTH 415 0
DWIDTH 10 0
BBX 9 22 0 -5
BITMAP
FF80
FF80
C000
6000
6000
3000
3000
1800
1C00
0C00
0E00
0400
0C00
0800
1800
3000
3000
6000
6000
C000
FF80
FF80
ENDCHAR
STARTCHAR minus
ENCODING 8722
SWIDTH 415 0
DWIDTH 10 0
BBX 8 2 1 7
BITMAP
FF
FF
ENDCHAR
STARTCHAR uni2215
ENCODING 8725
SWIDTH 415 0
DWIDTH 10 0
BBX 10 17 0 0
BITMAP
0040
00C0
0080
0180
0100
0300
0200
0400
0C00
0800
1800
1000
3000
2000
6000
4000
C000
ENDCHAR
STARTCHAR radical
ENCODING 8730
SWIDTH 415 0
DWIDTH 10 0
BBX 10 17 0 0
BITMAP
0040
00C0
00C0
0080
0180
0180
E180
F100
3300
3300
1B00
1A00
1A00
0A00
0E00
0C00
0400
ENDCHAR
STARTCHAR infinity
ENCODING 8734
SWIDTH 695 0
DWIDTH 17 0
BBX 16 9 0 4
BITMAP
3C3C
7E7E
E7E7
C383
C183
C3C3
E7E7
7E7E
3C3C
ENDCHAR
STARTCHAR integral
ENCODING 8747
SWIDTH 284 0
DWIDTH 7 0
BBX 8 22 -1 -5
BITMAP
0F
1F
18
18
18
18
18
18
18
18
18
18
18
18
18
18
18
18
18
18
F8
F0
ENDCHAR
STARTCHAR approxequal
ENCODING 8776
SWIDTH 415 0
DWIDTH 10 0
BBX 9 7 0 5
BITMAP
7900
FF80
8700
0000
7900
FF80
8700
ENDCHAR
STARTCHAR notequal
ENCODING 8800
SWIDTH 415 0
DWIDTH 10 0
BBX 9 13 1 1
BITMAP
0700
0600
0600
FF80
FF80
0C00
1800
FF80
FF80
3000
3000
7000
6000
ENDCHAR
STARTCHAR lessequal
ENCODING 8804
SWIDTH 415 0
DWIDTH 10 0
BBX 8 15 1 1
BITMAP
02
07
0C
38
70
C0
70
38
0C
47
E2
38
1C
07
02
ENDCHAR
STARTCHAR greaterequal
ENCODING 8805
SWIDTH 415 0
DWIDTH 10 0
BBX 8 15 1 1
BITMAP
40
E0
30
1C
0E
03
0E
1C
30
E2
47
1C
38
60
C0
ENDCHAR
STARTCHAR lozenge
ENCODING 9674
SWIDTH 415 0
DWIDTH 10 0
BBX 9 17 0 0
BITMAP
0800
1C00
1400
3600
3600
2600
6300
6300
C180
E180
6300
6300
3600
3600
1400
1C00
0800
ENDCHAR
STARTCHAR uni2C67
ENCODING 11367
SWIDTH 568 0
DWIDTH 14 0
BBX 11 20 2 -3
BITMAP
C180
C180
C180
C180
C180
C180
C180
FF80
FF80
C180
C180
C180
C180
C180
C180
C1E0
C1E0
0060
0060
0060
ENDCHAR
STARTCHAR uni2C68
ENCODING 11368
SWIDTH 467 0
DWIDTH 11 0
BBX 9 20 1 -3
BITMAP
C000
C000
C000
C000
C000
DE00
FF00
E700
C300
C300
C300
C300
C300
C300
C300
C380
C380
0180
0180
0180
ENDCHAR
STARTCHAR uniF401
ENCODING 62465
SWIDTH 2 0
DWIDTH 0 0
BBX 5 3 -10 18
BITMAP
38
70
C0
ENDCHAR
STARTCHAR uniF406
ENCODING 62470
SWIDTH 405 0
DWIDTH 10 0
BBX 7 4 1 18
BITMAP
82
C6
7C
38
ENDCHAR
STARTCHAR uniF407
ENCODING 62471
SWIDTH 262 0
DWIDTH 6 0
BBX 4 5 1 -5
BITMAP
20
70
30
30
E0
ENDCHAR
STARTCHAR uniF408
ENCODING 62472
SWIDTH 379 0
DWIDTH 9 0
BBX 6 3 2 18
BITMAP
30
78
CC
ENDCHAR
STARTCHAR uniF409
ENCODING 62473
SWIDTH 219 0
DWIDTH 5 0
BBX 2 4 2 -5
BITMAP
C0
C0
40
80
ENDCHAR
STARTCHAR uniF40A
ENCODING 62474
SWIDTH 162 0
DWIDTH 4 0
BBX 2 5 1 12
BITMAP
C0
C0
40
C0
80
ENDCHAR
STARTCHAR uniF40B
ENCODING 62475
SWIDTH 229 0
DWIDTH 6 0
BBX 3 3 1 18
BITMAP
E0
E0
E0
ENDCHAR
STARTCHAR uniF40C
ENCODING 62476
SWIDTH 300 0
DWIDTH 7 0
BBX 4 4 1 16
BITMAP
60
90
90
60
ENDCHAR
STARTCHAR uniF40D
ENCODING 62477
SWIDTH 395 0
DWIDTH 9 0
BBX 7 3 1 18
BITMAP
72
FE
9C
ENDCHAR
STARTCHAR uniF40E
ENCODING 62478
SWIDTH 278 0
DWIDTH 7 0
BBX 4 5 1 -5
BITMAP
60
C0
C0
F0
70
ENDCHAR
STARTCHAR uniF486
ENCODING 62598
SWIDTH 471 0
DWIDTH 11 0
BBX 8 21 2 0
BITMAP
0E
1C
18
20
FC
FE
C7
C3
C3
C3
C6
F8
FE
C7
C3
C3
C3
C3
C6
FE
FC
ENDCHAR
STARTCHAR uniF487
ENCODING 62599
SWIDTH 434 0
DWIDTH 10 0
BBX 8 18 1 0
BITMAP
06
C6
C4
C4
C8
C0
DC
FE
E7
C3
C3
C3
C3
C3
C3
C6
FE
7C
ENDCHAR
STARTCHAR uniF488
ENCODING 62600
SWIDTH 413 0
DWIDTH 10 0
BBX 7 21 2 0
BITMAP
1C
38
20
40
FE
FE
C0
C0
C0
C0
C0
FE
FE
C0
C0
C0
C0
C0
C0
C0
C0
ENDCHAR
STARTCHAR uniF489
ENCODING 62601
SWIDTH 257 0
DWIDTH 6 0
BBX 7 21 1 0
BITMAP
0E
1C
30
00
3C
7C
60
60
60
F8
F8
60
60
60
60
60
60
60
60
60
60
ENDCHAR
STARTCHAR uniF49E
ENCODING 62622
SWIDTH 490 0
DWIDTH 12 0
BBX 11 17 0 0
BITMAP
3000
3000
3000
FF00
FF00
3000
3780
3FC0
38E0
3060
3060
3060
3060
3060
3060
3060
3060
ENDCHAR
STARTCHAR uniF49F
ENCODING 62623
SWIDTH 441 0
DWIDTH 10 0
BBX 10 17 -1 0
BITMAP
3000
3000
FE00
FE00
3000
3780
3FC0
39C0
30C0
30C0
30C0
30C0
30C0
30C0
30C0
30C0
30C0
ENDCHAR
STARTCHAR uniF4C6
ENCODING 62662
SWIDTH 487 0
DWIDTH 12 0
BBX 9 22 1 -5
BITMAP
C180
C180
C180
C180
C180
C180
C180
C180
E380
7F80
3D80
0180
0180
0180
0180
0180
0180
0180
0180
0380
0700
0700
ENDCHAR
STARTCHAR uniF4C7
ENCODING 62663
SWIDTH 396 0
DWIDTH 10 0
BBX 7 17 1 -5
BITMAP
C6
C6
C6
C6
C6
C6
FE
7E
06
06
06
06
06
06
06
0E
0C
ENDCHAR
STARTCHAR uniF4CC
ENCODING 62668
SWIDTH 448 0
DWIDTH 11 0
BBX 11 21 0 0
BITMAP
0380
0600
0C00
1000
C060
6060
60C0
30C0
30C0
3180
1980
1980
0B00
0F00
0F00
0600
0600
0600
0C00
3C00
3800
ENDCHAR
STARTCHAR uniF4CD
ENCODING 62669
SWIDTH 376 0
DWIDTH 9 0
BBX 9 23 0 -5
BITMAP
0E00
0C00
0800
0800
0000
0000
E180
E380
6300
6300
7300
3700
3600
3E00
1E00
1E00
1C00
0C00
0C00
1800
1800
7800
7000
ENDCHAR
STARTCHAR uniF4D6
ENCODING 62678
SWIDTH 465 0
DWIDTH 11 0
BBX 9 21 1 0
BITMAP
3000
3800
3000
0000
7C00
FE00
0700
0300
0180
0180
0180
3F80
3F80
0180
0180
0180
0380
0300
0700
FE00
F800
ENDCHAR
STARTCHAR uniF4D7
ENCODING 62679
SWIDTH 372 0
DWIDTH 9 0
BBX 7 17 1 0
BITMAP
30
30
30
00
00
78
FC
0E
06
06
7E
7E
06
06
0C
FC
F8
ENDCHAR
STARTCHAR uni0498.alt
ENCODING 62730
SWIDTH 434 0
DWIDTH 10 0
BBX 8 21 1 -4
BITMAP
7C
FE
07
03
03
03
06
78
7E
07
03
03
03
03
06
FE
FC
30
30
30
30
ENDCHAR
STARTCHAR uni0499.alt
ENCODING 62731
SWIDTH 351 0
DWIDTH 8 0
BBX 7 16 0 -4
BITMAP
7C
FE
06
06
0C
38
3C
06
06
06
FC
FC
30
30
30
30
ENDCHAR
STARTCHAR uni04AA.alt02
ENCODING 62732
SWIDTH 458 0
DWIDTH 11 0
BBX 9 22 1 -5
BITMAP
0F80
3F80
7000
6000
E000
C000
C000
C000
C000
C000
C000
C000
E000
6000
7000
3F80
1F00
0400
0E00
0600
0600
0C00
ENDCHAR
STARTCHAR uni04AB.alt02
ENCODING 62733
SWIDTH 356 0
DWIDTH 9 0
BBX 7 17 1 -5
BITMAP
3E
7E
62
C0
C0
C0
C0
C0
C0
62
7E
3C
08
1C
0C
0C
18
ENDCHAR
STARTCHAR uniF50E
ENCODING 62734
SWIDTH 473 0
DWIDTH 11 0
BBX 11 21 0 0
BITMAP
1F80
1F80
0000
0000
0400
0400
0E00
0A00
0A00
1B00
1B00
1100
3100
3180
3F80
3F80
60C0
60C0
60C0
C060
C060
ENDCHAR
STARTCHAR uniF50F
ENCODING 62735
SWIDTH 400 0
DWIDTH 10 0
BBX 8 16 1 0
BITMAP
FC
FC
00
00
7E
7F
03
03
03
3F
7F
E3
C3
C7
FF
7B
ENDCHAR
STARTCHAR uniF510
ENCODING 62736
SWIDTH 429 0
DWIDTH 10 0
BBX 8 21 2 0
BITMAP
7E
7E
00
00
FF
FF
C0
C0
C0
C0
C0
FE
FE
C0
C0
C0
C0
C0
C0
FF
FF
ENDCHAR
STARTCHAR uniF511
ENCODING 62737
SWIDTH 413 0
DWIDTH 10 0
BBX 8 16 1 0
BITMAP
7E
7E
00
00
3C
7E
63
C3
FF
FF
C0
C0
C0
60
7F
3E
ENDCHAR
STARTCHAR uniF512
ENCODING 62738
SWIDTH 429 0
DWIDTH 10 0
BBX 8 23 2 0
BITMAP
FC
FC
00
CC
CC
00
FF
FF
C0
C0
C0
C0
C0
FE
FE
C0
C0
C0
C0
C0
C0
FF
FF
ENDCHAR
STARTCHAR uniF513
ENCODING 62739
SWIDTH 413 0
DWIDTH 10 0
BBX 8 20 1 0
BITMAP
7E
7E
00
66
66
66
00
00
3C
7E
63
C3
FF
FF
C0
C0
C0
60
7F
3E
ENDCHAR
STARTCHAR uniF514
ENCODING 62740
SWIDTH 429 0
DWIDTH 10 0
BBX 8 24 2 0
BITMAP
C6
66
3C
00
CC
CC
00
FF
FF
C0
C0
C0
C0
C0
FE
FE
C0
C0
C0
C0
C0
C0
FF
FF
ENDCHAR
STARTCHAR uniF515
ENCODING 62741
SWIDTH 413 0
DWIDTH 10 0
BBX 8 21 1 0
BITMAP
63
33
1E
00
44
66
66
00
00
3C
7E
63
C3
FF
FF
C0
C0
C0
60
7F
3E
ENDCHAR
STARTCHAR uniF516
ENCODING 62742
SWIDTH 434 0
DWIDTH 10 0
BBX 8 21 1 0
BITMAP
66
3C
18
00
7C
FE
07
03
03
03
06
78
7E
07
03
03
03
03
06
FE
F8
ENDCHAR
STARTCHAR uniF517
ENCODING 62743
SWIDTH 351 0
DWIDTH 8 0
BBX 7 17 0 0
BITMAP
66
3C
38
18
00
7C
FE
06
06
0C
38
3C
06
06
06
FC
F8
ENDCHAR
STARTCHAR uniF518
ENCODING 62744
SWIDTH 549 0
DWIDTH 13 0
BBX 11 21 1 0
BITMAP
1F80
1F80
0000
0000
1F00
3F80
71C0
60C0
C0E0
C060
C060
C060
C060
C060
C060
C060
E0E0
60C0
71C0
3F80
1F00
ENDCHAR
STARTCHAR uniF519
ENCODING 62745
SWIDTH 432 0
DWIDTH 10 0
BBX 8 16 1 0
BITMAP
7E
7E
00
00
3C
7E
E7
C3
C3
C3
C3
C3
C3
E7
7E
3C
ENDCHAR
STARTCHAR uniF51A
ENCODING 62746
SWIDTH 549 0
DWIDTH 13 0
BBX 11 21 1 0
BITMAP
3180
3300
1E00
0000
1F00
3F80
71C0
60C0
C0E0
C060
C060
C060
C060
C060
C060
C060
E0E0
60C0
71C0
3F80
1F00
ENDCHAR
STARTCHAR uniF51B
ENCODING 62747
SWIDTH 432 0
DWIDTH 10 0
BBX 8 16 1 0
BITMAP
6E
7C
38
00
3C
7E
E7
C3
C3
C3
C3
C3
C3
E7
7E
3C
ENDCHAR
STARTCHAR uniF51C
ENCODING 62748
SWIDTH 549 0
DWIDTH 13 0
BBX 11 21 1 0
BITMAP
3180
3300
1E00
0000
1F00
3F80
71C0
60C0
C060
C060
C060
FFE0
FFE0
C060
C060
C060
E0E0
60C0
71C0
3F80
1F00
ENDCHAR
STARTCHAR uniF51D
ENCODING 62749
SWIDTH 432 0
DWIDTH 10 0
BBX 8 16 1 0
BITMAP
6E
7C
38
00
3C
7E
E6
C3
C3
FF
FF
C3
C3
66
7E
3C
ENDCHAR
STARTCHAR uniF51E
ENCODING 62750
SWIDTH 549 0
DWIDTH 13 0
BBX 11 24 1 0
BITMAP
3180
3300
1F00
0000
3300
3300
0000
1F00
3F80
71C0
60C0
C060
C060
C060
FFE0
FFE0
C060
C060
C060
E0E0
60C0
71C0
3F80
1F00
ENDCHAR
STARTCHAR uniF51F
ENCODING 62751
SWIDTH 432 0
DWIDTH 10 0
BBX 8 21 1 0
BITMAP
C6
66
3C
00
66
66
66
00
00
3C
7E
E6
C3
C3
FF
FF
C3
C3
66
7E
3C
ENDCHAR
STARTCHAR uniF520
ENCODING 62752
SWIDTH 622 0
DWIDTH 15 0
BBX 11 21 2 0
BITMAP
1F80
1F80
0000
0000
C060
C060
C060
C060
C060
C060
FC60
FE60
C760
C360
C360
C360
C360
C360
C660
FE60
F860
ENDCHAR
STARTCHAR uniF521
ENCODING 62753
SWIDTH 538 0
DWIDTH 12 0
BBX 10 16 1 0
BITMAP
3F00
3F00
0000
0000
C0C0
C0C0
C0C0
C0C0
FCC0
FEC0
C6C0
C6C0
C6C0
C6C0
FCC0
F8C0
ENDCHAR
STARTCHAR uniF522
ENCODING 62754
SWIDTH 465 0
DWIDTH 11 0
BBX 9 21 1 0
BITMAP
7E00
7E00
0000
0000
7C00
FE00
0700
0300
0180
0180
0180
3F80
3F80
0180
0180
0180
0380
0300
0700
FE00
F800
ENDCHAR
STARTCHAR uniF523
ENCODING 62755
SWIDTH 372 0
DWIDTH 9 0
BBX 7 16 1 0
BITMAP
FC
FC
00
00
78
FC
0E
06
06
7E
7E
06
06
0C
FC
F8
ENDCHAR
STARTCHAR uniF524
ENCODING 62756
SWIDTH 465 0
DWIDTH 11 0
BBX 9 21 1 0
BITMAP
C600
CC00
7800
0000
7C00
FE00
0700
0300
0180
0180
0180
3F80
3F80
0180
0180
0180
0380
0300
0700
FE00
F800
ENDCHAR
STARTCHAR uniF525
ENCODING 62757
SWIDTH 372 0
DWIDTH 9 0
BBX 7 16 1 0
BITMAP
EC
7C
38
00
78
FC
0E
06
06
7E
7E
06
06
0C
FC
F8
ENDCHAR
STARTCHAR uniF526
ENCODING 62758
SWIDTH 469 0
DWIDTH 11 0
BBX 9 20 1 0
BITMAP
3300
3300
0000
0F80
3F80
7000
6000
E000
C000
C000
FF00
FF00
C000
C000
C000
E000
6000
7000
3F80
1F00
ENDCHAR
STARTCHAR uniF527
ENCODING 62759
SWIDTH 376 0
DWIDTH 9 0
BBX 8 17 1 0
BITMAP
44
66
44
00
00
1F
7F
60
C0
C0
FC
FC
C0
C0
60
7F
3E
ENDCHAR
STARTCHAR uniF528
ENCODING 62760
SWIDTH 461 0
DWIDTH 11 0
BBX 9 21 0 0
BITMAP
1F80
1F80
0000
0000
1F80
3F80
3180
6180
6180
6180
6180
6180
7180
3F80
1F80
1980
3180
3180
6180
6180
C180
ENDCHAR
STARTCHAR uniF529
ENCODING 62761
SWIDTH 387 0
DWIDTH 9 0
BBX 8 16 0 0
BITMAP
3F
3F
00
00
1F
3F
73
63
63
73
3F
1F
33
73
63
C3
ENDCHAR
STARTCHAR uniF52A
ENCODING 62762
SWIDTH 461 0
DWIDTH 11 0
BBX 9 21 0 0
BITMAP
3180
3980
1F00
0000
1F80
3F80
3180
6180
6180
6180
6180
6180
7180
3F80
1F80
1980
3180
3180
6180
6180
C180
ENDCHAR
STARTCHAR uniF52B
ENCODING 62763
SWIDTH 387 0
DWIDTH 9 0
BBX 8 16 0 0
BITMAP
33
1F
0E
00
1F
3F
73
63
63
73
3F
1F
33
73
63
C3
ENDCHAR
STARTCHAR uniF52C
ENCODING 62764
SWIDTH 719 0
DWIDTH 17 0
BBX 14 21 2 0
BITMAP
07E0
07E0
0000
0000
C1E0
C3F0
C738
C618
CC0C
CC0C
CC0C
FC0C
FC0C
CC0C
CC0C
CC0C
CC0C
C618
C738
C3F0
C1E0
ENDCHAR
STARTCHAR uniF52D
ENCODING 62765
SWIDTH 581 0
DWIDTH 14 0
BBX 12 16 1 0
BITMAP
3F00
3F00
0000
0000
C3C0
C7E0
CE60
CC30
CC30
FC30
FC30
CC30
CC30
CE70
C7E0
C3C0
ENDCHAR
STARTCHAR uniF52E
ENCODING 62766
SWIDTH 719 0
DWIDTH 17 0
BBX 14 21 2 0
BITMAP
18C0
1980
0F00
0000
C1E0
C3F0
C738
C618
CC0C
CC0C
CC0C
FC0C
FC0C
CC0C
CC0C
CC0C
CC0C
C618
C738
C3F0
C1E0
ENDCHAR
STARTCHAR uniF52F
ENCODING 62767
SWIDTH 581 0
DWIDTH 14 0
BBX 12 16 1 0
BITMAP
3300
1F00
0E00
0000
C3C0
C7E0
CE60
CC30
CC30
FC30
FC30
CC30
CC30
CE70
C7E0
C3C0
ENDCHAR
STARTCHAR uniF530
ENCODING 62768
SWIDTH 533 0
DWIDTH 13 0
BBX 12 20 0 -3
BITMAP
1FC0
1FC0
18C0
18C0
18C0
18C0
18C0
18C0
18C0
38C0
30C0
30C0
30C0
30C0
70C0
E0F0
E0F0
0030
0030
0030
ENDCHAR
STARTCHAR uniF531
ENCODING 62769
SWIDTH 426 0
DWIDTH 10 0
BBX 10 15 0 -3
BITMAP
1F80
1F80
1980
1980
1980
1980
1980
3980
3180
3180
F1C0
E1C0
00C0
00C0
00C0
ENDCHAR
STARTCHAR uniF532
ENCODING 62770
SWIDTH 544 0
DWIDTH 13 0
BBX 9 26 2 -5
BITMAP
6300
7300
3E00
0000
C180
C180
C380
C380
C380
C780
C580
CD80
C980
D980
D180
F180
F180
E180
E180
C180
C180
0180
0180
0380
0780
0700
ENDCHAR
STARTCHAR uniF533
ENCODING 62771
SWIDTH 439 0
DWIDTH 11 0
BBX 8 21 1 -5
BITMAP
66
7E
3C
00
C3
C3
C7
C7
CF
CB
DB
F3
E3
E3
C3
C3
03
03
03
07
06
ENDCHAR
STARTCHAR uniF534
ENCODING 62772
SWIDTH 549 0
DWIDTH 13 0
BBX 11 21 1 0
BITMAP
0C00
0E00
0C00
0000
1F00
3F80
71C0
60C0
C0E0
C060
C060
C060
C060
C060
C060
C060
E0E0
60C0
71C0
3F80
1F00
ENDCHAR
STARTCHAR uniF535
ENCODING 62773
SWIDTH 432 0
DWIDTH 10 0
BBX 8 17 1 0
BITMAP
10
18
10
00
00
3C
7E
E7
C3
C3
C3
C3
C3
C3
E7
7E
3C
ENDCHAR
STARTCHAR uniF536
ENCODING 62774
SWIDTH 622 0
DWIDTH 15 0
BBX 11 21 2 0
BITMAP
3180
3300
1E00
0000
C060
C060
C060
C060
C060
C060
FC60
FE60
C760
C360
C360
C360
C360
C360
C660
FE60
F860
ENDCHAR
STARTCHAR uniF537
ENCODING 62775
SWIDTH 538 0
DWIDTH 12 0
BBX 10 16 1 0
BITMAP
3300
3E00
1E00
0000
C0C0
C0C0
C0C0
C0C0
FCC0
FEC0
C6C0
C6C0
C6C0
C6C0
FCC0
F8C0
ENDCHAR
STARTCHAR uniF538
ENCODING 62776
SWIDTH 447 0
DWIDTH 11 0
BBX 8 20 1 0
BITMAP
66
66
00
3E
7F
E0
C0
C0
C0
70
3E
7E
E0
C0
C0
C0
C0
E0
7F
3E
ENDCHAR
STARTCHAR uniF539
ENCODING 62777
SWIDTH 353 0
DWIDTH 8 0
BBX 7 17 1 0
BITMAP
CC
CC
CC
00
00
7C
FE
C0
C0
E0
38
78
C0
C0
E0
7E
3E
ENDCHAR
STARTCHAR afii10055.alt
ENCODING 62778
SWIDTH 233 0
DWIDTH 6 0
BBX 3 21 2 0
BITMAP
C0
E0
C0
00
C0
C0
C0
C0
C0
C0
C0
C0
C0
C0
C0
C0
C0
C0
C0
C0
C0
ENDCHAR
STARTCHAR afii10103.alt
ENCODING 62779
SWIDTH 217 0
DWIDTH 4 0
BBX 2 12 1 0
BITMAP
C0
C0
C0
C0
C0
C0
C0
C0
C0
C0
C0
C0
ENDCHAR
STARTCHAR uni0492.alt
ENCODING 62780
SWIDTH 413 0
DWIDTH 10 0
BBX 7 17 2 0
BITMAP
FE
FE
C0
C0
C0
C0
C0
FE
FE
C0
C0
C0
C0
C0
C0
C0
C0
ENDCHAR
STARTCHAR uni0493.alt
ENCODING 62781
SWIDTH 326 0
DWIDTH 8 0
BBX 6 12 1 0
BITMAP
FC
FC
C0
C0
C0
F8
F8
C0
C0
C0
C0
C0
ENDCHAR
STARTCHAR uni04AA.alt
ENCODING 62782
SWIDTH 458 0
DWIDTH 11 0
BBX 9 21 1 -4
BITMAP
0F80
3F80
7000
6000
E000
C000
C000
C000
C000
C000
C000
C000
E000
6000
7000
3F80
0F80
0600
0600
0600
0600
ENDCHAR
STARTCHAR uni04AB.alt
ENCODING 62783
SWIDTH 356 0
DWIDTH 9 0
BBX 7 16 1 -4
BITMAP
3E
7E
60
C0
C0
C0
C0
C0
C0
E0
7E
3E
18
18
18
18
ENDCHAR
STARTCHAR uniF540
ENCODING 62784
SWIDTH 525 0
DWIDTH 13 0
BBX 10 21 2 0
BITMAP
0E00
1800
3000
0000
FC00
FF00
C380
C180
C1C0
C0C0
C0C0
C0C0
C0C0
C0C0
C0C0
C0C0
C180
C180
C380
FF00
FC00
ENDCHAR
STARTCHAR uniF541
ENCODING 62785
SWIDTH 433 0
DWIDTH 10 0
BBX 12 18 1 0
BITMAP
0030
0320
0360
0340
0300
0300
3F00
7F00
6300
C300
C300
C300
C300
C300
C300
E700
7F00
3900
ENDCHAR
STARTCHAR uniF542
ENCODING 62786
SWIDTH 536 0
DWIDTH 13 0
BBX 9 21 2 0
BITMAP
0700
0C00
1800
0000
C180
C180
C180
C180
C180
C180
C180
FF80
FF80
C180
C180
C180
C180
C180
C180
C180
C180
ENDCHAR
STARTCHAR uniF543
ENCODING 62787
SWIDTH 440 0
DWIDTH 10 0
BBX 8 18 1 0
BITMAP
07
C6
C6
C4
C0
C0
DE
FF
E7
C3
C3
C3
C3
C3
C3
C3
C3
C3
ENDCHAR
STARTCHAR uniF544
ENCODING 62788
SWIDTH 415 0
DWIDTH 10 0
BBX 8 18 2 0
BITMAP
0C
CC
C8
D8
C0
C0
C0
C0
C0
C0
C0
C0
C0
C0
C0
C0
FF
FF
ENDCHAR
STARTCHAR uniF545
ENCODING 62789
SWIDTH 233 0
DWIDTH 6 0
BBX 6 18 1 0
BITMAP
0C
CC
C8
C8
D0
C0
C0
C0
C0
C0
C0
C0
C0
C0
C0
C0
F0
70
ENDCHAR
STARTCHAR uniF546
ENCODING 62790
SWIDTH 447 0
DWIDTH 11 0
BBX 10 21 0 0
BITMAP
0380
0700
0C00
0000
FFC0
FFC0
0C00
0C00
0C00
0C00
0C00
0C00
0C00
0C00
0C00
0C00
0C00
0C00
0C00
0C00
0C00
ENDCHAR
STARTCHAR uniF547
ENCODING 62791
SWIDTH 275 0
DWIDTH 7 0
BBX 7 18 1 0
BITMAP
06
06
0C
68
60
60
FC
FC
60
60
60
60
60
60
60
60
7C
3C
ENDCHAR
STARTCHAR uniF548
ENCODING 62792
SWIDTH 463 0
DWIDTH 11 0
BBX 11 21 0 0
BITMAP
0380
0700
0C00
0000
C060
C060
6040
60C0
60C0
20C0
3180
3180
3180
1900
1B00
1B00
0A00
0A00
0E00
0400
0400
ENDCHAR
STARTCHAR uniF549
ENCODING 62793
SWIDTH 388 0
DWIDTH 9 0
BBX 9 18 0 0
BITMAP
0600
0600
0400
0400
0800
0000
C180
6380
6300
6300
2600
3600
3600
1400
1C00
1C00
0800
0800
ENDCHAR
STARTCHAR uniF54A
ENCODING 62794
SWIDTH 434 0
DWIDTH 10 0
BBX 8 17 1 0
BITMAP
7C
FE
07
03
03
03
06
78
7E
07
03
03
03
03
06
FE
F8
ENDCHAR
STARTCHAR uniF54B
ENCODING 62795
SWIDTH 349 0
DWIDTH 8 0
BBX 7 17 0 -5
BITMAP
7C
FE
86
06
06
0C
78
7C
0C
06
06
06
06
06
8C
FC
78
ENDCHAR
STARTCHAR uniF54C
ENCODING 62796
SWIDTH 434 0
DWIDTH 10 0
BBX 8 21 1 0
BITMAP
66
3C
18
00
7C
FE
07
03
03
03
06
78
7E
07
03
03
03
03
06
FE
F8
ENDCHAR
STARTCHAR uniF54D
ENCODING 62797
SWIDTH 349 0
DWIDTH 8 0
BBX 7 22 0 -5
BITMAP
DC
58
70
20
00
7C
FE
86
06
06
0C
78
7C
0C
06
06
06
06
06
8C
FC
78
ENDCHAR
STARTCHAR uniF62C
ENCODING 63020
SWIDTH 162 0
DWIDTH 4 0
BBX 2 5 1 10
BITMAP
40
C0
80
C0
C0
ENDCHAR
STARTCHAR uniF62D
ENCODING 63021
SWIDTH 162 0
DWIDTH 4 0
BBX 2 5 1 8
BITMAP
C0
C0
40
C0
80
ENDCHAR
STARTCHAR uniF62E
ENCODING 63022
SWIDTH 288 0
DWIDTH 7 0
BBX 5 5 1 10
BITMAP
48
D8
90
D8
D8
ENDCHAR
STARTCHAR uniF62F
ENCODING 63023
SWIDTH 288 0
DWIDTH 7 0
BBX 5 5 1 8
BITMAP
D8
D8
48
C8
90
ENDCHAR
STARTCHAR uniF634
ENCODING 63028
SWIDTH 181 0
DWIDTH 4 0
BBX 2 5 2 8
BITMAP
C0
C0
C0
80
80
ENDCHAR
STARTCHAR uniF635
ENCODING 63029
SWIDTH 286 0
DWIDTH 7 0
BBX 5 5 2 8
BITMAP
D8
D0
D0
90
90
ENDCHAR
STARTCHAR one.numerator
ENCODING 63074
SWIDTH 330 0
DWIDTH 8 0
BBX 4 10 1 7
BITMAP
30
70
F0
B0
30
30
30
30
30
30
ENDCHAR
STARTCHAR uniF6C3
ENCODING 63171
SWIDTH 219 0
DWIDTH 5 0
BBX 2 4 2 -5
BITMAP
C0
C0
40
80
ENDCHAR
STARTCHAR uniF6C9
ENCODING 63177
SWIDTH 312 0
DWIDTH 7 0
BBX 5 3 1 18
BITMAP
38
70
C0
ENDCHAR
STARTCHAR uniF6CA
ENCODING 63178
SWIDTH 381 0
DWIDTH 9 0
BBX 6 3 2 18
BITMAP
CC
78
30
ENDCHAR
STARTCHAR uniF6CB
ENCODING 63179
SWIDTH 371 0
DWIDTH 9 0
BBX 6 2 1 18
BITMAP
CC
CC
ENDCHAR
STARTCHAR uniF6CE
ENCODING 63182
SWIDTH 312 0
DWIDTH 7 0
BBX 5 3 1 18
BITMAP
E0
70
18
ENDCHAR
STARTCHAR uniF6CF
ENCODING 63183
SWIDTH 393 0
DWIDTH 9 0
BBX 7 3 1 18
BITMAP
66
4C
D8
ENDCHAR
STARTCHAR uniF6D0
ENCODING 63184
SWIDTH 379 0
DWIDTH 9 0
BBX 6 2 2 19
BITMAP
FC
FC
ENDCHAR
STARTCHAR uniF6D1
ENCODING 63185
SWIDTH 397 0
DWIDTH 10 0
BBX 7 3 1 18
BITMAP
C6
E6
7C
ENDCHAR
STARTCHAR uniF6D4
ENCODING 63188
SWIDTH 376 0
DWIDTH 9 0
BBX 6 3 1 13
BITMAP
CC
FC
78
ENDCHAR
STARTCHAR fi
ENCODING 64257
SWIDTH 437 0
DWIDTH 10 0
BBX 8 17 1 0
BITMAP
1E
3F
70
60
60
FF
FF
63
63
63
63
63
63
63
63
63
63
ENDCHAR
STARTCHAR fl
ENCODING 64258
SWIDTH 469 0
DWIDTH 11 0
BBX 10 17 1 0
BITMAP
3F00
3F00
6300
6300
6300
FB00
FB00
6300
6300
6300
6300
6300
6300
6300
6300
63C0
61C0
ENDCHAR
STARTCHAR .notdef
ENCODING -1
SWIDTH 750 0
DWIDTH 18 0
BBX 16 17 1 0
BITMAP
FFFF
FFFF
EFF7
C7E3
E7E7
F3CF
F99F
FC3F
FE7F
FC3F
F99F
F3CF
E7E7
C7E3
EFF7
FFEF
FFFF
ENDCHAR
STARTCHAR .null
ENCODING -1
SWIDTH 0 0
DWIDTH 0 0
BBX 1 1 0 0
BITMAP
00
ENDCHAR
STARTCHAR nonmarkingreturn
ENCODING -1
SWIDTH 212 0
DWIDTH 5 0
BBX 1 1 0 0
BITMAP
00
ENDCHAR
STARTCHAR caron.l
ENCODING -1
SWIDTH 151 0
DWIDTH 4 0
BBX 3 5 3 12
BITMAP
60
60
40
C0
80
ENDCHAR
STARTCHAR l.var
ENCODING -1
SWIDTH 205 0
DWIDTH 4 0
BBX 2 17 1 0
BITMAP
C0
C0
C0
C0
C0
C0
C0
C0
C0
C0
C0
C0
C0
C0
C0
C0
C0
ENDCHAR
STARTCHAR fraction.alt
ENCODING -1
SWIDTH 148 0
DWIDTH 4 0
BBX 11 17 -4 0
BITMAP
0020
0060
00C0
0080
0180
0100
0200
0600
0400
0C00
0800
1000
3000
2000
6000
C000
8000
ENDCHAR
ENDFONT
